<svg xmlns="http://www.w3.org/2000/svg" width="160" height="108" viewBox="0 0 160 108">
    <g fill="#3B4858" fill-rule="evenodd">
        <path d="M96.79 0L80 16.904 63.21 0H42v67h21.21L80 50.417 96.79 67H118V0H96.79zm6.852 60.236h7.505V6.764h-7.505v53.472zm-54.789 0h7.505V6.764h-7.505v53.472zm14.31-51.441l12.49 12.576-12.442 12.438-.048-25.014zm.048 34.79L96.79 9.464v13.943L63.21 56.884v-13.3zm21.607 1.881L96.788 33.5l.048 24.389-12.018-12.423zM9.114 88v8.043H3.886V88H0v20h3.886v-8.318h5.228V108H13V88zM19 88v20h10v-3.639h-6.251v-4.954H29V95.77h-6.251v-4.13H29V88zM35 88v3.639h5.087V108h3.852V91.639H49V88zM57.22 88L50 108h4.146l1.841-5.093 8.01 5.034.095.059H68l-6.995-20h-3.784zm.233 10.626l1.621-4.87 2.523 7.42-4.144-2.55zM118.221 88L111 108h4.145l1.842-5.093 8.01 5.034.094.059H129l-6.995-20h-3.784zm.233 10.626l1.621-4.87 2.521 7.42-4.142-2.55zM85.702 102.406a6.563 6.563 0 0 1-2.004 1.316c-1.522.649-3.565.653-5.119-.015a6.25 6.25 0 0 1-2.038-1.39 6.321 6.321 0 0 1-1.342-2.087 6.987 6.987 0 0 1-.48-2.606c0-.931.162-1.808.48-2.605a6.312 6.312 0 0 1 1.343-2.088 6.256 6.256 0 0 1 2.038-1.39c1.525-.652 3.525-.666 5.04-.04.747.31 1.412.735 1.978 1.265l.281.264 2.736-2.834-.29-.27a9.699 9.699 0 0 0-3.21-1.981c-1.219-.462-2.551-.695-3.963-.695-1.488 0-2.886.262-4.15.78a10 10 0 0 0-3.293 2.165 9.98 9.98 0 0 0-2.168 3.287c-.52 1.265-.782 2.659-.782 4.142 0 1.485.263 2.879.782 4.143a9.963 9.963 0 0 0 2.168 3.288 10 10 0 0 0 3.293 2.164c1.267.518 2.663.78 4.15.78 1.485 0 2.866-.243 4.101-.723a9.605 9.605 0 0 0 3.27-2.096l.286-.28-2.834-2.759-.273.265zM102.657 95.675h-5.22V87.66H93.56v19.93h3.879V99.3h5.22v8.29h3.878V87.66h-3.879zM133.843 107.59h3.88V87.66h-3.88zM155.904 87.66v12.765l-7.83-12.765h-3.707v19.93h3.878V94.899l7.832 12.69h3.706V87.66z"/>
    </g>
</svg>
