<svg xmlns="http://www.w3.org/2000/svg" width="80" height="80" viewBox="0 0 80 80">
    <g fill="none" fill-rule="nonzero">
        <g fill="#DBDBDB">
            <path d="M26.667 44c-.134 0-.284-.017-.417-.067l-20-6.666A1.326 1.326 0 0 1 5.333 36v-4H8v3.033l18.667 6.217 18.666-6.217V32H48v4c0 .567-.367 1.083-.917 1.267l-20 6.666c-.133.05-.283.067-.416.067zM45.333 12H48v9.333h-2.667zM52 25.333h16V28H52zM72 32h2.667v16H72zM25.333 58.667H28V68h-2.667z"/>
            <path d="M25.333 42.667H28V48h-2.667z"/>
        </g>
        <path fill="#FFBF69" d="M0 20h13.333v13.333H0z"/>
        <path fill="#FF9F1C" d="M20 46.667h13.333V60H20z"/>
        <path fill="#27233D" d="M66.667 46.667H80V60H66.667z"/>
        <path fill="#FF9F1C" d="M20 66.667h13.333V80H20z"/>
        <path fill="#261C51" d="M40 20h13.333v13.333H40z"/>
        <path fill="#36314F" d="M66.667 20H80v13.333H66.667z"/>
        <path fill="#181335" d="M40 0h13.333v13.333H40z"/>
    </g>
</svg>
