<svg xmlns="http://www.w3.org/2000/svg" width="32" height="32" viewBox="0 0 32 32">
    <g fill="#C0C0C0" fill-rule="nonzero">
        <path d="M20.677 10.442h-9.354C9.488 10.442 8 11.914 8 13.728v4.624c0 1.816 1.488 3.286 3.323 3.286h9.354c1.835 0 3.323-1.472 3.323-3.286v-4.624c0-1.816-1.488-3.286-3.323-3.286zm-2.247 5.824l-4.376 2.064a.176.176 0 0 1-.25-.159v-4.256a.176.176 0 0 1 .255-.155l4.375 2.192a.175.175 0 0 1-.004.314z"/>
        <path d="M6.4 3.2a3.2 3.2 0 0 0-3.2 3.2v19.2a3.2 3.2 0 0 0 3.2 3.2h19.2a3.2 3.2 0 0 0 3.2-3.2V6.4a3.2 3.2 0 0 0-3.2-3.2H6.4zm0-3.2h19.2A6.4 6.4 0 0 1 32 6.4v19.2a6.4 6.4 0 0 1-6.4 6.4H6.4A6.4 6.4 0 0 1 0 25.6V6.4A6.4 6.4 0 0 1 6.4 0z"/>
    </g>
</svg>
