<svg xmlns="http://www.w3.org/2000/svg" width="32" height="32" viewBox="0 0 32 32">
    <g fill="#C0C0C0" fill-rule="nonzero">
        <path d="M6.4 3.2a3.2 3.2 0 0 0-3.2 3.2v19.2a3.2 3.2 0 0 0 3.2 3.2h19.2a3.2 3.2 0 0 0 3.2-3.2V6.4a3.2 3.2 0 0 0-3.2-3.2H6.4zm0-3.2h19.2A6.4 6.4 0 0 1 32 6.4v19.2a6.4 6.4 0 0 1-6.4 6.4H6.4A6.4 6.4 0 0 1 0 25.6V6.4A6.4 6.4 0 0 1 6.4 0z"/>
        <path d="M7.318 15.515l4.147 1.548 1.606 5.163c.103.33.507.452.775.233l2.312-1.885a.69.69 0 0 1 .841-.023l4.17 3.027a.489.489 0 0 0 .766-.295l3.054-14.694a.489.489 0 0 0-.654-.555L7.313 14.6a.49.49 0 0 0 .005.915zm5.494.724l8.106-4.993c.146-.09.296.108.17.224l-6.69 6.218a1.387 1.387 0 0 0-.429.83l-.228 1.689c-.03.225-.347.248-.409.03l-.876-3.08a.816.816 0 0 1 .356-.918z"/>
    </g>
</svg>
