<svg xmlns="http://www.w3.org/2000/svg" width="80" height="80" viewBox="0 0 80 80">
    <g fill="none" fill-rule="nonzero">
        <path fill="#DBDBDB" d="M12.143 14.55l2.522-2.523 15.187 15.187-2.522 2.523zM17 38.296h7.133v3.574H17zM12.173 65.593l16.04-16.04 2.527 2.528L14.7 68.12zM56.217 38.296h7.133v3.574h-7.133zM38.383 16.868h3.567v7.148h-3.567zM38.383 56.167h3.567v7.148h-3.567zM49.587 52.069l2.522-2.523L68.182 65.62l-2.522 2.522zM49.604 28.08l16.04-16.038 2.527 2.527-16.04 16.04z"/>
        <path fill="#343066" d="M53.5 33.403l-13.333-6.68-13.334 6.68 13.334 6.68z"/>
        <path fill="#66647A" d="M26.833 33.403v13.361l13.334 6.68v-13.36z"/>
        <path fill="#17133F" d="M40.167 40.084v13.36l13.333-6.68V33.403z"/>
        <ellipse cx="8.133" cy="7.599" fill="#DBDBDB" rx="7.133" ry="7.148"/>
        <path fill="#FDB62F" d="M7.75 15.198C3.567 15.198.167 11.791.167 7.6S3.567 0 7.75 0s7.583 3.407 7.583 7.6c0 4.191-3.4 7.598-7.583 7.598zm0-13.511c-3.25 0-5.9 2.655-5.9 5.912s2.65 5.912 5.9 5.912c3.25 0 5.9-2.655 5.9-5.912S11 1.687 7.75 1.687z"/>
        <ellipse cx="40.967" cy="7.599" fill="#DBDBDB" rx="7.133" ry="7.148"/>
        <path fill="#FDB62F" d="M40.583 15.198C36.4 15.198 33 11.791 33 7.6S36.4 0 40.583 0c4.184 0 7.584 3.407 7.584 7.6 0 4.191-3.4 7.598-7.584 7.598zm0-13.511c-3.25 0-5.9 2.655-5.9 5.912s2.65 5.912 5.9 5.912c3.25 0 5.9-2.655 5.9-5.912s-2.65-5.912-5.9-5.912z"/>
        <ellipse cx="72.8" cy="7.599" fill="#DBDBDB" rx="7.133" ry="7.148"/>
        <path fill="#FDB62F" d="M72.417 15.198c-4.184 0-7.584-3.407-7.584-7.599S68.233 0 72.417 0C76.6 0 80 3.407 80 7.6c0 4.191-3.4 7.598-7.583 7.598zm0-13.511c-3.25 0-5.9 2.655-5.9 5.912s2.65 5.912 5.9 5.912c3.25 0 5.9-2.655 5.9-5.912s-2.65-5.912-5.9-5.912z"/>
        <ellipse cx="72.8" cy="39.332" fill="#DBDBDB" rx="7.133" ry="7.148"/>
        <path fill="#FDB62F" d="M72.417 46.931c-4.184 0-7.584-3.407-7.584-7.6 0-4.191 3.4-7.598 7.584-7.598C76.6 31.733 80 35.14 80 39.332s-3.4 7.6-7.583 7.6zm0-13.511c-3.25 0-5.9 2.655-5.9 5.912s2.65 5.912 5.9 5.912c3.25 0 5.9-2.655 5.9-5.912s-2.65-5.912-5.9-5.912z"/>
        <ellipse cx="72.8" cy="72.401" fill="#DBDBDB" rx="7.133" ry="7.148"/>
        <path fill="#FDB62F" d="M72.417 80c-4.184 0-7.584-3.407-7.584-7.6 0-4.191 3.4-7.598 7.584-7.598C76.6 64.802 80 68.209 80 72.4S76.6 80 72.417 80zm0-13.511c-3.25 0-5.9 2.655-5.9 5.912s2.65 5.912 5.9 5.912c3.25 0 5.9-2.655 5.9-5.912s-2.65-5.912-5.9-5.912z"/>
        <ellipse cx="40.3" cy="72.401" fill="#DBDBDB" rx="7.133" ry="7.148"/>
        <path fill="#FDB62F" d="M39.917 80c-4.184 0-7.584-3.407-7.584-7.6 0-4.191 3.4-7.598 7.584-7.598 4.183 0 7.583 3.407 7.583 7.599S44.1 80 39.917 80zm0-13.511c-3.25 0-5.9 2.655-5.9 5.912s2.65 5.912 5.9 5.912c3.25 0 5.9-2.655 5.9-5.912s-2.65-5.912-5.9-5.912z"/>
        <ellipse cx="8.05" cy="72.401" fill="#DBDBDB" rx="7.133" ry="7.148"/>
        <path fill="#FDB62F" d="M7.667 80C3.483 80 .083 76.593.083 72.4c0-4.191 3.4-7.598 7.584-7.598 4.183 0 7.583 3.407 7.583 7.599S11.85 80 7.667 80zm0-13.511c-3.25 0-5.9 2.655-5.9 5.912s2.65 5.912 5.9 5.912c3.25 0 5.9-2.655 5.9-5.912s-2.65-5.912-5.9-5.912z"/>
        <ellipse cx="8.05" cy="40.117" fill="#DBDBDB" rx="7.133" ry="7.148"/>
        <path fill="#FDB62F" d="M7.667 47.716c-4.184 0-7.584-3.407-7.584-7.6 0-4.191 3.4-7.598 7.584-7.598 4.183 0 7.583 3.407 7.583 7.599s-3.4 7.6-7.583 7.6zm0-13.511c-3.25 0-5.9 2.655-5.9 5.912s2.65 5.912 5.9 5.912c3.25 0 5.9-2.655 5.9-5.912s-2.65-5.912-5.9-5.912z"/>
    </g>
</svg>
