<svg xmlns="http://www.w3.org/2000/svg" width="160" height="107" viewBox="0 0 160 107">
    <path fill="#FF7100" fill-rule="evenodd" d="M9.114 87H13v20H9.114v-8.318H3.886V107H0V87h3.886v8.043h5.228V87zM20 87h10v3.64h-6.251v4.13H30v3.637h-6.251v4.954H30V107H20V87zm14 0h14v3.64h-5.06V107h-3.853V90.64H34V87zm23.22 0L50 107h4.146l1.841-5.093 8.01 5.034.095.059H68l-6.995-20h-3.784zm.233 10.626l1.621-4.87 2.523 7.42-4.144-2.55zM118.221 87L111 107h4.145l1.842-5.093 8.01 5.034.094.059H129l-6.995-20h-3.784zm.233 10.626l1.621-4.87 2.521 7.42-4.142-2.55zm-32.752 3.831l.273-.262 2.834 2.734-.286.277c-.929.9-2.029 1.6-3.27 2.076-1.235.476-2.616.718-4.1.718-1.488 0-2.884-.26-4.15-.774a10.015 10.015 0 0 1-3.294-2.144 9.87 9.87 0 0 1-2.168-3.258c-.52-1.253-.782-2.634-.782-4.105 0-1.47.263-2.85.782-4.103a9.887 9.887 0 0 1 2.168-3.258c.92-.908 2.028-1.63 3.293-2.145 1.264-.513 2.662-.773 4.15-.773 1.412 0 2.744.232 3.962.689a9.72 9.72 0 0 1 3.212 1.962l.289.269-2.736 2.807-.281-.261a6.508 6.508 0 0 0-1.979-1.253c-1.514-.62-3.514-.607-5.04.039a6.252 6.252 0 0 0-2.037 1.377 6.248 6.248 0 0 0-1.343 2.069 6.868 6.868 0 0 0-.48 2.581c0 .924.162 1.792.48 2.582a6.255 6.255 0 0 0 1.342 2.068 6.246 6.246 0 0 0 2.038 1.378c1.554.66 3.597.657 5.119.014a6.577 6.577 0 0 0 2.004-1.304zm16.955-6.67v-7.94h3.88v19.746h-3.88v-8.212h-5.22v8.212H93.56V86.846h3.879v7.942h5.22zm31.186 11.807V86.846h3.88v19.748h-3.88zm22.061-19.748h3.879v19.748h-3.706l-7.832-12.575v12.575h-3.878V86.846h3.707l7.83 12.648V86.846zM98.511 0L81.5 16.652 64.49 0H43v66h21.49L81.5 49.665 98.51 66H120V0H98.51zm6.942 59.337h7.604V6.663h-7.604v52.674zm-55.51 0h7.604V6.663h-7.604v52.674zM64.442 8.664l12.654 12.388L64.49 33.304l-.048-24.64zm.048 34.27l34.02-33.61v13.734L64.49 56.035v-13.1zm21.891 1.854L98.51 33l.048 24.025-12.176-12.237z"/>
</svg>
