<svg xmlns="http://www.w3.org/2000/svg" width="920" height="602" viewBox="0 0 920 602">
    <defs>
        <linearGradient id="a" x1="-.007%" x2="99.995%" y1="50%" y2="50%">
            <stop offset="0%" stop-color="#F1B5A2"/>
            <stop offset="100%" stop-color="#18002A"/>
        </linearGradient>
    </defs>
    <g fill="none" fill-rule="nonzero">
        <path fill="#231F20" d="M256.561 400.864s17.927 5.637 20.546 7.248c2.82 1.41.805 4.63 3.021 5.637 2.014 1.007 15.107 4.228 15.711 5.436.604 1.208 3.223 6.04 3.021 7.651-.201 1.61-5.237 2.013-4.834 3.624.403 1.41 4.834 2.819 4.834 2.819s14.704-1.61 15.309 0c.604 1.61 1.007 5.637 3.625 6.241 2.619.604 10.676-.805 12.086 1.611 1.208 2.617 5.237 5.034 5.237 5.034s1.611-.604 4.23.2c2.618.806 2.215 8.457 1.611 9.262-.604.806-10.273 3.222-10.675 5.437-.403 2.214-2.619 23.355-3.223 24.361-.604 1.007-16.718 1.41-17.725 3.624-1.008 2.014-4.23 18.524-5.439 19.933-1.209 1.41-9.87 6.644-9.87 6.644l-17.524 23.758s-11.682 3.624-13.092 5.637c-1.209 2.014-7.252 19.732-6.849 22.148.202 2.214-4.23 9.664-4.431 13.288-.201 3.624 8.46 20.134 6.043 21.14-2.216 1.007-17.726-9.261-19.136-13.087-1.41-3.825-1.41-18.523-.402-21.543 1.007-3.02 2.014-6.241 1.812-9.261-.201-3.02 6.849-31.208 6.647-37.852-.201-6.644 4.029-36.845 3.022-39.06-1.007-2.214-19.136-17.113-19.74-21.542-.604-4.43-2.82-6.443-4.834-9.06-2.014-2.618-4.633-12.081-2.014-16.913 2.618-4.832 7.452-10.671 7.251-14.094-.201-3.422-1.813-9.865-.806-12.08 1.007-2.013 9.87-7.45 13.294-6.644 3.223 1.007 9.669-2.416 13.294.403zm-31.623 3.624c-.403-1.611-9.87-3.222-13.093-4.631-3.223-1.41-2.618-5.235-2.618-8.255 0-3.02-5.439-3.221-8.259-4.027-2.82-.805-3.021-3.825-3.424-6.04s-16.718-3.825-18.733-5.436c-2.014-1.61-1.812-21.14.202-23.96 2.014-2.818 32.832-7.65 35.048-7.247 2.215.402 4.633 12.483 5.237 13.69.604 1.209 1.611 2.014 2.82.806 1.007-1.208-1.41-15.704 0-17.92 1.41-2.012 4.632-8.455 6.445-10.469 1.813-2.013 3.223-7.852 3.223-9.865 0-2.014 15.308-17.315 18.128-20.134 2.82-3.02 9.064-8.456 9.669-11.275.604-3.02-3.223-2.215-4.633-1.41-1.41 1.007-1.007-4.831-.604-7.247.402-2.618 25.178-8.457 27.595-9.06 2.215-.605-1.41-10.873-2.014-13.289-.605-2.215-7.252-3.624-9.065-4.43-1.812-.805-5.84-18.724-6.042-19.53-.202-.804-5.237-1.811-6.043-1.811s-.201 8.053 0 9.865c.201 1.812-5.64.403-8.258-.604-2.619-1.006-4.432-16.308-5.237-18.523-.806-2.013-15.309-4.228-16.316-3.624-1.007.604.202 10.268.604 15.302.403 5.033-.201 5.436 1.612 6.644 1.813 1.208.806 10.47 1.208 13.087.403 2.617-2.014 3.624-4.028 5.235-2.014 1.61-.806 6.845-.202 8.657.605 1.611-1.208 5.034-4.632 4.832-3.425-.2-14.906-16.308-17.726-19.127-2.82-2.818-6.042-1.812-9.87-3.422-3.827-1.41-12.286-17.718-11.682-20.738.403-3.222 12.488-16.711 17.322-20.335 4.835-3.826 5.036-9.463 4.835-12.483-.202-3.02-3.626-5.638-6.043-6.04-2.619-.403-6.043-8.457-7.856-8.658-1.611-.201-10.07 5.839-11.48 8.658-1.41 2.818-45.523-1.41-45.523-1.41s-7.654-5.436-8.258-8.859c-.604-3.422-12.489-5.033-16.316-5.033-4.028 0-24.372 4.63-26.99 5.436-2.619.805-9.467-.805-11.482-3.423-2.014-2.617-28.803-1.41-31.623-4.43-2.82-3.02-9.266-6.04-13.093-5.838-3.827.201-19.538 10.872-21.955 13.087-2.216 2.013-1.209 8.658.806 11.275 2.014 2.819 9.87 1.208 11.078 3.221 1.208 2.014-14.301 4.631-16.114 5.638-1.813 1.006-1.209 7.248-.403 9.261.806 2.014 9.266 0 11.078-.805 1.813-.805 3.223.403 4.23 2.215 1.007 1.812-10.474 14.295-9.668 17.113.806 2.82 20.747 17.718 23.164 17.718 2.417 0 10.071-17.516 12.287-17.718 2.014-.2 29.81 6.846 32.63 8.457 2.82 1.409 34.243 47.113 36.66 51.542 2.215 4.43-3.223 20.738-2.82 25.369.403 4.63 14.704 20.536 17.12 24.563 2.216 4.027 2.015 4.43 2.82 7.45.605 3.02 13.093 19.53 13.698 20.334.604.806 2.82 0 3.021-.805.201-.805-10.273-19.731-8.863-20.335 1.41-.604 10.676 14.094 15.913 20.536 5.237 6.443 3.424 6.242 4.633 10.067 1.208 3.826 24.976 13.087 28.602 13.893 3.626.805 4.834 1.006 6.244 3.221 1.41 2.013 9.064 2.013 10.474 2.819 1.41.604 2.82 4.63 4.23 7.45 1.41 2.818 16.517 5.033 17.323 5.033 2.215 0 1.41-2.618 1.007-4.228zM383.258 58.79c.2-4.228 2.82-3.624 6.243-4.43 3.425-.805 2.015-6.241 5.036-6.644 3.021-.604 1.611-7.852 2.014-9.865.202-2.014-5.237-2.014-7.251-1.209-2.014.806-4.431 7.651-6.848 8.054-2.418.604-7.252 1.208-8.057 4.228-.806 3.02-5.64 5.235-5.842 4.228-.201-1.208 3.827-11.677 4.432-13.69.604-2.014-.806-2.82-3.022-3.424-2.215-.604-4.431 6.242-5.64 7.047-1.208.806-4.431 1.41-5.64-.201-1.208-1.61 3.022-3.825 3.828-5.638.805-1.61-3.425-2.818-6.446-2.214-3.021.604-3.424 3.624-5.036 4.228-1.611.604-3.424-2.618-2.618-4.832.806-2.215 5.035-2.215 6.244-4.228 1.209-2.014 18.33-5.034 18.33-6.644 0-1.611-2.216-5.638-5.64-6.443-3.424-.806-4.23-5.034-4.834-7.651-.605-2.618-19.539-2.618-22.359-2.215-2.82.201-1.61 6.242-2.82 7.248-1.208 1.208-11.28-1.61-11.28-1.61s-3.826 2.818-3.423 4.832c.604 2.013 4.43 2.214 4.834 4.832.201 2.617-10.676 0-10.676 0s-3.625 2.819-3.625 4.43c0 1.61 5.035-.202 5.438 2.617.201 2.818-8.661 1.61-9.87 1.61-1.208 0-5.64-.201-5.64 1.208 0 1.611-7.855 6.04-7.855 6.04s-3.827-3.02-4.432-5.033c-.604-2.013-8.057-.201-10.07 0-2.015.201-1.612 4.832-3.626 5.034-2.015.2-6.647 9.06-6.647 11.274 0 2.215-4.835 2.215-6.647 2.618-2.015.201-2.82 8.456-3.827 9.463-1.209 1.208-3.425 3.02-3.425 4.228 0 1.208 3.827 1.41 5.237 1.41 1.41 0 1.41 9.865.806 11.677-.604 2.013-5.841 3.422-7.856 3.624-2.014.201-3.625 6.644-6.445 7.047-2.82.201-4.834 3.422-3.827 5.637.806 2.215 4.431 1.41 4.834 3.02.201 1.61 4.029 1.41 6.244 1.61 2.216.202 2.014 3.424 2.82 5.034.806 1.611-7.251 3.02-8.661 3.02-1.41 0 2.618 7.651 4.23 8.457 1.611.805 24.775-.202 26.99.2 2.216.605 6.648 19.33 8.058 25.168 1.41 5.839 5.84 15.704 9.064 17.315 3.021 1.61 2.82 27.986 3.021 31.208.202 3.02-2.618 4.832-3.626 6.241-1.208 1.41 3.425 18.523 4.432 21.543 1.208 3.02 16.92 14.496 19.337 14.496 2.618 0 5.237-26.576 6.244-29.798.805-3.02 12.085-4.228 14.502-5.234 2.619-1.208 4.432-9.262 4.834-11.275.202-2.014 17.323-8.054 19.337-8.658 2.014-.604-.604-6.443-.805-7.852-.202-1.41-7.05-.604-7.05-2.013 0-1.41 1.611-2.819 3.021-3.624 1.41-.806 1.41-4.228 2.82-4.228s2.82 2.013 4.23 3.825c1.41 2.013 2.82 1.61 3.626 1.41 1.007-.202-1.41-7.652-1.41-10.068 0-2.416-4.835-4.228-6.245-4.429-1.41-.201-3.021-3.423-3.021-5.637 0-2.215 3.626-3.02 5.64-4.229 2.014-1.208 2.014.806 3.827 1.208 2.014.202 2.216-1.208 2.417-3.02.201-2.013 1.813-3.624 3.424-4.832 1.612-1.208.605-7.65 1.41-7.852.806-.201.605-4.43 1.209-5.637.604-1.208-3.424-3.826-4.23-4.43-.806-.604-1.41-5.033-1.813-5.839-.403-.805 8.46-2.214 9.064-2.617.604-.201.604-4.43 0-5.637-.604-1.208-6.244-2.215-8.057-2.82-2.014-.603 0-4.831 0-6.24 0-1.41 6.647-9.262 6.647-10.672v-8.657c2.216-1.41 2.216-10.872 2.417-15.1zm535.788 145.567c-.201 1.61-7.654 0-9.87 0-2.215 0-3.827 0-5.237 2.819-1.41 2.818-10.876 1.61-13.092 1.409-2.216-.201-4.23 1.41-4.23 1.41s1.41 5.637 6.244 5.637 5.64-.806 6.647 1.208c1.209 2.013-7.654 5.033-10.071 5.637-2.619.604-9.266 7.047-9.266 7.047l-14.905 3.826s-9.064 4.429-10.071 6.241c-1.209 1.61-4.432 13.49-4.432 15.503s-9.265 17.919-12.085 17.315c-2.82-.604-1.209-18.724-.604-22.952.604-4.229 11.28-10.47 14.502-12.685 3.424-2.214 6.647-12.08 6.647-12.08l-13.092 4.228-10.474 5.034s-8.46 6.241-10.676 4.832c-2.216-1.41-25.58.805-25.58.805s-2.216 8.053-2.82 11.476c-.605 3.423-8.662 3.826-10.676 4.228-2.014.202-5.64 4.228-5.64 4.228-.604 2.82 3.424 4.43 9.064 5.034 5.64.604 8.661 4.228 9.87 5.839 1.208 1.61 4.23 20.939 4.431 22.75.202 1.612.604 2.216 3.626 4.43 3.021 2.215 1.41 2.618 1.611 6.242.202 3.624-5.841 3.624-7.855 4.43-2.015.805-1.41 13.086-1.41 13.086s.604 5.235 0 8.054c-.605 2.818-21.956 8.053-24.776 9.06-2.82.805-1.208 8.657-2.618 10.67-1.41 2.014-1.209-7.247-1.611-12.28-.605-5.034 9.265-5.034 16.315-8.658 7.05-3.624 7.05-5.034 7.251-8.658.202-3.624 2.619-11.476 2.82-16.308.202-4.832 4.23-7.047 4.23-7.047l-3.223-14.9c-.403-1.61-2.618-1.811-3.223-.2l-6.042 17.919-22.963 15.905-1.208 14.9s-.604 3.825-2.82 4.831c-2.216.806-4.834-9.06-5.036-12.281-.201-3.423-6.647-5.638-8.661-4.832-2.014.805-7.251 3.825-7.856 6.644-.604 2.819 5.036 16.51 6.446 19.932 1.41 3.423-1.611 12.886-3.424 18.322-1.612 5.235-5.237 9.06-9.064 10.47-3.626 1.409-25.984 0-25.984 0s-1.41 5.637-1.209 10.066c.202 4.43 2.82 6.242 5.64 9.262 2.82 3.02-1.41 7.852-3.424 11.678-2.014 3.825-6.647 0-9.265-3.02-2.619-3.02-7.05-6.645-8.057-6.443-1.209.201-.202 10.872 0 13.087.201 2.214 4.834 3.624 6.244 5.033 1.41 1.41.604 13.087 0 14.295-.605 1.208-3.827-6.443-4.23-9.865-.202-3.423-4.834-3.826-5.842-6.242-1.208-2.215-.604-3.624-.2-6.443.2-2.818-1.41-12.281-2.015-13.69-.604-1.41-4.834-1.611-7.05-2.82-2.216-1.207-8.661-18.724-9.87-19.932-1.208-1.208-9.064 4.832-9.265 8.054-.202 3.422-16.517 9.06-17.927 10.47-1.41 1.409-1.612 13.086-2.014 14.898-.202 1.61-8.057 7.047-9.87 7.047-1.813 0-3.626-10.872-5.237-12.08-1.612-1.208-4.432-15.705-4.432-19.127 0-3.423-2.82-3.624-5.035-3.423-2.216.201-3.424-10.067-5.036-10.671-1.611-.604-34.846-3.02-37.062-3.02-2.216 0-12.69-11.678-13.092-13.49-.605-1.61-4.835-1.61-5.238.604-.604 2.215 7.252 16.913 9.065 19.53 1.611 2.819 17.12.604 19.135 1.41 2.014.805 1.41 6.241 1.41 8.456 0 2.214-8.057 5.838-10.071 6.644-2.015.805-2.216 3.02-2.82 5.033-.605 2.014-20.546 7.651-23.366 6.644-2.82-.805-23.768-36.643-24.976-38.656-1.209-2.014-4.23-.604-4.431 1.61-.202 2.215 23.768 43.49 25.983 44.496 2.216 1.208 15.711-1.61 16.517.604.806 2.215-2.014 5.839-3.827 7.65-2.014 1.611-2.619 6.444-3.021 10.068-.605 3.624-14.503 7.046-16.517 10.67-2.014 3.625-2.82 35.033-2.82 38.657 0 3.624-7.251 3.624-9.87 4.833-2.618 1.208-3.424 10.67-3.626 14.496-.201 3.825-2.618 4.832-4.23 5.637-1.61.806-5.64 21.946-7.654 22.751-2.014.806-29.408 5.84-31.22 5.235-1.612-.604-.806-8.657-.605-10.67.202-2.014-3.625-5.034-5.237-6.443-1.611-1.41-2.215-17.316-2.215-17.316s-3.827-5.033-5.036-5.838c-1.209-.806-.806-12.685-.806-12.685s2.82-5.033 2.82-6.241c0-1.208-.604-17.718 0-19.127.605-1.41-7.855-6.242-9.265-7.248-1.41-1.208.604-17.315-.806-20.537-1.41-3.02-49.148-3.02-51.967-3.624-2.82-.604-13.496-16.308-14.503-18.322-1.209-2.013.201-24.361.806-26.576.604-2.215 10.675-12.282 13.697-13.49 3.02-1.208 6.244-11.275 6.244-11.275 0-8.456 10.07-8.053 15.51-9.463 5.236-1.409 6.244-2.617 7.05-5.234.805-2.82 21.955-1.208 24.17-.604 2.216.604.806 9.06-1.611 9.06s-4.23.604-3.626 2.617c.604 2.014 13.496 1.41 17.121 1.41 3.626 0 2.216 7.852 3.827 9.06 1.612 1.208 17.323-5.839 21.956-5.839 4.43 0 5.64.805 6.647 3.624 1.208 2.819 2.014 4.228 3.625 3.624 1.612-.604 1.612-5.235 4.432-5.637 2.82-.202 9.064-2.014 12.69-3.826 3.625-2.013 2.82-11.275 2.215-14.093-.604-2.82-15.913-2.618-18.33-2.014-2.215.604-3.827-4.832-3.625-9.06.201-4.228 2.82-1.61 6.244-2.215 3.424-.604 6.647-3.02 13.495-2.617 6.647.403 3.022-1.61 5.237 0 2.216 1.61 10.072.201 10.474-1.812.202-2.014-2.82-6.644-7.05-7.047-4.23-.201-4.23-7.047-4.23-9.865 0-2.82-16.919-.605-18.53.2-1.612.806-6.446 13.49-6.446 13.49s-10.071 7.249-12.891 7.249c-2.82 0-1.209 5.838-3.424 6.241-2.216.201-3.425-11.476-3.425-11.476s-6.244-3.624-9.064-4.228c-2.82-.604-5.237-6.644-7.855-5.839-2.619.805 2.618 8.657 3.625 10.067 1.209 1.41 1.209 4.43-.604 4.228-1.611-.201-9.87-12.08-10.071-13.49-.202-1.41-5.237 1.208-5.841 3.826-.605 2.818-14.302-.202-14.302-.202s-4.43 9.866-6.445 11.477c0 0-4.23 7.046-5.841 7.65-1.612.604-15.712 1.209-15.712-1.208 0-2.214-1.611-12.885-.604-14.899 1.209-2.013 16.92-1.61 17.726-4.228.805-2.617-.605-16.308-.605-16.308l7.856-8.658c.805-4.228 10.877-6.442 12.287-8.657 1.41-2.215 33.033-7.248 36.458-8.054 3.424-.805 4.23-9.261 4.834-11.677.604-2.618 23.365-10.671 24.17-12.282.806-1.61 2.015-4.228 4.23-5.033 2.216-.806 5.036-5.034 5.036-5.034s-7.251-1.409-9.064-1.409c-1.813 0-2.618-5.033-3.626-4.832-1.208.201-11.28.201-11.28.201s.605 3.826.605 5.235c0 1.41-4.834 1.208-5.841 1.208-1.209 0-1.41 2.819-2.82 2.617-1.41-.2-.605-8.657-.202-11.274.202-2.618 5.64-7.249 7.252-8.457 1.61-1.208 0-9.463.2-11.476.202-2.013-4.229-.604-5.639-.201-1.41.201-15.107 24.764-15.107 24.764s-1.208 19.127-.604 22.953c.604 3.825-7.05 6.644-9.266 7.248-2.215.604-3.02-1.41-2.82-4.43.202-3.02-3.827-8.053-5.035-9.462-1.209-1.41-5.64-1.208-5.64 1.208 0 2.214-2.216 2.013-4.23 1.208-2.014-.806-2.014-14.295-1.41-17.718.604-3.423 7.251-6.443 11.28-7.852 3.827-1.41 3.827-3.826 8.057-15.1 4.23-11.275 7.654-11.678 8.661-17.718 1.209-5.84 14.1-8.054 14.301-10.671.202-2.618 14.906-3.02 18.33-3.624 3.424-.604 3.021 4.832 3.827 7.248.806 2.617 6.244 3.825 12.287 2.819 6.244-1.208 5.035 7.248 8.46 8.456 3.424 1.208 1.41 7.047 1.208 8.657-.201 1.611-14.1-.201-16.315-.805-2.216-.604-2.619 2.819.201 5.033 2.82 2.215.806 9.262 1.41 12.08.604 2.82 4.23.806 9.266 1.209 5.035.201 7.855-6.242 9.87-9.262 2.014-3.02 19.538-12.08 19.538-12.08s5.035-3.825 7.654-6.242c2.618-2.214 17.12-2.617 19.337-3.02 2.215-.604 2.618-4.832 1.208-7.852-1.41-3.02 3.021 0 6.647 1.41 3.626 1.409 8.057 2.617 10.676 2.013 2.618-.604 1.41 3.825 4.23 3.825 2.82 0 1.41-15.1.604-20.133-.806-5.034 2.82-8.457 2.618-11.275-.201-2.819.202-3.826 2.82-3.826 2.619 0 1.209 5.84 3.022 7.248 2.014 1.41 2.215 30.201 2.215 30.201s-.201 6.443-.201 9.262c0 2.818-3.626 1.61-3.021 3.422.604 1.611 7.05 1.611 9.064 0 2.014-1.61 1.208-20.737 1.208-20.737s-1.611-11.275-.604-12.886c1.208-1.61 8.661 0 10.474-1.61 1.611-1.611 2.618-3.826 4.834-4.43 2.216-.604 3.424 7.248 3.424 7.248s4.23.201 5.842-2.617c1.611-2.82-2.619-6.645-2.216-10.671.201-3.826-2.014-3.826-3.827-4.228-2.014-.202-2.014-2.014-.806-4.833 1.209-2.818 11.28-2.013 15.711-3.02 4.432-1.208 3.425-6.644 3.022-10.872-.202-4.228 2.014-1.208 2.014-1.208s4.431-4.43 7.05-6.443c2.618-2.013 16.517.604 17.927-2.617 1.41-3.02.604-3.825 4.43-5.235 3.828-1.41 3.828-4.43 4.835-7.852.806-3.423 2.619-3.02 5.036-3.624 2.618-.604 2.618 10.067 2.618 10.067h17.927l3.424 10.872s-.805 4.832-2.215 6.443c-1.41 1.61-3.827 2.819-4.432 4.832-.604 2.013-3.827 4.832-7.654 4.832-3.626 0-5.237 4.43-4.431 7.248.805 2.819 5.237 1.41 8.057.604 2.82-.805.805-1.61 1.611-3.02.806-1.41 19.941-.201 22.761 0 2.82.202 6.446 7.047 6.446 7.047s3.625-.201 5.64-2.215c2.014-2.013 2.618-4.228 8.057-4.832 5.64-.604 5.84 13.087 6.647 16.309.805 3.02 1.41 5.033 3.02 5.637 1.612.604 3.022-1.41 4.835-4.43 1.612-3.02 12.891 2.82 15.913 2.215 3.021-.604 3.827-3.422 4.431-5.839.604-2.617.201-5.234 2.216-5.838 2.014-.604 5.841 1.208 5.841 1.208s14.301 1.208 16.315 1.208c2.015 0 .605 6.443 3.425 7.248 2.82.805 1.41 3.825 3.827 6.04s14.905 1.007 18.53 0c3.626-.805 2.216 5.235 3.626 7.248 1.41 2.014 17.927 3.826 21.351 3.826 3.425 0 4.23 5.234 7.05 4.832 2.82-.604 2.216-5.235 3.626-7.047 1.41-1.61 12.891 1.61 16.315 2.819 3.424 1.208 9.467 13.69 9.467 13.69s6.446 1.41 8.661 2.215c2.216.604 3.022 7.45 2.82 9.262zm-346.45 103.89c-2.215-3.423-5.438-1.41-7.654-4.228-2.216-2.819-.604-4.228.604-5.839 1.209-1.61 2.619-4.43.806-6.241-1.611-1.61-4.431-.202-6.647 1.41-2.216 1.61-8.258 4.227-6.445 7.247 0 0 .2.403.604 1.007 1.611 2.617 5.438 9.664 5.035 10.67-.604 1.209-2.014 3.424-.805 6.242 1.208 2.82 3.021 9.463 5.841 9.06 2.82-.603 10.071 2.014 8.661-1.409-1.41-3.423-4.23-10.067-2.014-11.879 2.014-1.812 4.029-2.617 2.014-6.04zM555.878 465.09s-1.209 5.84-2.618 6.242c-1.209.402-5.64 1.61-6.043 3.825-.403 2.014-1.813 18.12-1.209 18.523.605.403 6.647 3.826 7.453 1.007.604-2.819 2.014-9.664 2.618-11.275.403-1.61 4.23-4.027 3.828-7.248-.403-3.222 1.007-12.282-.605-12.483-2.014 0-3.021-1.007-3.424 1.41zm133.343-36.24s1.813 6.04 4.431 7.852c2.619 1.61 4.633 3.624 5.439 5.637.806 2.014 1.813 3.423 4.431 4.43 2.619 1.006 8.863 3.422 7.856 1.812-1.007-1.41-4.633-2.82-5.036-5.84-.403-3.22-.604-6.24-4.23-9.06-3.625-2.818-5.64-5.838-8.46-6.442-2.82-.604-5.237-.604-5.438 0-.202.604 1.007 1.61 1.007 1.61zm-6.244-9.665s.201 4.228 1.41 4.228c1.208 0 2.417.202 3.827-.604 1.208-.805 1.41-1.61 0-2.818-1.41-1.007-5.237-.806-5.237-.806zm34.04 30.402c.202.403 1.41 2.416 2.62 2.014 1.006-.403 4.229-.202 7.25-.202 3.022 0 4.835.403 6.245 0 1.41-.402 3.02-2.818 1.208-2.416-1.611.202-4.834.202-6.848-.805-2.015-1.007-7.856 0-7.856 0-1.611.201-2.82 1.007-2.618 1.41zm13.697-32.012s-3.424 4.228-4.632 4.63c-1.209.403-11.884 1.611-12.287 3.222-.403 1.41.806 3.02 1.611 3.422.806.403.806 5.437 2.619 6.04 1.611.605 3.625 4.027 5.035 3.02 1.41-1.006 9.467 0 9.467-1.811 0-1.812 2.216-4.228 2.619-4.832.604-.604 4.23-1.41 3.625-3.222-.604-1.812-1.41-2.013-1.61-4.43-.202-2.617.603-4.63.2-5.637-.402-1.006-2.618-1.812-3.827-1.812-1.41-.402-2.82 1.41-2.82 1.41zm13.899-32.013c-.202.604-.806 8.456.201 9.463 1.007 1.006 4.029 5.033 4.029 5.033s.403 5.638 0 6.644c-.403 1.007 0 3.222 0 3.222s5.035.201 6.042 1.41c1.008 1.207 2.015.804 4.432 2.012 2.215 1.209 1.208-3.624 0-4.429-1.209-.805-4.633-2.617-4.834-3.825-.202-1.208-1.612-5.638-1.008-8.054.605-2.215.806-3.624-1.007-4.63-1.813-1.007-3.021-7.249-3.021-7.249s-.604-2.819-2.216-3.221c-1.813 0-2.618 3.624-2.618 3.624zm-.403 48.522c.806 1.611-2.216 5.436-3.021 7.248-.806 1.611-.403 2.618 1.007 3.222 1.41.604 1.611-2.215 3.827-3.624 2.014-1.208 1.007 1.006 2.014 3.221 1.007 2.014 2.618 2.618 3.626 2.215 1.007-.201-.202-2.819-1.008-4.63-.805-1.813-1.208-2.618-.604-3.826.604-1.208 3.626-1.208 4.23-1.611.604-.403-1.611-1.812-4.028-1.61-2.216.2-.403-2.82 0-3.423.402-.604 1.611-1.41 4.028-1.007 2.216.403 2.82-.805 3.223-1.61.403-.806-.403-1.813-2.014-1.41-1.612.402-3.022-.202-5.036-.202h-4.23c-2.618-.402-2.82 5.235-2.014 7.047z" opacity=".4"/>
        <path fill="url(#a)" d="M257.166 394.622s17.926 5.638 20.545 7.248c2.82 1.41.806 4.631 3.021 5.638 2.014 1.006 15.107 4.228 15.711 5.436.605 1.208 3.223 6.04 3.022 7.65-.202 1.41-5.237 2.014-4.834 3.625.402 1.41 4.834 2.818 4.834 2.818s14.704-1.61 15.308 0c.604 1.611 1.007 5.638 3.626 6.242 2.618.604 10.675-.805 12.085 1.61 1.209 2.618 5.237 5.034 5.237 5.034s1.612-.604 4.23.201c2.619.806 2.216 8.457 1.611 9.262-.604.805-10.272 3.221-10.675 5.436-.403 2.215-2.619 23.355-3.223 24.362-.604 1.007-16.718 1.41-17.725 3.624-1.007 2.013-4.23 18.523-5.439 19.932-1.208 1.41-9.87 6.645-9.87 6.645l-17.523 23.757s-11.683 3.625-13.093 5.638c-1.209 2.013-7.251 19.731-6.848 22.147.201 2.215-4.23 9.664-4.432 13.288-.201 3.624 8.46 20.134 6.043 21.14-2.216 1.008-17.725-9.26-19.135-13.086-1.41-3.826-1.41-18.523-.403-21.543 1.007-3.02 2.014-6.242 1.813-9.262-.202-3.02 6.848-31.207 6.647-37.851-.202-6.644 4.028-36.845 3.021-39.06-1.007-2.215-19.135-17.114-19.74-21.543-.604-4.43-2.82-6.443-4.834-9.06-2.014-2.618-4.633-12.08-2.014-16.913 2.618-4.832 7.453-10.67 7.251-14.093-.201-3.423-1.813-9.866-.805-12.08 1.007-2.014 9.87-7.45 13.294-6.645 3.222 1.007 9.668-2.416 13.294.403zm-31.624 3.423c-.403-1.61-9.87-3.222-13.093-4.631-3.222-1.41-2.618-5.235-2.618-8.255 0-3.02-5.439-3.221-8.259-4.027-2.82-.805-3.02-3.825-3.424-6.04-.403-2.214-16.718-3.825-18.732-5.436-2.015-1.61-1.813-21.14.201-23.959 2.014-2.819 32.832-7.65 35.048-7.248 2.216.403 4.633 12.483 5.237 13.69.604 1.209 1.611 2.014 2.82.806 1.007-1.208-1.41-15.704 0-17.919s4.633-8.456 6.446-10.47c1.812-2.013 3.222-7.852 3.222-9.865s15.309-17.315 18.129-20.134c2.82-3.02 9.064-8.456 9.668-11.275.604-3.02-3.223-2.214-4.633-1.41-1.41 1.008-1.007-4.831-.604-7.247.403-2.618 25.178-8.456 27.595-9.06 2.216-.604-1.41-10.873-2.014-13.289-.604-2.214-7.251-3.624-9.064-4.43-1.813-.805-5.842-18.724-6.043-19.529-.201-.805-5.237-1.812-6.043-1.812-.805 0-.201 8.054 0 9.866.202 1.812-5.64.402-8.258-.604-2.619-1.007-4.431-16.309-5.237-18.524-.806-2.013-15.308-4.228-16.316-3.624-1.007.604.202 10.269.605 15.302.403 5.034-.202 5.436 1.611 6.644 1.813 1.208.806 10.47 1.209 13.087.402 2.618-2.015 3.624-4.029 5.235-2.014 1.61-.806 6.845-.201 8.657.604 1.611-1.209 5.034-4.633 4.833-3.424-.202-14.905-16.309-17.725-19.128-2.82-2.818-6.043-1.812-9.87-3.422-3.827-1.41-12.287-17.718-11.683-20.738.403-3.221 12.489-16.711 17.323-20.335 4.834-3.624 5.035-9.463 4.834-12.483-.202-3.02-3.626-5.638-6.043-6.04-2.618-.403-6.043-8.456-7.855-8.658-1.612-.201-10.072 5.839-11.482 8.658-1.41 2.818-45.522-1.41-45.522-1.41s-7.654-5.436-8.258-8.858c-.604-3.423-12.488-5.034-16.315-5.034-4.029 0-24.373 4.63-26.991 5.436-2.619.806-9.467-.805-11.481-3.423-2.015-2.617-28.804-1.409-31.624-4.429-2.82-3.02-9.266-6.04-13.093-5.839-3.827.202-19.538 10.872-21.955 13.087-2.216 2.014-1.208 8.658.806 11.275 2.014 2.819 9.87 1.208 11.078 3.222 1.007 1.812-14.301 4.63-16.114 5.637-1.813 1.007-1.208 7.248-.403 9.262.806 2.013 9.266 0 11.079-.806 1.813-.805 3.223.403 4.23 2.215 1.007 1.812-10.474 14.295-9.669 17.114.806 2.818 20.747 17.717 23.164 17.717 2.216 0 10.071-17.516 12.287-17.717 2.014-.202 29.81 6.845 32.63 8.456 2.82 1.41 34.243 47.113 36.66 51.542 2.216 4.43-3.223 20.738-2.82 25.369.403 4.63 14.704 20.536 17.121 24.563 2.216 4.027 2.014 4.43 2.82 7.45.806 3.02 13.093 19.53 13.697 20.335.604.805 2.82 0 3.021-.806.202-.805-10.272-19.73-8.862-20.335 1.41-.604 10.675 14.094 15.912 20.537 5.237 6.442 3.424 6.241 4.633 10.067 1.208 3.825 24.977 13.086 28.602 13.892 3.626.805 4.834 1.007 6.244 3.221 1.41 2.014 9.064 2.014 10.474 2.819 1.41.604 2.82 4.63 4.23 7.45 1.41 2.818 16.517 5.033 17.323 5.033 2.215.201 1.41-2.416 1.007-4.228zm158.32-345.496c.201-4.228 2.82-3.624 6.244-4.43 3.424-.805 2.014-6.24 5.035-6.643 3.022-.604 1.612-7.853 2.015-9.866.201-2.013-5.237-2.013-7.252-1.208-2.014.805-4.431 7.65-6.848 8.054-2.417.604-7.251 1.208-8.057 4.228-.806 3.02-5.64 5.234-5.841 4.228-.202-1.208 3.827-11.678 4.43-13.691.605-2.014-.805-2.819-3.02-3.423-2.216-.604-4.432 6.241-5.64 7.047-1.209.805-4.432 1.41-5.64-.202-1.209-1.61 3.021-3.825 3.827-5.637.806-1.61-3.424-2.819-6.446-2.215-3.021.604-3.424 3.624-5.035 4.228-1.612.604-3.425-2.617-2.619-4.832.806-2.214 5.036-2.214 6.244-4.228 1.209-2.013 18.33-5.033 18.33-6.644 0-1.61-2.216-5.637-5.64-6.443-3.424-.805-4.23-5.033-4.834-7.65-.604-2.618-19.538-2.618-22.358-2.215-2.82.201-1.612 6.241-2.82 7.248-1.209 1.208-11.28-1.61-11.28-1.61s-3.827 2.818-3.424 4.831c.604 2.014 4.431 2.215 4.834 4.832.201 2.618-10.676 0-10.676 0s-3.625 2.82-3.625 4.43c0 1.61 5.035-.202 5.438 2.617.202 2.819-8.66 1.61-9.87 1.61-1.208 0-5.64-.2-5.64 1.209 0 1.61-7.855 6.04-7.855 6.04s-3.827-3.02-4.431-5.033c-.605-2.014-8.057-.202-10.071 0-2.015.2-1.612 4.832-3.626 5.033-2.014.201-6.647 9.06-6.647 11.275s-4.834 2.215-6.647 2.617c-2.014.202-2.82 8.457-3.827 9.463-1.209 1.208-3.424 3.02-3.424 4.228 0 1.208 3.827 1.41 5.237 1.41 1.41 0 1.41 9.865.805 11.677-.604 2.014-5.841 3.423-7.855 3.624-2.014.202-3.626 6.645-6.446 7.047-2.82.202-4.834 3.423-3.827 5.638.806 2.214 4.431 1.409 4.834 3.02.403 1.61 4.029 1.41 6.244 1.61 2.216.202 2.015 3.423 2.82 5.034.806 1.61-7.25 3.02-8.66 3.02-1.41 0 2.618 7.65 4.23 8.456 1.61.805 24.774-.201 26.99.201 2.216.604 6.647 19.329 8.057 25.168 1.41 5.838 5.841 15.704 9.064 17.315 3.021 1.61 2.82 27.986 3.021 31.207.202 3.02-2.618 4.832-3.625 6.242-1.007 1.409 3.424 18.523 4.431 21.543 1.209 3.02 16.92 14.496 19.337 14.496 2.417 0 5.237-26.577 6.244-29.798.806-3.02 12.085-4.228 14.503-5.235 2.618-1.208 4.43-9.261 4.834-11.275.201-2.013 17.322-8.053 19.336-8.657 2.015-.604-.604-6.443-.805-7.852-.202-1.41-7.05-.604-7.05-2.014 0-1.41 1.611-2.818 3.021-3.624 1.41-.805 1.41-4.228 2.82-4.228s2.82 2.013 4.23 3.825c1.41 2.014 2.82 1.611 3.626 1.41 1.007-.201-1.41-7.651-1.41-10.067 0-2.617-4.834-4.228-6.244-4.43-1.41-.2-3.022-3.422-3.022-5.637 0-2.215 3.626-3.02 5.64-4.228 2.014-1.208 2.014.805 3.827 1.208 2.014.201 2.216-1.208 2.417-3.02.202-2.013 1.813-3.624 3.425-4.832 1.61-1.208.604-7.651 1.41-7.852.805-.202.604-4.43 1.208-5.638.604-1.208-3.424-3.825-4.23-4.43-.806-.603-1.41-5.033-1.813-5.838-.403-.805 8.46-2.215 9.064-2.617.605-.202.605-4.43 0-5.638-.604-1.208-6.244-2.215-8.057-2.819-2.014-.604 0-4.832 0-6.241 0-1.41 6.647-9.262 6.647-10.671v-8.658c2.216-1.409 2.216-10.872 2.418-15.1zM919.65 198.116c-.202 1.611-7.655 0-9.87 0-2.216 0-3.827 0-5.237 2.82-1.41 2.818-10.877 1.61-13.093 1.408-2.215-.2-4.23 1.41-4.23 1.41s1.41 5.637 6.244 5.637c4.835 0 5.64-.805 6.647 1.208 1.209 2.014-7.654 5.034-10.07 5.638-2.62.604-9.266 7.047-9.266 7.047l-14.906 3.825s-9.064 4.43-10.07 6.242c-1.21 1.61-4.432 13.49-4.432 15.503s-9.266 17.919-12.086 17.315c-2.82-.604-1.208-18.725-.604-22.953.604-4.228 11.28-10.47 14.503-12.684 3.424-2.215 6.647-12.08 6.647-12.08l-13.093 4.228-10.474 5.033s-8.46 6.242-10.676 4.832c-2.215-1.41-25.58.806-25.58.806s-2.216 8.053-2.82 11.476c-.605 3.422-8.662 3.825-10.676 4.228-2.014.201-5.64 4.228-5.64 4.228-.604 2.819 3.424 4.43 9.064 5.033 5.64.604 8.662 4.228 9.87 5.84 1.209 1.61 4.23 20.938 4.431 22.75.202 1.611.605 2.215 3.626 4.43s1.41 2.617 1.611 6.241c.202 3.624-5.84 3.624-7.855 4.43-2.014.805-1.41 13.087-1.41 13.087s.604 5.234 0 8.053c-.604 2.819-21.955 8.054-24.775 9.06-2.82.806-1.209 8.658-2.619 10.671-1.41 2.014-1.208-7.248-1.611-12.281-.604-5.034 9.265-5.034 16.315-8.658 7.05-3.624 7.05-5.033 7.251-8.657.202-3.624 2.619-11.477 2.82-16.309.202-4.832 4.23-7.047 4.23-7.047l-3.222-14.899c-.403-1.61-2.619-1.812-3.223-.2l-6.043 17.918-22.962 15.906-1.209 14.899s-.604 3.825-2.82 4.832c-2.216.805-4.834-9.06-5.036-12.282-.2-3.422-6.647-5.637-8.66-4.832-2.015.806-7.252 3.826-7.856 6.644-.605 2.82 5.035 16.51 6.445 19.933 1.41 3.423-1.611 12.885-3.424 18.322-1.813 5.436-5.237 9.06-9.064 10.47-3.626 1.408-25.984 0-25.984 0s-1.41 5.637-1.208 10.066c.201 4.43 2.82 6.241 5.64 9.262 2.82 3.02-1.41 7.852-3.425 11.677-2.014 3.826-6.647 0-9.265-3.02-2.619-3.02-7.05-6.644-8.057-6.443-1.209.202-.202 10.873 0 13.087.201 2.215 4.834 3.624 6.244 5.034 1.41 1.409.604 13.087 0 14.295-.604 1.208-3.827-6.443-4.23-9.866-.201-3.423-4.834-3.825-5.841-6.241-1.209-2.215-.605-3.624-.202-6.443.202-2.819-1.41-12.282-2.014-13.691-.604-1.41-4.834-1.61-7.05-2.819-2.215-1.208-8.661-18.724-9.87-19.932-1.208-1.208-9.064 4.832-9.265 8.053-.202 3.423-16.517 9.06-17.927 10.47-1.41 1.41-1.611 13.087-2.014 14.899-.403 1.812-8.057 7.047-9.87 7.047-1.611 0-3.626-10.873-5.237-12.08-1.611-1.209-4.431-15.705-4.431-19.128s-2.82-3.624-5.036-3.423c-2.216.202-3.424-10.066-5.036-10.67-1.61-.604-34.846-3.02-37.062-3.02-2.215 0-12.69-11.678-13.092-13.49-.604-1.61-4.834-1.61-5.237.604-.605 2.215 7.251 16.912 9.064 19.53 1.611 2.818 17.12.604 19.135 1.409 2.014.805 1.41 6.241 1.41 8.456s-8.057 5.839-10.071 6.644c-2.014.806-2.216 3.02-2.82 5.034-.604 2.013-20.545 7.65-23.365 6.644-2.82-.805-23.768-36.644-24.977-38.657-1.208-2.013-4.23-.604-4.431 1.61-.202 2.216 23.768 43.49 25.984 44.496 2.215 1.208 15.71-1.61 16.516.604.806 2.215-2.014 5.84-3.827 7.651-2.014 1.611-2.618 6.443-3.021 10.067-.604 3.624-14.503 7.047-16.517 10.671-2.014 3.624-2.82 35.033-2.82 38.657 0 3.624-7.251 3.624-9.87 4.832-2.618 1.208-3.424 10.67-3.625 14.496-.202 3.826-2.619 4.832-4.23 5.638-1.612.805-5.64 21.946-7.654 22.751-2.015.805-29.408 5.839-31.221 5.235-1.611-.604-.806-8.658-.604-10.671.201-2.014-3.626-5.034-5.237-6.443-1.612-1.41-2.216-17.315-2.216-17.315s-3.827-5.033-5.036-5.839c-1.208-.805-.805-12.684-.805-12.684s2.82-5.034 2.82-6.242c0-1.208-.605-17.717 0-19.127.604-1.409-7.856-6.241-9.266-7.248-1.41-1.208.604-17.315-.806-20.536-1.41-3.02-49.147-3.02-51.967-3.624-2.82-.604-13.496-16.309-14.503-18.322-1.208-2.013.202-24.362.806-26.577.604-2.214 10.675-12.281 13.697-13.49 3.021-1.207 6.244-11.274 6.244-11.274 0-8.456 10.071-8.054 15.51-9.463 5.237-1.41 6.244-2.617 7.05-5.235.805-2.819 21.955-1.208 24.17-.604 2.216.604.806 9.06-1.61 9.06-2.62 0-4.23.604-3.627 2.618.605 2.013 13.496 1.41 17.121 1.41 3.626 0 2.216 7.851 3.828 9.06 1.611 1.207 17.322-5.84 21.955-5.84 4.431 0 5.64.806 6.647 3.625 1.208 2.818 2.014 4.228 3.625 3.624 1.612-.604 1.612-5.235 4.432-5.638 2.82-.201 9.064-2.013 12.69-3.825 3.625-2.014 2.82-11.275 2.215-14.094-.604-2.819-15.912-2.617-18.33-2.013-2.215.604-3.826-4.832-3.625-9.06.201-4.229 2.82-1.611 6.244-2.215 3.424-.604 6.647-3.02 13.496-2.618 6.647.403 3.02-1.61 5.237 0 2.215 1.611 10.07.202 10.474-1.812.201-2.013-2.82-6.644-7.05-7.046-4.23-.403-4.23-7.047-4.23-9.866s-16.92-.604-18.531.201c-1.612.806-6.446 13.49-6.446 13.49s-10.071 7.248-12.89 7.248c-2.82 0-1.21 5.839-3.425 6.242-2.216.201-3.424-11.477-3.424-11.477s-6.244-3.624-9.064-4.228c-2.82-.604-5.237-6.644-7.856-5.839-2.619.806 2.619 8.658 3.626 10.067 1.208 1.41 1.208 4.43-.605 4.228-1.611-.2-9.87-12.08-10.07-13.49-.202-1.409-5.238 1.209-5.842 3.826-.604 2.819-14.301-.201-14.301-.201s-4.432 9.865-6.446 11.476c0 0-4.23 7.047-5.841 7.651-1.612.604-15.711 1.208-15.711-1.208 0-2.215-1.612-12.886-.605-14.899 1.209-2.013 16.92-1.61 17.726-4.228.805-2.617-.604-16.308-.604-16.308l7.855-8.658c.806-4.228 10.877-6.443 12.287-8.658 1.41-2.214 33.034-7.248 36.458-8.053 3.424-.805 4.23-9.262 4.834-11.678.604-2.617 23.365-10.67 24.17-12.281.807-1.61 2.015-4.228 4.23-5.034 2.216-.805 5.036-5.033 5.036-5.033s-7.25-1.41-9.064-1.41c-1.611 0-2.618-5.033-3.625-4.832-1.209.202-11.28.202-11.28.202s.604 3.825.604 5.235c0 1.409-4.834 1.208-5.841 1.208-1.209 0-1.41 2.818-2.82 2.617-1.41-.201-.604-8.658-.201-11.275.2-2.617 5.64-7.248 7.25-8.456 1.612-1.208 0-9.463.202-11.476.202-2.014-4.23-.604-5.64-.202-1.41.403-15.106 24.765-15.106 24.765s-1.209 19.127-.605 22.952c.605 3.826-7.05 6.644-9.265 7.248-2.216.604-3.022-1.409-2.82-4.429.201-3.02-3.827-8.053-5.036-9.463-1.208-1.41-5.64-1.208-5.64 1.208 0 2.215-2.215 2.014-4.23 1.208-2.014-.805-2.014-14.295-1.41-17.718.605-3.422 7.252-6.442 11.28-7.852 3.827-1.409 3.827-3.825 8.057-15.1 4.23-11.275 7.654-11.678 8.661-17.718 1.209-5.839 14.1-8.053 14.302-10.67.2-2.618 14.905-3.02 18.33-3.625 3.423-.604 3.02 4.832 3.826 7.248.806 2.618 6.244 3.826 12.287 2.82 6.244-1.209 5.036 7.247 8.46 8.455 3.424 1.208 1.41 7.047 1.208 8.658-.201 1.61-14.1-.201-16.315-.805-2.216-.604-2.618 2.818.202 5.033 2.82 2.215.805 9.262 1.41 12.08.604 2.819 4.23.806 9.265 1.208 5.036.202 7.856-6.241 9.87-9.261 2.014-3.02 19.538-12.08 19.538-12.08s5.036-3.826 7.654-6.242c2.619-2.215 17.121-2.617 19.337-3.02 2.216-.604 2.618-4.832 1.208-7.852-1.41-3.02 3.022 0 6.647 1.41 3.626 1.408 8.057 2.617 10.676 2.012 2.618-.604 1.41 3.826 4.23 3.826 2.82 0 1.41-15.1.604-20.134-.806-5.033 2.82-8.456 2.619-11.275-.202-2.819.201-3.825 2.82-3.825 2.618 0 1.208 5.839 3.02 7.248 2.015 1.41 2.217 30.2 2.217 30.2s-.202 6.443-.202 9.262c0 2.819-3.625 1.61-3.021 3.423.604 1.61 7.05 1.61 9.064 0 2.014-1.61 1.208-20.738 1.208-20.738s-1.61-11.275-.604-12.886c1.209-1.61 8.661 0 10.474-1.61 1.612-1.61 2.619-3.826 4.834-4.43 2.216-.604 3.425 7.249 3.425 7.249s4.23.2 5.841-2.618c1.611-2.819-2.619-6.644-2.216-10.67.202-3.826-2.014-3.826-3.827-4.229-2.014-.201-2.014-2.013-.805-4.832 1.208-2.819 11.28-2.013 15.71-3.02 4.432-1.208 3.425-6.644 3.022-10.872-.201-4.228 2.014-1.208 2.014-1.208s4.432-4.43 7.05-6.443c2.619-2.013 16.517.604 17.927-2.618 1.41-3.02.604-3.825 4.431-5.234 3.827-1.41 3.827-4.43 4.834-7.852.806-3.423 2.619-3.02 5.036-3.625 2.619-.604 2.619 10.067 2.619 10.067h17.926l3.425 10.873s-.806 4.832-2.216 6.442c-1.41 1.611-3.827 2.82-4.431 4.832-.605 2.014-3.828 4.833-7.655 4.833-3.625 0-5.237 4.429-4.43 7.248.805 2.818 5.236 1.41 8.056.604 2.82-.806.806-1.61 1.611-3.02.806-1.41 19.941-.202 22.761 0 2.82.201 6.446 7.047 6.446 7.047s3.626-.202 5.64-2.215c2.014-2.014 2.618-4.228 8.057-4.832 5.64-.604 5.841 13.087 6.647 16.308.806 3.02 1.41 5.034 3.021 5.638 1.612.604 3.022-1.41 4.834-4.43 1.612-3.02 12.892 2.819 15.913 2.215 3.021-.604 3.827-3.423 4.431-5.839.605-2.617.202-5.235 2.216-5.839 2.014-.604 5.841 1.208 5.841 1.208s14.301 1.208 16.316 1.208c2.014 0 .604 6.443 3.424 7.248 2.82.806 1.41 3.826 3.827 6.04 2.618 2.215 14.905 1.007 18.531 0 3.626-.805 2.216 5.235 3.626 7.249 1.41 2.013 17.926 3.825 21.35 3.825 3.425 0 4.23 5.235 7.05 4.832 2.82-.604 2.216-5.235 3.626-7.047 1.41-1.61 12.891 1.611 16.315 2.82 3.425 1.207 9.467 13.69 9.467 13.69s6.446 1.41 8.662 2.215c2.215.403 3.021 7.45 2.82 9.261zm-346.652 103.89c-2.216-3.422-5.438-1.409-7.654-4.227-2.216-2.82-.604-4.228.604-5.84 1.209-1.61 2.619-4.429.806-6.24-1.611-1.611-4.431-.202-6.647 1.409-2.216 1.61-8.258 4.228-6.446 7.248 0 0 .202.403.605 1.007 1.611 2.617 5.438 9.664 5.035 10.67-.604 1.208-2.014 3.423-.805 6.242 1.208 2.819 3.02 9.463 5.84 9.06 2.82-.604 10.072 2.013 8.662-1.41-1.41-3.422-4.23-10.066-2.014-11.878 2.216-1.812 4.23-2.618 2.014-6.04zM556.482 458.85s-1.208 5.839-2.618 6.241c-1.209.403-5.64 1.611-6.043 3.826-.403 2.013-1.813 18.12-1.208 18.523.604.402 6.647 3.825 7.452 1.006.604-2.818 2.014-9.664 2.619-11.274.403-1.611 4.23-4.027 3.827-7.249-.403-3.221 1.007-12.281-.604-12.483-2.015 0-3.022-1.006-3.425 1.41zm133.343-36.241s1.813 6.04 4.432 7.852c2.618 1.61 4.632 3.624 5.438 5.638.806 2.013 1.813 3.422 4.431 4.43 2.619 1.006 8.863 3.422 7.856 1.811-1.007-1.41-4.633-2.819-5.036-5.839-.402-3.221-.604-6.241-4.23-9.06-3.625-2.819-5.64-5.839-8.46-6.443-2.82-.604-5.236-.604-5.438 0-.201.403 1.007 1.611 1.007 1.611zm-6.244-9.866s.202 4.229 1.41 4.229c1.209 0 2.417.2 3.827-.604 1.209-.806 1.41-1.611 0-2.82-1.611-1.006-5.237-.805-5.237-.805zm34.04 30.604c.202.402 1.41 2.416 2.62 2.013 1.007-.402 4.23-.201 7.25-.201 3.022 0 4.835.403 6.245 0 1.41-.403 3.021-2.819 1.208-2.416-1.611.201-4.834.201-6.848-.806-2.014-1.006-7.856 0-7.856 0-1.611.202-2.82 1.007-2.618 1.41zm13.698-32.013s-3.424 4.228-4.633 4.63c-1.209.404-11.884 1.612-12.287 3.222-.403 1.41.806 3.02 1.611 3.423.806.403.806 5.436 2.619 6.04 1.611.604 3.626 4.027 5.036 3.02 1.41-1.006 9.467 0 9.467-1.812s2.215-4.228 2.618-4.832c.604-.604 4.23-1.41 3.626-3.221-.605-1.812-1.41-2.014-1.612-4.43-.201-2.617.605-4.63.202-5.637-.403-1.007-2.619-1.812-3.827-1.812-1.41-.403-2.82 1.41-2.82 1.41zm13.898-32.214c-.201.604-.806 8.456.201 9.463 1.008 1.007 4.029 5.033 4.029 5.033s.403 5.638 0 6.645c-.403 1.006 0 3.22 0 3.22s5.036.202 6.043 1.41c1.007 1.208 2.014.806 4.431 2.014 2.216 1.208 1.209-3.624 0-4.43-1.209-.805-4.633-2.617-4.834-3.825-.202-1.208-1.612-5.638-1.007-8.054.604-2.214.805-3.624-1.007-4.63-1.813-1.007-3.022-7.249-3.022-7.249s-.604-2.818-2.215-3.221c-1.813.201-2.619 3.624-2.619 3.624zm-.403 48.724c.806 1.61-2.215 5.436-3.021 7.248-.806 1.61-.403 2.617 1.007 3.221 1.41.604 1.611-2.214 3.827-3.624 2.014-1.208 1.007 1.007 2.014 3.222 1.007 2.013 2.619 2.617 3.626 2.214 1.007-.2-.202-2.818-1.007-4.63-.806-1.812-1.209-2.618-.605-3.826.605-1.208 3.626-1.208 4.23-1.61.605-.403-1.611-1.813-4.028-1.611-2.216.201-.403-2.819 0-3.423.403-.604 1.611-1.41 4.028-1.007 2.216.403 2.82-.805 3.223-1.61.403-.806-.403-1.812-2.014-1.41-1.611.403-3.021-.201-5.036-.201h-4.23c-2.82-.403-3.02 5.235-2.014 7.047z"/>
        <path fill="#FFF" d="M479.337 173.15c2.82-2.214 7.251-3.825 9.668-5.033-1.41 1.41-6.043 2.819-9.668 5.034zM390.106 48.12c2.618-.604 2.417-4.027 3.625-5.638-2.618.202-2.215 3.624-3.625 5.638zm-36.257-23.154c0 .201-.201.201-.403.403.806-.403 1.41-.806 1.813-1.208-.805.2-1.41.604-1.41.805zm122.265 192.881s-1.209 19.128-.604 22.953c.201 1.41-.806 2.819-2.015 3.825 2.216-1.208 3.828-3.02 3.626-4.832-.604-3.825.604-22.952.604-22.952s10.877-19.329 14.301-23.758c-.2 0-.402.201-.604.201-1.611.202-15.308 24.563-15.308 24.563zm-29.61 46.308c-2.417 1.208-6.244 2.618-8.66 4.631 3.222-1.812 7.25-3.221 8.66-4.63zm-19.135 52.55c1.612-.605 5.842-7.651 5.842-7.651 1.61-1.41 4.632-7.651 5.84-10.269-.603-.201-1.006-.201-1.006-.201s-4.432 9.865-6.446 11.476c0 0-2.82 4.631-4.633 6.644h.403zm70.902-95.837c.805-.202 1.611-.403 1.611-1.007 0-1.007-.201-3.02-.403-4.228h-1.611s.403 3.825.403 5.235zm19.74 4.63a3.132 3.132 0 0 0-1.612 1.208h.201c.605-.201 1.209-.604 1.813-1.208h-.403zm-29.006 83.958c-2.216 0-1.813 3.222-2.417 5.034.201 0 .201.201.403 0 1.813 0 1.208-3.222 2.014-5.034zm19.337-20.738c-1.612.806-6.446 13.49-6.446 13.49s-.403.403-1.208.805c1.611-1.006 2.618-1.812 2.618-1.812s3.626-9.664 5.64-12.684c-.201 0-.403.201-.604.201zm-102.525 60.2c-.604.202-1.209.806-2.216 1.41.403-.202.604-.403.806-.403.604-.201 1.007-.604 1.41-1.007zm121.862-41.677c2.014 1.41 9.064.403 10.272-1.409-2.417 1.007-7.05 1.61-8.661.403-2.216-1.61 1.41.402-5.237 0-6.647-.403-10.071 2.013-13.495 2.617-2.82.403-5.036-1.208-5.842.806 1.007 0 2.619.604 4.432.2 3.424-.603 6.647-3.02 13.495-2.617 6.446.403 2.82-1.61 5.036 0zm-73.722-9.462c.202-1.007 1.007-1.812 1.813-2.618-1.41.806-3.021 2.215-3.223 3.624.806-.201 1.41-.402 1.41-1.006zm-19.336 24.965c4.834-1.409 20.746 0 22.56.403 1.812.403 1.208 5.638-.202 7.852 2.618 0 3.827-8.456 1.611-9.06-2.014-.201-23.164-2.013-23.97.805zm82.986-127.648c2.82 2.215.806 9.262 1.41 12.08.605 2.82 4.23.806 9.266 1.209 1.813 0 3.223-.604 4.431-1.611-.805.403-1.813.805-3.021.604-5.036-.201-8.661 1.61-9.266-1.208-.604-2.819 1.41-9.866-1.41-12.08-1.611-1.208-2.215-3.02-2.014-4.027-2.014-.403-2.216 2.819.604 5.033zM395.544 32.616c-.201 1.611.604 6.645-.604 8.86h.201c3.022-.604 1.612-7.853 2.015-9.866.201-2.013-5.237-2.013-7.252-1.208-.403.201-.604.403-1.007.805 2.014-.604 6.849-.604 6.647 1.41zm-14.1 6.846c.403-.201 1.008-.402 1.41-1.006-1.812.402-5.237.805-6.848 2.617 1.611-.805 4.028-1.208 5.438-1.61zm76.945 171.339c1.007-.403 1.812-.806 2.417-1.41-.202.202-.605.202-.806.403-2.417.805-6.043 2.416-8.46 4.43 2.014-1.611 4.834-2.618 6.849-3.423zm-31.221 86.575c-4.029 1.41-15.308 1.61-16.114 3.221 0 0 0 .202-.202.202 4.23-1.007 15.712-1.208 16.316-3.423zM349.619 27.382c-.805.403-1.611 1.007-2.014 1.812-.806 2.215.806 5.235 2.619 4.832.403-.201.805-.604 1.208-1.007-1.611.202-3.021-2.617-2.215-4.832 0-.402.201-.604.402-.805zM522.24 337.039c.403-.2.604-.402.806-.805-3.626 1.812-9.266 3.423-12.086 3.624-.805 0-1.41.604-1.812 1.208h.201c3.223-.402 9.266-2.214 12.891-4.027zM357.676 37.65c1.209 1.61 4.432 1.208 5.64.202.202-.202.202-.202.403-.605-1.41.403-3.626.605-4.633-.805-1.208-1.61 3.022-3.825 3.827-5.637.806-1.611-3.424-2.819-6.445-2.215-1.007.201-1.813.805-2.417 1.208.201-.201.604-.201.805-.201 3.022-.604 7.252.604 6.446 2.214-.604 1.812-4.834 4.027-3.626 5.84zm255.608 104.293c2.619 0 1.209 5.839 3.021 7.248 2.015 1.41 2.216 30.201 2.216 30.201s-.201 6.443-.201 9.262c0 .402-.202.805-.202 1.006.806-.201 1.813-.604 1.813-2.215 0-2.818.201-9.261.201-9.261s-.201-28.791-2.215-30.2c-2.014-1.41-.605-7.249-3.022-7.249-1.41 0-2.215.403-2.618 1.208h1.007zm-105.546 21.745c3.424-.604 3.021 4.832 3.827 7.248.805 2.617 6.244 3.825 12.287 2.819 6.244-1.209 5.035 7.248 8.46 8.456 3.02 1.006 1.61 6.241 1.208 8.255.806 0 1.41-.202 1.41-.604.201-1.611 2.216-7.651-1.209-8.658-3.424-1.208-2.215-9.463-8.46-8.456-6.244 1.208-11.48-.202-12.286-2.819-.806-2.617-.605-7.852-3.827-7.248-3.223.604-16.92 1.007-18.129 3.423 4.029-1.41 14.1-2.014 16.719-2.416zM557.69 307.24c-.604 1.208-2.014 3.423-.806 6.242 1.209 2.819 3.022 9.463 5.841 9.06 2.619-.604 8.863 1.61 8.863-.604-2.014.201-5.64-.805-7.251-.403-2.82.604-4.834-6.241-5.841-9.06-1.209-2.818.201-5.033.805-6.241.403-1.007-3.424-7.852-5.035-10.671-.403-.604-.605-1.007-.605-1.007-1.007-1.61.202-3.02 2.015-4.43-2.417 1.41-4.633 3.222-3.425 5.437 0 0 .202.403.605 1.007 1.41 2.617 5.237 9.664 4.834 10.67zm59.017-116.171v-.202c-.805.403-1.813.403-1.41 1.41.605 1.61 7.05 1.61 9.064 0 0 0 .202-.202.202-.403-2.82.805-7.453.604-7.856-.805zm-32.026-13.289c.604-.201 1.007-.402 1.208-1.006-2.82.604-16.718.805-19.135 3.02-.201.201-.403.402-.604.402 4.028-1.61 16.315-2.013 18.53-2.416zm2.618-8.859c1.41.604 3.424 1.611 5.237 2.416 3.626 1.41 8.057 2.618 10.676 2.014 2.618-.604 1.41 3.825 4.23 3.825.403 0 .805-.402 1.007-1.006-2.216-.403-1.41-4.43-3.827-3.826-2.619.604-7.05-.604-10.676-2.013-3.625-1.41-8.057-4.631-6.647-1.41zm-134.551 66.24v.605c1.007 0 1.611-.403 1.611-1.812 0-.202 0-.604.202-.806-1.008.604-1.813 1.208-1.813 2.014zm294.885 102.481c-1.41-3.422-7.05-17.113-6.445-19.932.201-1.41 1.812-2.819 3.424-4.027-2.216 1.41-4.432 3.222-4.834 5.034-.605 2.818 5.035 16.51 6.445 19.932 1.41 3.423-1.611 12.886-3.424 18.322-1.209 3.624-3.223 6.644-5.64 8.456 3.021-1.812 5.841-5.033 7.251-9.463 1.612-5.436 4.633-14.899 3.223-18.322zm-39.076 61.207c.805-.201 1.41-.604 1.813-1.61 2.014-3.826 6.244-8.658 3.424-11.678-2.82-3.02-5.237-4.832-5.64-9.262-.201-3.221.403-7.046.806-9.06h-1.209s-1.41 5.638-1.208 10.067c.201 4.43 2.82 6.241 5.64 9.262 2.82 3.02-1.41 7.852-3.425 11.677 0 .403-.201.604-.201.604zm-19.74 14.9c-1.41-1.008-5.237-.806-5.237-.806v1.007c1.209 0 2.82.2 3.626.805 1.007.805 1.208 1.41.805 2.013.202 0 .403-.201.806-.402 1.209-.806 1.41-1.611 0-2.618zm10.273 6.643c.604-1.208 1.41-12.885 0-14.295-1.41-1.409-5.841-2.818-6.244-5.033-.202-1.812-.806-8.859-.403-11.879-.403-.201-.806-.403-1.007-.201-1.209.201-.202 10.872 0 13.087.201 2.214 4.834 3.624 6.244 5.033 1.007 1.007.806 8.456.403 12.282.403.805.805 1.208 1.007 1.006zm19.337-283.282c-.202.201-.202.403-.202.604 4.431-.604 18.934.201 21.351.403 2.82.201 6.446 7.047 6.446 7.047s3.424-.202 5.438-2.215c-1.813 1.007-4.028 1.007-4.028 1.007s-3.626-6.846-6.446-7.047c-2.618 0-21.754-1.208-22.56.201zm-8.259-3.423c-2.618 1.007-3.625 4.631-3.021 7.047.806 2.819 5.237 1.41 8.057.604 1.208-.403 1.41-.604 1.611-1.007-2.82.806-7.251 2.215-8.057-.604-.604-1.812 0-4.429 1.41-6.04zm16.114 282.276c-1.813.403-11.682 1.61-12.085 3.02v.201c3.021-1.006 9.87-2.013 10.877-2.214.201 0 .805-.403 1.208-1.007zm6.647 13.69c0-1.61 1.612-3.623 2.417-4.429-.604.202-1.007.403-1.208.604-.605.604-2.619 2.82-2.619 4.833.806-.202 1.41-.403 1.41-1.007zm119.042-198.72c-1.41 1.007-3.626 2.215-5.64 3.826 2.216-1.41 4.23-2.618 5.237-3.423l.403-.403zm-48.946-83.756s14.301 1.208 16.315 1.208c2.014 0 .605 6.443 3.424 7.248 2.82.805 1.41 3.826 3.828 6.04 2.618 2.215 14.905 1.007 18.53 0 3.626-.805 2.216 5.235 3.626 7.248 1.41 2.014 17.927 3.826 21.351 3.826 3.424 0 4.23 5.235 7.05 4.832.604-.201 1.209-.604 1.41-1.007-2.82.604-3.626-4.832-7.05-4.832s-19.94-2.013-21.35-3.825c-1.41-2.014 0-8.054-3.626-7.248-3.626.805-15.913 2.013-18.532 0-2.618-2.215-1.208-5.235-3.827-6.04-2.82-.806-1.41-7.249-3.424-7.249-2.014 0-16.315-1.208-16.315-1.208s-3.827-1.61-5.841-1.208c-.605.202-1.008.604-1.209 1.007 2.216-.201 5.64 1.208 5.64 1.208zm-5.64 97.447c.403-2.617 2.014-8.456 2.618-10.67-.805 0-1.208.2-1.208.2s-2.216 8.054-2.82 11.477c0 .604-.403 1.007-.806 1.41 1.007-.605 2.015-1.41 2.216-2.417zM759.921 138.32c5.64-.604 5.841 13.087 6.647 16.308.806 3.02 1.41 5.034 3.021 5.638.806.201 1.612-.201 2.417-1.007H771c-1.611-.604-2.215-2.617-3.021-5.637-.806-3.02-1.209-16.913-6.647-16.309-3.021.403-4.633 1.208-5.841 2.215 1.208-.805 2.417-1.208 4.431-1.208zm30.617 19.53c1.007-.202 1.812-.604 2.417-1.41-.403.202-.605.202-1.007.202-3.022.604-14.302-5.235-15.913-2.215 0 0 0 .201-.201.201 3.625-.402 12.085 3.625 14.704 3.222zm44.313 70.67s-.202.2-.403.2c.201-.2.201-.2.403-.2zm-322.682 3.02c-4.834 2.617-18.934 7.852-21.955 10.469 5.64-3.221 21.15-9.06 21.955-10.47zm-80.57 95.232c-1.007.403-2.216 1.007-4.028 1.41-3.626 1.006-9.669 1.208-13.093 4.026 3.424-1.812 8.258-2.214 11.481-3.02 3.022-.805 4.633-1.61 5.64-2.416zm270.513-230.33c2.619-.604 2.619 10.067 2.619 10.067h17.926l3.425 10.872s-.806 4.832-2.216 6.443c-1.41 1.61-3.827 2.818-4.431 4.832-.202.805-1.007 1.812-2.015 2.617 1.813-1.006 3.223-2.416 3.425-3.624.604-2.013 3.021-3.02 4.431-4.832 1.41-1.61 2.216-6.443 2.216-6.443l-3.425-10.872h-17.926s0-10.67-2.619-10.067c-1.813.403-3.223.403-4.23 1.61 1.007-.2 1.813-.402 2.82-.603zm-144.421 90.602s.403-.202 1.007-.806c-2.216 1.208-11.884 6.242-16.718 9.665 5.841-3.826 15.71-8.86 15.71-8.86zm-65.06 35.033h-.403c-.604 0-1.007.805-1.41 1.409 1.007.201 1.41-.604 1.813-1.41zm-22.56 85.367c1.612.201 1.612-2.819.604-4.228-1.007-1.208-4.43-6.644-4.23-9.06h-.805c-2.619.805 2.618 8.657 3.626 10.066.604.806.805 2.014.805 3.02-.201 0-.201.202 0 .202zm13.294-51.744c.605-.201 1.007-.604 1.41-1.007-3.424.806-35.048 5.84-36.458 8.054l-.201.201c6.244-2.416 32.228-6.443 35.25-7.248zm76.34 31.61c-.201.201-.403.201-.604.403.201 0 .403-.202.604-.403zm-86.814 57.784c1.612 1.208 17.323-5.839 21.955-5.839 4.432 0 5.64.806 6.647 3.624 1.209 2.819 2.015 4.228 3.626 3.624.403-.201.604-.402 1.007-1.006-1.208 0-2.014-1.41-3.021-3.826-1.209-2.818-2.216-3.624-6.647-3.624-4.432 0-20.143 7.047-21.955 5.839-1.612-1.208-.202-9.06-3.828-9.06-3.625 0-16.516.604-17.12-1.41-.202-.604-.202-1.006 0-1.208-1.21.403-1.813 1.007-1.612 2.215.604 2.013 13.495 1.41 17.121 1.41 3.626.402 2.216 8.254 3.827 9.261zm214.92-231.74c-4.028 1.41-14.301-.201-16.315 1.41-.202.2-.605.402-.806.604 3.424-1.208 15.711.805 17.121-2.014zm-24.977 8.859s.605-.604 1.41-1.208c-.604-.604-1.812-1.812-1.812.805l.402.403zm29.408-14.295c1.008-.403 1.813-.805 2.417-1.41-.2.202-.604.202-.805.403-1.612.604-2.417 1.007-2.82 1.611.201-.201.806-.403 1.208-.604zM657.8 134.292c1.007-.201 1.611-.604 2.215-1.208-.2 0-.402.202-.604.202-4.431 1.006-13.898.402-15.51 2.818 3.223-1.208 10.273-1.006 13.899-1.812zm-22.761 22.349c.201-.202.403-.403.403-.604-2.619.805-8.46-.202-9.266 1.208 0 0-.201.201-.201.402 2.618-.402 7.654.403 9.064-1.006zm4.834-4.43c2.216-.604 3.424 7.249 3.424 7.249s3.424.2 5.237-1.813c-1.813.806-3.827.806-3.827.806s-1.208-7.852-3.424-7.248c-.806.201-1.41.604-2.014 1.208.201 0 .403-.202.604-.202zM370.366 29.798c-.604-.201-1.208.201-1.813 1.007h.403c2.216.604 3.626 1.409 3.022 3.422-.605 2.014-4.835 12.685-4.432 13.691.202.806 2.216 0 3.827-1.409-1.208.604-2.215.805-2.417.403-.201-1.208 3.827-11.678 4.431-13.691.605-2.014-.805-2.819-3.02-3.423zm270.916 351.133c-1.41 1.41-1.611 13.087-2.014 14.9-.202.804-1.813 2.415-4.029 3.825 2.619-1.611 5.237-3.826 5.439-4.833.201-1.61.604-12.483 1.813-14.697-.605.402-1.008.604-1.209.805zm-57.607-19.127c-2.015-.805-17.323 1.41-19.136-1.41-1.611-2.818-9.467-17.314-9.064-19.53 0-.2.202-.402.202-.603-.806.201-1.612.805-1.813 1.61-.604 2.215 7.251 16.913 9.064 19.53 1.611 2.82 17.121.604 19.135 1.41 2.014.805 1.41 6.241 1.41 8.456 0 .604-.604 1.41-1.813 2.215 1.813-1.208 3.223-2.215 3.223-3.222 0-2.416.604-7.65-1.208-8.456zm75.534 8.859c0 .604-.604 1.208-1.612 2.013 1.813-1.006 3.022-2.214 3.022-3.02.201-1.812 2.618-4.43 5.035-6.241-2.618 1.61-6.244 5.033-6.445 7.248zm47.536 65.636c-.403-3.221-.604-6.241-4.23-9.06-3.626-2.819-5.64-5.839-8.46-6.443-2.82-.604-5.237-.604-5.438 0v.604c1.007 0 2.417.201 3.827.403 2.82.604 4.834 3.825 8.46 6.442 3.625 2.82 3.827 5.84 4.23 9.06.402 2.417 2.417 3.625 3.827 4.833 1.812.604 3.222.805 2.618 0-.806-1.41-4.23-2.618-4.834-5.839zm30.818-19.328c-.202-2.618.604-4.631.201-5.638-.403-1.007-2.618-1.812-3.827-1.812-.805 0-1.41.604-2.014 1.208.201 0 .403-.201.604-.201 1.209 0 3.425.805 3.827 1.812.403 1.006-.402 3.221-.201 5.637.201 2.618 1.007 2.618 1.611 4.43.202.402 0 .805-.201 1.208 1.007-.604 2.216-1.208 1.813-2.215-.806-1.61-1.612-1.812-1.813-4.43zm-2.82 25.77c-1.611.202-4.834.202-6.848-.805-2.015-1.006-7.856 0-7.856 0-1.209.202-2.417.806-2.417 1.208.403-.2.604-.2 1.007-.2 0 0 5.64-1.008 7.856 0 2.014 1.006 5.237 1.207 6.848.804 1.007-.2.806.605.201 1.41 1.41-.403 3.022-2.618 1.209-2.416zm-161.341-64.83c-2.014.805-2.216 3.02-2.82 5.033l-.201.202c1.007-.403 1.611-.806 1.611-1.208.403-1.41.604-3.02 1.611-4.228 0 .201-.201.201-.201.201zm-57.003 111.944c-1.612.805-4.834 17.919-7.05 21.946.403-.202.806-.202.806-.202 1.813-.805 5.438-19.127 7.251-22.147-.201 0-.604.202-1.007.403zm7.855-20.335c-2.618 1.208-3.424 10.67-3.625 14.496-.202 2.013-.806 3.221-1.813 4.027 1.41-.806 3.021-2.014 3.223-5.034.201-3.422 1.007-11.073 2.82-13.69-.202.2-.403.2-.605.2zm220.762-34.026c-1.008.604-1.612 1.812-2.216 2.617 1.208.403 1.611-1.41 2.82-2.819 0 0-.202 0-.604.202zm-199.612-39.261c-2.216-1.208-26.387-42.281-25.984-44.496 0-.604.403-1.007.604-1.41-1.007.403-2.014 1.209-2.215 2.417-.202 2.215 23.768 43.489 25.984 44.495 2.215 1.208 15.71-1.61 16.516.604.806 2.215-2.014 5.84-3.827 7.651-2.014 1.611-2.618 6.443-3.021 10.067 0 .604-.604 1.208-1.41 1.812 1.611-1.006 2.618-1.812 2.82-2.818.604-3.625 1.208-8.457 3.021-10.067 2.015-1.611 4.834-5.235 3.827-7.651-.604-2.215-14.1.604-16.315-.604zm-8.46 30c-2.014 3.623-2.82 35.032-2.82 38.656 0 .604-.201 1.208-.604 1.61 1.208-.603 2.216-1.409 2.216-2.617 0-3.624.805-35.033 2.82-38.657.201-.402.604-.805 1.208-1.208-1.41.604-2.417 1.41-2.82 2.215zm16.114 39.26c-1.208.403-3.424 1.208-4.431 2.215 1.41-.806 3.021-1.208 3.827-1.41.201-.201.403-.402.604-.805zm6.446-7.852c-1.612-.202-2.619-1.007-3.022.604.403 0 1.007.201 1.612.402 1.611.202.201 9.262.604 12.483.403 3.222-3.424 5.437-3.827 7.249-.403 1.61-1.813 8.657-2.619 11.275.806 0 1.41-.403 1.612-1.007.604-2.819 2.014-9.664 2.618-11.275.403-1.61 4.23-4.027 3.827-7.248-.402-3.222 1.008-12.282-.805-12.483zm214.718-124.628c-2.216.604-1.611 5.234-2.014 8.456.201 1.208.403 1.812 1.007 1.208 1.209-1.61.201-7.45 1.41-9.664h-.403zm79.966-98.857c-1.209 1.61-4.432 13.49-4.432 15.503 0 1.61-6.244 12.684-10.07 16.308 3.222-1.006 11.48-15.503 11.48-17.315 0-2.013 3.425-13.69 4.432-15.503l1.007-1.007c-1.209.806-2.216 1.41-2.417 2.014zm25.782-11.074l.604-.201s3.223-3.02 6.043-5.235c-2.216 1.41-5.036 4.027-6.647 5.436zm-72.11 68.052c-3.021-2.214-3.424-2.818-3.626-4.429-.201-1.61-3.424-20.94-4.43-22.751-1.21-1.61-4.23-5.235-9.87-5.839-5.64-.604-9.468-2.215-9.065-5.033 0 0 1.41-1.41 2.82-2.618-2.014 1.208-4.431 3.624-4.431 3.624-.605 2.819 3.424 4.43 9.064 5.034 5.64.604 8.661 4.228 9.87 5.839 1.208 1.61 4.23 20.939 4.431 22.75.201 1.611.604 2.215 3.626 4.43 3.021 2.215 1.41 2.618 1.611 6.242 0 .805-.201 1.409-.604 1.812 1.208-.604 2.215-1.41 2.215-3.02-.201-3.624 1.612-3.826-1.611-6.04zm85.404-81.944c-4.431 0-5.841-4.832-6.043-5.436a5.203 5.203 0 0 0-1.611 1.007s1.41 5.637 6.244 5.637 5.64-.805 6.647 1.208c.201.403 0 1.007-.604 1.41 1.611-.806 2.618-1.813 2.215-2.618-1.208-2.013-2.215-1.208-6.848-1.208zm23.567-20.738c-2.216-.805-8.662-2.215-8.662-2.215s-6.244-12.684-9.467-13.69c-3.424-1.209-14.905-4.43-16.315-2.82-.201.202-.201.403-.403.605 3.424-.403 12.287 2.214 15.107 3.221 3.424 1.208 9.467 13.691 9.467 13.691s6.446 1.41 8.661 2.215c2.216.805 3.022 7.047 2.82 9.261.806 0 1.41-.2 1.41-.805.403-1.61-.403-8.657-2.618-9.463zM801.213 302.41c-.403 0-.604.202-1.007.202-2.014.805-1.41 13.087-1.41 13.087s.604 5.234 0 8.053c0 .202-.201.403-.403.604 1.007-.604 1.813-1.208 1.813-1.61.604-2.82 0-8.054 0-8.054s-.202-9.262 1.007-12.282zm101.72-100.467s-.202 0 0 0c.604 0 1.208-.403 1.61-1.007.404-.604.605-1.007 1.008-1.41-1.007.202-1.813.806-2.619 2.417zM750.856 428.245c-2.216.202-.604-2.617 0-3.22-.806.2-1.209.603-1.41 1.006-.403.604-2.216 3.624 0 3.423 1.611-.202 3.223.604 3.827 1.006.806-.201 1.41-.201 1.611-.402.605-.604-1.812-2.014-4.028-1.813zm5.036-7.65c-1.612.402-3.022-.202-5.036-.202h-4.23c-.604 0-1.209.403-1.611 1.007h4.23c2.014 0 3.424.604 5.035.201 1.612-.402 2.619.604 2.014 1.41-.201.201-.201.402-.402.604 1.208-.202 1.61-1.007 1.812-1.812.605-.604-.201-1.611-1.812-1.208zM381.042 76.71v-8.658c2.618-1.61 2.618-11.275 2.82-15.503 0-1.208.402-2.013.805-2.617-1.208.402-2.215 1.208-2.417 3.624-.201 4.228-.201 13.69-2.82 15.503v8.657c0 1.41-6.647 9.262-6.647 10.671 0 1.41-2.014 5.638 0 6.242 2.014.604 7.654 1.61 8.057 2.818.403.806.604 3.625.202 4.833.604-.202 1.007-.202 1.208-.202.604-.201.604-4.43 0-5.637-.604-1.208-6.244-2.215-8.057-2.819-2.014-.604 0-4.832 0-6.241.202-1.41 6.849-9.262 6.849-10.671zm369.613 354.958c-.604.202-1.208.604-1.41 1.007-.604 1.208-.2 1.812.605 3.825.604 1.208 1.208 2.618 1.41 3.624.403 0 .805.202 1.208 0 1.007-.2-.201-2.818-1.007-4.63-1.007-2.014-1.41-2.618-.806-3.826zm9.266-28.992c-1.209-.806-4.633-2.618-4.834-3.826-.202-1.208-1.612-5.637-1.007-8.053.604-2.215.805-3.624-1.007-4.631-1.813-1.007-3.022-7.248-3.022-7.248s-.604-2.819-2.215-3.222c-.806-.201-1.209.403-1.612 1.007h.202c1.611.403 2.215 3.221 2.215 3.221s1.209 6.04 3.022 7.249c1.812 1.006 1.611 2.214 1.007 4.63-.605 2.215.805 6.644 1.007 8.054.201 1.208 3.625 3.02 4.834 3.825.604.403 1.41 2.014 1.41 3.222h.201c2.015 1.61 1.008-3.222-.201-4.228zm30.818-82.75c-.806.604-1.813 1.006-3.021 1.61-5.439 2.82-12.489 3.423-15.309 6.04 3.223-1.811 9.064-2.617 13.697-5.033 2.216-1.007 3.626-1.812 4.633-2.617zm5.036-45.301c-.605 0-1.209.201-1.612 1.006l-6.043 17.92-22.962 15.905-1.208 14.9s-.403 2.214-1.41 3.825h.201c2.216-.806 2.82-4.833 2.82-4.833l1.208-14.899 22.963-15.905 6.043-17.92zM191.703 177.78c1.611.202 5.237 8.255 7.855 8.658 2.619.402 5.841 3.221 6.043 6.04.201 3.02 0 8.657-4.834 12.483-4.834 3.825-16.92 17.315-17.323 20.335-.403 3.221 8.057 19.328 11.683 20.738 3.827 1.41 7.251.604 9.87 3.423 2.82 2.818 14.3 18.925 17.725 19.127a4.86 4.86 0 0 0 3.424-1.41c-.604.202-1.208.403-2.014.403-3.424-.201-14.905-16.308-17.725-19.127-2.82-2.819-6.043-1.812-9.87-3.423-3.827-1.41-12.287-17.718-11.683-20.738.403-3.221 12.489-16.71 17.323-20.335 4.834-3.825 5.035-9.463 4.834-12.483-.202-3.02-3.626-5.637-6.043-6.04-2.618-.403-6.043-8.456-7.855-8.657-.806 0-3.022 1.208-5.439 2.818 1.813-1.208 3.424-2.013 4.029-1.812zm98.093-149.795c.605 2.013 4.432 5.033 4.432 5.033s3.021-1.61 5.237-3.422c-1.813 1.208-3.827 2.214-3.827 2.214s-3.827-3.02-4.432-5.033c-.604-2.013-8.057-.201-10.07 0-.605 0-.807.403-1.21 1.007 2.418-.202 9.266-1.611 9.87.201zm-42.702 56.375c.605 0 1.209-.403 1.813-1.208h-.403c-1.007.2-2.014.604-2.82 1.409.605 0 1.008-.201 1.41-.201zm79.362-67.247c-3.022.402-9.065-1.007-9.065-1.007s-.604.403-1.208 1.007c1.41.402 10.474 2.214 10.273 0zm-18.733 8.657c1.007 0 8.863 1.007 9.668-1.208-2.618.806-7.452.202-8.258.202-1.007 0-5.438-.202-5.64 1.208 1.612-.202 3.626-.202 4.23-.202zm-30.616 6.443c-.202.201-.605.403-1.008.805.605-.2.806-.402 1.008-.805zm-16.114 42.281c-1.813 1.007-4.432 1.61-5.842 1.812-.403 0-.805.403-1.208 1.007 1.611-.202 5.438-1.208 7.05-2.819zM269.05 45.1c-1.612.604-3.827.604-5.036.805-.403 0-.806.403-1.007 1.007 2.014-.403 5.237-.403 6.043-1.812zm67.275-35.838c.202-.202.202-.403.403-.806-3.021 0-10.071-2.013-10.071-2.013s-.604.402-1.41 1.006c1.41.605 10.071 2.82 11.078 1.813zm-79.36 91.004c-2.217 1.007-6.245 1.61-7.252 1.61-.202 0-.403.404-.202 1.008 2.418-.403 6.849-1.41 7.453-2.618zm-34.042 252.88c1.008-1.208-1.41-15.704 0-17.919 1.41-2.013 4.633-8.456 6.446-10.47 1.813-2.013 3.223-7.851 3.223-9.865 0-2.013 15.308-17.315 18.128-20.133 2.82-3.02 9.064-8.457 9.668-11.275.605-3.02-3.222-2.215-4.632-1.41-1.41 1.007-1.008-4.832-.605-7.248 0 0 0-.201.202-.201-1.007.402-1.612 1.006-1.612 1.41-.402 2.617-.805 8.254.605 7.247 1.41-1.006 5.237-1.61 4.632 1.41-.604 3.02-6.848 8.456-9.668 11.275-2.82 3.02-18.128 18.12-18.128 20.133 0 2.014-1.209 7.853-3.223 9.866-1.813 2.013-5.036 8.456-6.446 10.47-1.41 2.013.806 14.697.202 17.315.403 0 .806 0 1.208-.605zm76.542 67.247c.201-1.41-2.216-6.241-3.022-7.65-.604-1.209-13.697-4.43-15.71-5.437-2.015-1.006-.202-4.228-3.022-5.637-2.82-1.41-20.545-7.248-20.545-7.248-3.626-2.819-10.072.604-13.496 0-2.417-.403-7.855 2.214-11.078 4.63 3.223-2.013 7.452-3.825 9.467-3.422 3.424.604 9.87-2.819 13.495 0 0 0 17.927 5.637 20.545 7.248 2.82 1.41.806 4.63 3.022 5.637 2.014 1.007 15.107 4.228 15.71 5.437.605 1.208 3.224 6.04 3.022 7.65 0 .202 0 .202-.201.403 1.007-.604 1.611-1.007 1.813-1.61zm-16.719-154.828c2.216-.604-1.41-10.873-2.014-13.289-.604-2.214-7.251-3.624-9.064-4.43-1.813-.805-5.841-18.724-6.043-19.529-.201-.805-5.237-1.812-6.042-1.812-.202 0-.403.403-.403 1.208 1.813.403 4.834 1.007 5.035 1.812.202.805 4.23 18.724 6.043 19.53 1.813.805 8.46 2.013 9.064 4.43.605 2.013 3.424 9.865 2.82 12.482.202-.201.403-.201.604-.402zm38.07-39.06c.201 0 .403.201.604.201 2.618 0 5.237-26.576 6.244-29.798 0-.201.202-.604.604-.805-1.007.604-1.812 1.208-2.014 1.812-1.007 2.617-3.223 23.355-5.438 28.59zM178.409 346.704c-2.015 2.818-2.216 22.348-.202 23.959 2.014 1.61 18.33 3.221 18.733 5.436.403 2.215.604 5.235 3.424 6.04 2.82.805 8.258 1.007 8.258 4.027 0 3.02-.604 6.644 2.619 8.255 3.223 1.41 12.69 3.02 13.092 4.63.202 1.007.605 2.014.403 3.02 2.216.202 1.41-2.415 1.007-4.026-.402-1.61-9.87-3.222-13.092-4.631-3.223-1.41-2.619-5.235-2.619-8.255 0-3.02-5.438-3.221-8.258-4.027-2.82-.805-3.022-3.825-3.424-6.04-.403-2.214-16.719-3.825-18.733-5.436-2.014-1.61-1.813-20.536.202-23.758-.806.403-1.209.604-1.41.806zm161.34 93.22c-2.618-.806-4.23-.202-4.23-.202s-4.028-2.618-5.236-5.034c-1.209-2.617-9.467-1.006-12.086-1.61-2.618-.604-3.021-4.631-3.625-6.242-.605-1.61-15.309 0-15.309 0s-4.431-1.208-4.834-2.819v-.402c-1.007.402-1.813 1.006-1.611 1.61.403 1.41 4.834 2.82 4.834 2.82s14.704-1.612 15.308 0c.604 1.61 1.007 5.637 3.626 6.24 2.618.605 10.675-.805 12.085 1.611 1.209 2.618 5.237 5.034 5.237 5.034s1.612-.604 4.23.201c2.417.805 2.417 7.248 1.813 8.859.806-.201 1.209-.604 1.41-.604.806-1.007 1.007-8.658-1.611-9.463zm35.451-329.59c-.805-.605-1.41-4.43-1.611-5.638-1.007.201-1.611.604-1.611.805.402.805.805 5.235 1.812 5.839.806.604 4.835 3.423 4.23 4.43-.604 1.207-.403 5.234-1.208 5.637-.806.201.403 6.644-1.41 7.852-1.612 1.208-3.223 2.819-3.424 4.832 0 .805-.202 1.61-.403 2.013 1.41 0 1.812-1.409 2.014-3.02.201-2.013 1.813-3.624 3.424-4.832 1.612-1.208.604-7.65 1.41-7.852.806-.201.604-4.43 1.209-5.637.402-1.208-3.626-4.027-4.432-4.43zm-45.924 345.293c-.403 2.215-2.216 20.336-3.022 23.758.806-.201 1.209-.201 1.41-.402.604-1.007 2.82-22.148 3.223-24.362 0-.202.201-.604.604-.806-1.41.604-2.215 1.208-2.215 1.812zm-20.949 27.986c-1.007 2.014-4.23 18.523-5.438 19.933-.403.402-1.209 1.007-2.216 1.812 1.813-1.208 3.223-2.215 3.827-2.819 1.209-1.41 4.23-17.114 5.439-19.731-.806.201-1.41.604-1.612.805zm49.954-321.939c0-1.41 1.611-2.818 3.021-3.624.806-.604 1.209-2.013 1.611-3.02h-.402c-1.41 0-1.41 3.423-2.82 4.228-1.41.806-3.022 2.014-3.022 3.624 0 1.41 6.647.604 7.05 2.014.202 1.208 2.014 5.234 1.41 7.046.403-.2.604-.2.806-.2 2.014-.605-.604-6.444-.806-7.853 0-1.41-6.848-.604-6.848-2.215zm6.244-16.912c-1.41-.201-3.022-3.423-3.022-5.638 0-.604.403-1.208.806-1.61-1.208.604-2.216 1.41-2.216 2.617 0 2.215 1.612 5.235 3.022 5.638 1.41.2 6.244 2.013 6.244 4.429 0 2.013 1.611 7.248 1.611 9.262.403 0 1.008 0 1.41-.202 1.007-.201-1.41-7.65-1.41-10.067-.201-2.416-5.035-4.228-6.445-4.43zm-71.506 365.63l-16.92 22.952c.605-.202 1.008-.403 1.008-.403l17.322-23.556c-.806.604-1.41 1.006-1.41 1.006zM244.476 218.25c.806 2.014 2.82 17.517 5.237 18.523 2.618 1.007 8.46 2.618 8.258.604v-.201c-1.813 0-5.035-.805-6.647-1.61-2.618-1.007-4.431-16.31-5.237-18.524-.805-2.013-15.308-4.228-16.315-3.624-.202 0-.202.403-.403 1.007 3.626.201 14.301 2.013 15.107 3.825zm100.913-36.845c-.2 1.611-1.812 7.853-3.827 10.269.202 0 .403-.202.403-.202 2.619-1.208 4.432-9.261 4.834-11.275 0-.201.202-.402.403-.604-1.007.806-1.813 1.41-1.813 1.812zM26.937 162.882c3.827-.201 10.273 3.02 13.093 5.84 2.82 3.02 29.408 1.811 31.624 4.429 2.014 2.617 9.064 4.228 11.48 3.422 2.62-.805 22.963-5.436 26.992-5.436 4.028 0 15.71 1.61 16.315 5.034.604 3.422 8.259 8.858 8.259 8.858s43.91 4.229 45.521 1.41c0-.202.202-.403.403-.403-7.251 1.61-44.313-2.013-44.313-2.013s-7.654-5.436-8.259-8.86c-.604-3.422-12.488-5.033-16.315-5.033-4.028 0-24.372 4.631-26.99 5.437-2.62.805-9.468-.806-11.482-3.423-2.014-2.618-28.804-1.41-31.624-4.43-2.82-3.02-9.265-6.04-13.092-5.838-2.82.2-11.884 5.838-17.524 9.865 5.438-4.027 13.294-8.859 15.912-8.859zm-10.07 27.785c-3.828 1.61-13.295 3.423-14.705 4.228l-.604.604c3.424-1.007 14.503-3.02 15.308-4.832zM361.704 4.228c.604 2.617 1.41 6.644 4.834 7.65 3.424.806 5.64 4.833 5.64 6.444 1.007-.403 1.611-.806 1.611-1.007 0-1.61-2.215-5.637-5.64-6.443-3.424-.805-4.23-5.033-4.834-7.65-.604-2.618-19.538-2.618-22.358-2.215-.604 0-1.208.402-1.41 1.006 2.82-.402 21.553-.402 22.157 2.215zM264.014 538.78c0-.201.201-.201.201-.403-.805.403-1.611 1.007-1.812 1.41-1.209 2.013-7.252 19.73-6.849 22.147.202 2.214-4.23 9.664-4.431 13.288-.202 3.221 6.445 16.308 6.445 20.134.403.201.806.201 1.209 0 2.216-1.007-6.244-17.718-6.043-21.14.202-3.625 4.633-10.873 4.432-13.289-.202-2.416 5.64-20.134 6.848-22.147zm-128.71-198.52c-1.41.605 9.064 19.53 8.862 20.336.806-.201 1.41-.604 1.612-1.208.201-.604-6.244-12.282-8.259-17.718-1.208-.805-2.014-1.61-2.215-1.41zM41.239 223.889c-1.813.201-7.655 12.885-10.877 16.51h.201c2.014 0 8.057-12.886 11.078-16.712-.201.202-.402.202-.402.202z" opacity=".1"/>
    </g>
</svg>
