<svg xmlns="http://www.w3.org/2000/svg" xmlns:xlink="http://www.w3.org/1999/xlink" width="160" height="108" viewBox="0 0 160 108">
    <defs>
        <path id="a" d="M0 108h159.783V.15H0z"/>
    </defs>
    <g fill="none" fill-rule="evenodd">
        <path fill="#292843" d="M98.51 1L81.5 17.652 64.49 1H43v66h21.49L81.5 50.665 98.51 67H120V1H98.51zm6.943 59.337h7.604V7.663h-7.604v52.674zm-55.51 0h7.604V7.663h-7.604v52.674zM64.442 9.664l12.654 12.388L64.49 34.304l-.048-24.64zm.048 34.27l34.02-33.61v13.734L64.49 57.035v-13.1zm21.891 1.854L98.51 34l.048 24.025-12.176-12.237zM9.114 88v8.043H3.886V88H0v20h3.886v-8.318h5.228V108H13V88zM20 88v20h10v-3.64h-6.251v-4.953H30V95.77h-6.251v-4.13H30V88zM34 88v3.64h5.087V108h3.852V91.64H48V88zM57.22 88L50 108h4.146l1.841-5.093 8.01 5.034.095.059H68l-6.995-20h-3.784zm.233 10.626l1.621-4.87 2.523 7.42-4.144-2.55zM118.221 88L111 108h4.145l1.842-5.093 8.01 5.034.094.059H129l-6.995-20h-3.784zm.233 10.626l1.621-4.87 2.521 7.42-4.142-2.55zM85.702 102.457c-.564.541-1.238.98-2.004 1.304-1.522.643-3.565.647-5.119-.014a6.246 6.246 0 0 1-2.038-1.378 6.255 6.255 0 0 1-1.342-2.068 6.87 6.87 0 0 1-.48-2.582c0-.923.162-1.79.48-2.581a6.248 6.248 0 0 1 1.343-2.069 6.252 6.252 0 0 1 2.038-1.377c1.525-.646 3.525-.66 5.04-.039a6.508 6.508 0 0 1 1.978 1.253l.281.26 2.736-2.806-.29-.269a9.72 9.72 0 0 0-3.21-1.962c-1.219-.457-2.551-.69-3.963-.69-1.488 0-2.886.261-4.15.774a10.015 10.015 0 0 0-3.293 2.145 9.887 9.887 0 0 0-2.168 3.258c-.52 1.252-.782 2.633-.782 4.103 0 1.471.263 2.852.782 4.105a9.87 9.87 0 0 0 2.168 3.258c.92.908 2.028 1.63 3.293 2.144 1.267.513 2.663.774 4.15.774 1.485 0 2.866-.242 4.101-.718a9.616 9.616 0 0 0 3.27-2.076l.286-.277-2.834-2.734-.273.262zM102.657 95.788h-5.22v-7.942H93.56v19.747h3.879v-8.212h5.22v8.212h3.878V87.846h-3.879z"/>
        <mask id="b" fill="#fff">
            <use xlink:href="#a"/>
        </mask>
        <path fill="#292843" d="M133.843 107.594h3.88V87.846h-3.88zM155.904 87.846v12.648l-7.83-12.648h-3.707v19.748h3.878V95.019l7.832 12.575h3.706V87.846z" mask="url(#b)"/>
    </g>
</svg>
