<svg xmlns="http://www.w3.org/2000/svg" width="32" height="32" viewBox="0 0 32 32">
    <g fill="#0077B7" fill-rule="nonzero">
        <path d="M24 17.81V24h-3.429v-5.776c0-1.45-.496-2.44-1.737-2.44-.948 0-1.512.666-1.76 1.313-.09.23-.114.552-.114.874V24h-3.43s.046-9.781 0-10.794h3.43v1.528l-.022.035h.022v-.033c.456-.737 1.269-1.785 3.091-1.785 2.256 0 3.949 1.544 3.949 4.859zM9.94 8C8.769 8 8 8.807 8 9.865c0 1.038.746 1.867 1.896 1.867h.022c1.197 0 1.941-.83 1.941-1.867C11.837 8.807 11.115 8 9.941 8zM8.204 24h3.43V13.206h-3.43V24z"/>
        <path d="M6.4 3.2a3.2 3.2 0 0 0-3.2 3.2v19.2a3.2 3.2 0 0 0 3.2 3.2h19.2a3.2 3.2 0 0 0 3.2-3.2V6.4a3.2 3.2 0 0 0-3.2-3.2H6.4zm0-3.2h19.2A6.4 6.4 0 0 1 32 6.4v19.2a6.4 6.4 0 0 1-6.4 6.4H6.4A6.4 6.4 0 0 1 0 25.6V6.4A6.4 6.4 0 0 1 6.4 0z"/>
    </g>
</svg>
