<svg xmlns="http://www.w3.org/2000/svg" width="32" height="32" viewBox="0 0 32 32">
    <g fill="#C0C0C0" fill-rule="nonzero">
        <path d="M24 11.115a6.632 6.632 0 0 1-1.885.509 3.256 3.256 0 0 0 1.443-1.787c-.636.37-1.337.64-2.086.784A3.296 3.296 0 0 0 19.077 9.6c-1.813 0-3.282 1.448-3.282 3.232 0 .253.029.5.085.736a9.366 9.366 0 0 1-6.765-3.376 3.171 3.171 0 0 0-.445 1.624c0 1.12.581 2.112 1.461 2.69a3.322 3.322 0 0 1-1.488-.405v.04a3.248 3.248 0 0 0 2.634 3.168c-.484.128-.991.146-1.483.054a3.278 3.278 0 0 0 3.065 2.245 6.65 6.65 0 0 1-4.077 1.382c-.264 0-.524-.016-.782-.044a9.38 9.38 0 0 0 5.03 1.454c6.039 0 9.34-4.925 9.34-9.197l-.012-.419A6.5 6.5 0 0 0 24 11.115z"/>
        <path d="M6.4 3.2a3.2 3.2 0 0 0-3.2 3.2v19.2a3.2 3.2 0 0 0 3.2 3.2h19.2a3.2 3.2 0 0 0 3.2-3.2V6.4a3.2 3.2 0 0 0-3.2-3.2H6.4zm0-3.2h19.2A6.4 6.4 0 0 1 32 6.4v19.2a6.4 6.4 0 0 1-6.4 6.4H6.4A6.4 6.4 0 0 1 0 25.6V6.4A6.4 6.4 0 0 1 6.4 0z"/>
    </g>
</svg>
