<svg xmlns="http://www.w3.org/2000/svg" width="50" height="60" viewBox="0 0 50 60">
    <defs>
        <linearGradient id="a" x1="-7.427%" x2="106.76%" y1="86.777%" y2="12.67%">
            <stop offset="0%"/>
            <stop offset="29.42%" stop-color="#F05F33"/>
            <stop offset="34.64%" stop-color="#F16C37"/>
            <stop offset="44.2%" stop-color="#F58D40"/>
            <stop offset="52.15%" stop-color="#F9AE49"/>
            <stop offset="59.5%" stop-color="#F38B41"/>
            <stop offset="66.36%" stop-color="#EF713A"/>
            <stop offset="70.43%" stop-color="#ED6738"/>
            <stop offset="73.89%" stop-color="#D35D34"/>
            <stop offset="81.33%" stop-color="#8F4429"/>
            <stop offset="91.4%" stop-color="#2A1E19"/>
        </linearGradient>
    </defs>
    <g fill="none" fill-rule="nonzero">
        <path fill="#FFF" d="M39.167.121H11C5 .121.167 4.994.167 11.043v28.398C.167 45.49 5 50.363 11 50.363h5l9 8.737 9-8.737h5c6 0 10.833-4.873 10.833-10.922V11.043C50.167 4.994 45.333.121 39.167.121z"/>
        <path fill="url(#a)" d="M31 13.9l-5.667 5.88-5.666-5.88H12.5v23.02h7.167l5.666-5.713L31 36.92h7.167V13.9H31zM17.167 34.568h-2.5V16.252h2.5v18.316zM19.5 16.924l4.333 4.37-4.166 4.2-.167-8.57zm0 16.467v-4.536L31 17.092v4.873L19.5 33.391zm7.333-3.864l4-4.201v8.401l-4-4.2zm9 5.04h-2.5V16.253h2.5v18.316z"/>
    </g>
</svg>
