<svg xmlns="http://www.w3.org/2000/svg" width="60" height="71" viewBox="0 0 60 71">
    <defs>
        <linearGradient id="a" x1="-7.427%" x2="106.76%" y1="86.777%" y2="12.67%">
            <stop offset="0%"/>
            <stop offset="29.42%" stop-color="#F05F33"/>
            <stop offset="34.64%" stop-color="#F16C37"/>
            <stop offset="44.2%" stop-color="#F58D40"/>
            <stop offset="52.15%" stop-color="#F9AE49"/>
            <stop offset="59.5%" stop-color="#F38B41"/>
            <stop offset="66.36%" stop-color="#EF713A"/>
            <stop offset="70.43%" stop-color="#ED6738"/>
            <stop offset="73.89%" stop-color="#D35D34"/>
            <stop offset="81.33%" stop-color="#8F4429"/>
            <stop offset="91.4%" stop-color="#2A1E19"/>
        </linearGradient>
    </defs>
    <g fill="none" fill-rule="nonzero">
        <path fill="#FFF" d="M47 .145H13.2C6 .145.2 5.993.2 13.252v34.077c0 7.259 5.8 13.106 13 13.106h6L30 70.92l10.8-10.485h6c7.2 0 13-5.847 13-13.106V13.252C60.2 5.992 54.4.145 47 .145z"/>
        <path fill="url(#a)" d="M37.2 16.68l-6.8 7.057-6.8-7.057H15v27.624h8.6l6.8-6.856 6.8 6.856h8.6V16.68h-8.6zM20.6 41.48h-3V19.503h3V41.48zm2.8-21.172l5.2 5.243-5 5.04-.2-10.283zm0 19.76v-5.444l13.8-14.114v5.847L23.4 40.07zm8.8-4.637l4.8-5.04v10.081l-4.8-5.041zm10.8 6.05h-3v-21.98h3v21.98z"/>
    </g>
</svg>
