<svg xmlns="http://www.w3.org/2000/svg" width="75" height="80" viewBox="0 0 75 80">
    <g fill="none" fill-rule="nonzero">
        <g fill="#DBDBDB">
            <path d="M13.881 66.746h-1.254V64.22a3.783 3.783 0 0 0-3.78-3.78 3.783 3.783 0 0 0-3.78 3.78v2.526H3.815V64.22c0-2.78 2.27-5.05 5.05-5.05s5.051 2.27 5.051 5.05v2.526h-.034zM32.83 66.746h-1.254V64.22a3.783 3.783 0 0 0-3.78-3.78 3.783 3.783 0 0 0-3.78 3.78v2.526h-1.253V64.22c0-2.78 2.27-5.05 5.05-5.05s5.051 2.27 5.051 5.05v2.526h-.033z"/>
        </g>
        <path fill="#1B0F3F" d="M14.525 66.119H3.17a2.532 2.532 0 0 0-2.525 2.525v8.83A2.532 2.532 0 0 0 3.17 80h11.356a2.532 2.532 0 0 0 2.526-2.525v-8.83a2.52 2.52 0 0 0-2.526-2.526z"/>
        <path fill="#FF9F1C" d="M33.458 66.119H22.102a2.532 2.532 0 0 0-2.526 2.525v8.83A2.532 2.532 0 0 0 22.102 80h11.356a2.532 2.532 0 0 0 2.525-2.525v-8.83a2.52 2.52 0 0 0-2.525-2.526z"/>
        <path fill="#DBDBDB" d="M8.203 47.458h1.254v12.339H8.203zM27.136 47.458h1.254v12.339h-1.254z"/>
        <g fill="#DBDBDB">
            <path d="M51.932 66.746h-1.254V64.22a3.783 3.783 0 0 0-3.78-3.78 3.783 3.783 0 0 0-3.78 3.78v2.526h-1.254V64.22c0-2.78 2.272-5.05 5.051-5.05 2.78 0 5.051 2.27 5.051 5.05v2.526h-.034zM70.864 66.746H69.61V64.22a3.783 3.783 0 0 0-3.78-3.78 3.783 3.783 0 0 0-3.78 3.78v2.526h-1.253V64.22c0-2.78 2.27-5.05 5.05-5.05s5.051 2.27 5.051 5.05v2.526h-.034z"/>
        </g>
        <path fill="#1B0F3F" d="M52.56 66.119H41.202a2.532 2.532 0 0 0-2.525 2.525v8.83A2.532 2.532 0 0 0 41.203 80H52.56a2.532 2.532 0 0 0 2.526-2.525v-8.83a2.51 2.51 0 0 0-2.526-2.526z"/>
        <path fill="#FF9F1C" d="M71.508 66.119H60.153a2.532 2.532 0 0 0-2.526 2.525v8.83A2.532 2.532 0 0 0 60.153 80h11.355a2.532 2.532 0 0 0 2.526-2.525v-8.83c-.017-1.408-1.136-2.526-2.526-2.526z"/>
        <path fill="#DBDBDB" d="M46.254 47.458h1.254v12.339h-1.254zM65.186 47.458h1.254v12.339h-1.254z"/>
        <g fill="#DBDBDB">
            <path d="M13.881 34.203h-1.254v-2.525a3.783 3.783 0 0 0-3.78-3.78 3.783 3.783 0 0 0-3.78 3.78v2.525H3.815v-2.525c0-2.78 2.27-5.05 5.05-5.05s5.051 2.27 5.051 5.05v2.525h-.034zM32.83 34.203h-1.254v-2.525a3.783 3.783 0 0 0-3.78-3.78 3.783 3.783 0 0 0-3.78 3.78v2.525h-1.253v-2.525c0-2.78 2.27-5.05 5.05-5.05s5.051 2.27 5.051 5.05v2.525h-.033z"/>
        </g>
        <path fill="#1B0F3F" d="M14.525 33.576H3.17a2.532 2.532 0 0 0-2.525 2.526v8.83a2.532 2.532 0 0 0 2.525 2.526h11.356a2.532 2.532 0 0 0 2.526-2.526v-8.83a2.52 2.52 0 0 0-2.526-2.526z"/>
        <path fill="#FF9F1C" d="M33.458 33.576H22.102a2.532 2.532 0 0 0-2.526 2.526v8.83a2.532 2.532 0 0 0 2.526 2.526h11.356a2.532 2.532 0 0 0 2.525-2.526v-8.83a2.52 2.52 0 0 0-2.525-2.526z"/>
        <path fill="#DBDBDB" d="M8.203 13.881h1.254v13.373H8.203zM27.136 13.881h1.254v13.373h-1.254z"/>
        <g fill="#DBDBDB">
            <path d="M51.932 34.203h-1.254v-2.525a3.783 3.783 0 0 0-3.78-3.78 3.783 3.783 0 0 0-3.78 3.78v2.525h-1.254v-2.525c0-2.78 2.272-5.05 5.051-5.05 2.78 0 5.051 2.27 5.051 5.05v2.525h-.034zM70.864 34.203H69.61v-2.525a3.783 3.783 0 0 0-3.78-3.78 3.783 3.783 0 0 0-3.78 3.78v2.525h-1.253v-2.525c0-2.78 2.27-5.05 5.05-5.05s5.051 2.27 5.051 5.05v2.525h-.034z"/>
        </g>
        <path fill="#1B0F3F" d="M52.56 33.576H41.202a2.532 2.532 0 0 0-2.525 2.526v8.83a2.532 2.532 0 0 0 2.525 2.526H52.56a2.532 2.532 0 0 0 2.526-2.526v-8.83a2.51 2.51 0 0 0-2.526-2.526z"/>
        <path fill="#FF9F1C" d="M71.508 33.576H60.153a2.532 2.532 0 0 0-2.526 2.526v8.83a2.532 2.532 0 0 0 2.526 2.526h11.355a2.532 2.532 0 0 0 2.526-2.526v-8.83c-.017-1.407-1.136-2.526-2.526-2.526z"/>
        <path fill="#DBDBDB" d="M46.254 13.881h1.254v13.373h-1.254zM65.186 13.881h1.254v13.373h-1.254z"/>
        <path fill="#F0900C" d="M21.339 3.729a6.731 6.731 0 0 0-.763-1.187 4.537 4.537 0 0 0-2.27 1.238c.304.305.558.66.762 1.05.05-.05.085-.118.135-.169.441-.458 1-.763 1.61-.881.17-.034.356-.034.526-.051zM59.373 3.729a6.731 6.731 0 0 0-.763-1.187A4.537 4.537 0 0 0 56.34 3.78c.305.305.56.66.763 1.05.05-.05.084-.118.135-.169.441-.458 1-.763 1.61-.881.187-.034.356-.034.526-.051z"/>
        <path fill="#FF9F1C" d="M20.576 11.271a6.927 6.927 0 0 0 1.526-4.339c0-1.644-.577-3.135-1.526-4.339a4.537 4.537 0 0 0-2.27 1.238 4.385 4.385 0 0 1 1.253 3.084A4.385 4.385 0 0 1 18.305 10c-.61.61-1.39 1.05-2.271 1.237a5.05 5.05 0 0 1-.898.085H6.949a4.362 4.362 0 0 1-4.424-4.373A4.427 4.427 0 0 1 6.95 2.525h8.204c.305 0 .593.034.898.085A7.083 7.083 0 0 1 18.322.763 6.941 6.941 0 0 0 15.152 0H6.95A6.937 6.937 0 0 0 0 6.95a6.937 6.937 0 0 0 6.95 6.948h8.203a6.82 6.82 0 0 0 3.152-.762 7.133 7.133 0 0 0 2.271-1.865z"/>
        <path fill="#1B0F3F" d="M29.661 0h-8.203a6.82 6.82 0 0 0-3.153.763 7.083 7.083 0 0 0-2.271 1.847 6.927 6.927 0 0 0-1.526 4.34c0 1.643.577 3.135 1.526 4.338a4.537 4.537 0 0 0 2.271-1.237 4.385 4.385 0 0 1-1.254-3.085c0-1.203.474-2.288 1.254-3.085.61-.61 1.39-1.05 2.271-1.237a5.05 5.05 0 0 1 .899-.085h8.186a4.427 4.427 0 0 1 4.424 4.424c0 2.44-1.983 4.373-4.424 4.373h-8.203a5.37 5.37 0 0 1-.899-.085 7.083 7.083 0 0 1-2.27 1.848c.948.474 2.016.762 3.152.762H29.66c3.83 0 6.95-3.101 6.95-6.949A6.923 6.923 0 0 0 29.66 0z"/>
        <path fill="#21174C" d="M22.05 11.356h-.592a5.37 5.37 0 0 1-.899-.085 7.083 7.083 0 0 1-2.27 1.848 6.9 6.9 0 0 0 1.49.559 7.97 7.97 0 0 0 1.746-1.627 4.99 4.99 0 0 0 .526-.695z"/>
        <path fill="#FF9F1C" d="M58.61 11.271a6.927 6.927 0 0 0 1.526-4.339c0-1.644-.577-3.135-1.526-4.339a4.537 4.537 0 0 0-2.271 1.238 4.385 4.385 0 0 1 1.254 3.084A4.385 4.385 0 0 1 56.34 10c-.61.61-1.39 1.05-2.271 1.237a5.05 5.05 0 0 1-.899.085h-8.203a4.427 4.427 0 0 1-4.424-4.424 4.427 4.427 0 0 1 4.424-4.423h8.203c.306 0 .594.033.899.084A7.083 7.083 0 0 1 56.339.712c-.932-.44-2-.712-3.136-.712H45a6.948 6.948 0 0 0-6.95 6.95A6.937 6.937 0 0 0 45 13.897h8.203a6.82 6.82 0 0 0 3.153-.762 7.07 7.07 0 0 0 2.254-1.865z"/>
        <path fill="#1B0F3F" d="M67.712 0h-8.204a6.82 6.82 0 0 0-3.152.763 7.083 7.083 0 0 0-2.271 1.847 6.927 6.927 0 0 0-1.526 4.34c0 1.643.577 3.135 1.526 4.338a4.537 4.537 0 0 0 2.27-1.237 4.385 4.385 0 0 1-1.253-3.085c0-1.203.474-2.288 1.254-3.085.61-.61 1.39-1.05 2.271-1.237a5.05 5.05 0 0 1 .898-.085h8.204a4.427 4.427 0 0 1 4.424 4.424c0 2.44-2 4.373-4.441 4.373h-8.204a5.37 5.37 0 0 1-.898-.085 7.083 7.083 0 0 1-2.271 1.848c.95.474 2.017.762 3.153.762h8.203c3.83 0 6.95-3.101 6.95-6.949A6.919 6.919 0 0 0 67.711 0z"/>
        <path fill="#21174C" d="M60.102 11.356h-.594a5.37 5.37 0 0 1-.898-.085 7.083 7.083 0 0 1-2.271 1.848 6.9 6.9 0 0 0 1.492.559 7.97 7.97 0 0 0 1.745-1.627 4.99 4.99 0 0 0 .526-.695z"/>
    </g>
</svg>
