<svg xmlns="http://www.w3.org/2000/svg" width="80" height="80" viewBox="0 0 80 80">
    <g fill="none" fill-rule="nonzero">
        <g fill="#DBDBDB">
            <path d="M37.31 6.759l2.742-.225 1.81 22.276-2.741.224zM10.586 17.948l1.69-2.172L32.62 31.62l-1.69 2.172zM10.345 11.759l24.707-8.742.914 2.604-24.707 8.741zM40.38 6.448l1.172-2.5L72.879 18.69l-1.172 2.5z"/>
            <path d="M12.241 16.741L12.483 14l57.138 5.19-.242 2.741zM73.276 23.897l2.741-.26 1.604 16.622-2.742.258zM52.207 41.241l.224-2.741 22 1.776-.224 2.741zM69.017 66.397l6.07-21.794 2.672.742-6.07 21.793zM43.103 73.966l24.518-6.552.707 2.672-24.518 6.552z"/>
            <path d="M17.38 69.776L72.69 42.24l1.224 2.466-55.31 27.534zM4.224 52.948L6.76 51.88l8.034 18.914-2.534 1.07zM2.948 47.569L6.88 17.621l2.742.362L5.69 47.93zM6.793 46.362l22.19-7.569.896 2.604-22.19 7.569zM16.259 75.81l.207-2.758 21.879 1.603-.207 2.759z"/>
            <path d="M40.431 73.31l30.172-48.482 2.345 1.465-30.172 48.483zM6.052 52.19l1.638-2.207L39.569 73.69l-1.638 2.207zM3.586 47.241L35.448 5.448l2.19 1.673L5.776 48.914z"/>
            <path d="M47.62 49.431l1.88-2.017 18.914 17.741-1.88 2.017zM13.983 69.966L31.69 45.828l2.224 1.638-17.707 24.137zM48.552 32.552L68.966 21.93l1.24 2.483-20.275 10.62z"/>
        </g>
        <circle cx="40" cy="40" r="12.414" fill="#1B0F3F"/>
        <g fill="#1B0F3F">
            <circle cx="38.621" cy="4.138" r="4.138"/>
            <circle cx="4.138" cy="49.655" r="4.138"/>
        </g>
        <g fill="#FDB62F" transform="translate(5.517 11.034)">
            <circle cx="34.483" cy="64.828" r="4.138"/>
            <circle cx="67.586" cy="11.034" r="4.138"/>
            <circle cx="4.138" cy="4.138" r="4.138"/>
        </g>
        <circle cx="70.345" cy="68.966" r="4.138" fill="#1B0F3F"/>
        <circle cx="75.862" cy="42.759" r="4.138" fill="#1B0F3F"/>
        <circle cx="15.172" cy="73.103" r="4.138" fill="#1B0F3F"/>
    </g>
</svg>
