<svg xmlns="http://www.w3.org/2000/svg" width="705" height="600" viewBox="0 0 705 600">
    <defs>
        <linearGradient id="a" x1="-13.692%" x2="74.352%" y1="28.369%" y2="73.702%">
            <stop offset="0%" stop-color="#0D42BF"/>
            <stop offset="99.52%" stop-color="#08CBEC"/>
        </linearGradient>
        <linearGradient id="b" x1="-13.811%" x2="75.924%" y1="28.51%" y2="74.682%">
            <stop offset="0%" stop-color="#FFDAD4"/>
            <stop offset="29.56%" stop-color="#B3929C"/>
            <stop offset="63.82%" stop-color="#61445F"/>
            <stop offset="88.13%" stop-color="#2D1339"/>
            <stop offset="100%" stop-color="#19002A"/>
        </linearGradient>
        <linearGradient id="c" x1="100.125%" x2=".043%" y1="50.009%" y2="50.009%">
            <stop offset=".192%" stop-color="#22DDEC"/>
            <stop offset="100%" stop-color="#0D5FCF"/>
        </linearGradient>
        <linearGradient id="d" x1="122.385%" x2="30.852%" y1="47.391%" y2="50.496%">
            <stop offset=".114%" stop-color="#B9FFFF"/>
            <stop offset="99.46%" stop-color="#06EEC7"/>
        </linearGradient>
        <linearGradient id="e" x1="100.125%" x2=".043%" y1="50.064%" y2="50.064%">
            <stop offset=".192%" stop-color="#22DDEC"/>
            <stop offset="100%" stop-color="#0D5FCF"/>
        </linearGradient>
        <linearGradient id="f" x1="120.961%" x2="39.422%" y1="49.362%" y2="49.981%">
            <stop offset=".114%" stop-color="#B9FFFF"/>
            <stop offset="99.46%" stop-color="#06EEC7"/>
        </linearGradient>
        <linearGradient id="g" x1="99.895%" x2=".043%" y1="49.922%" y2="49.922%">
            <stop offset=".192%" stop-color="#22DDEC"/>
            <stop offset="100%" stop-color="#0D5FCF"/>
        </linearGradient>
        <linearGradient id="h" x1="123.372%" x2="30.599%" y1="54.385%" y2="48.796%">
            <stop offset=".114%" stop-color="#B9FFFF"/>
            <stop offset="99.46%" stop-color="#06EEC7"/>
        </linearGradient>
        <linearGradient id="i" x1="50.066%" x2="50.066%" y1="141.939%" y2="17.643%">
            <stop offset="0%" stop-color="#24B4C6"/>
            <stop offset="19.06%" stop-color="#57C6D3" stop-opacity=".809"/>
            <stop offset="47.78%" stop-color="#9EDEE6" stop-opacity=".52"/>
            <stop offset="71.74%" stop-color="#D3F0F3" stop-opacity=".28"/>
            <stop offset="89.69%" stop-color="#F3FBFC" stop-opacity=".099"/>
            <stop offset="99.58%" stop-color="#FFF" stop-opacity="0"/>
        </linearGradient>
        <linearGradient id="j" x1="87.954%" x2="15.499%" y1="50.144%" y2="50.144%">
            <stop offset=".192%" stop-color="#22DDEC"/>
            <stop offset="100%" stop-color="#0D5FCF"/>
        </linearGradient>
        <linearGradient id="k" x1="121.915%" x2="20.792%" y1="44.074%" y2="52.356%">
            <stop offset=".114%" stop-color="#B9FFFF"/>
            <stop offset="99.46%" stop-color="#06EEC7"/>
        </linearGradient>
        <linearGradient id="l" x1="100.051%" x2=".234%" y1="50.001%" y2="50.001%">
            <stop offset=".192%" stop-color="#22DDEC"/>
            <stop offset="100%" stop-color="#0D5FCF"/>
        </linearGradient>
        <linearGradient id="m" x1="126.344%" x2="14.496%" y1="56.106%" y2="46.952%">
            <stop offset=".114%" stop-color="#B9FFFF"/>
            <stop offset="99.46%" stop-color="#06EEC7"/>
        </linearGradient>
        <linearGradient id="n" x1="50.058%" x2="50.058%" y1="115.2%" y2="10.101%">
            <stop offset="0%" stop-color="#24B4C6"/>
            <stop offset="30.58%" stop-color="#70CEDA" stop-opacity=".693"/>
            <stop offset="63.91%" stop-color="#BCE8EE" stop-opacity=".358"/>
            <stop offset="87.76%" stop-color="#EDF9FA" stop-opacity=".119"/>
            <stop offset="99.58%" stop-color="#FFF" stop-opacity="0"/>
        </linearGradient>
        <linearGradient id="o" x1="100.121%" x2=".303%" y1="50.032%" y2="50.032%">
            <stop offset=".192%" stop-color="#22DDEC"/>
            <stop offset="100%" stop-color="#0D5FCF"/>
        </linearGradient>
        <linearGradient id="p" x1="122.613%" x2="29.606%" y1="36.179%" y2="53.68%">
            <stop offset=".114%" stop-color="#B9FFFF"/>
            <stop offset="99.46%" stop-color="#06EEC7"/>
        </linearGradient>
        <linearGradient id="q" x1="100.121%" x2=".303%" y1="50.282%" y2="50.282%">
            <stop offset=".192%" stop-color="#22DDEC"/>
            <stop offset="100%" stop-color="#0D5FCF"/>
        </linearGradient>
        <linearGradient id="r" x1="127.284%" x2="16.447%" y1="35.876%" y2="56.295%">
            <stop offset=".114%" stop-color="#B9FFFF"/>
            <stop offset="99.46%" stop-color="#06EEC7"/>
        </linearGradient>
        <linearGradient id="s" x1="100.121%" x2=".303%" y1="50.14%" y2="50.14%">
            <stop offset=".192%" stop-color="#22DDEC"/>
            <stop offset="100%" stop-color="#0D5FCF"/>
        </linearGradient>
        <linearGradient id="t" x1="12.784%" x2="156.68%" y1="51.982%" y2="44.205%">
            <stop offset=".537%" stop-color="#06EEC7"/>
            <stop offset="99.89%" stop-color="#B9FFFF"/>
        </linearGradient>
        <linearGradient id="u" x1="50.095%" x2="50.095%" y1="98.038%" y2="15.741%">
            <stop offset="0%" stop-color="#24B4C6"/>
            <stop offset="30.58%" stop-color="#70CEDA" stop-opacity=".693"/>
            <stop offset="63.91%" stop-color="#BCE8EE" stop-opacity=".358"/>
            <stop offset="87.76%" stop-color="#EDF9FA" stop-opacity=".119"/>
            <stop offset="99.58%" stop-color="#FFF" stop-opacity="0"/>
        </linearGradient>
        <linearGradient id="v" x1="100.162%" x2=".344%" y1="50.15%" y2="50.15%">
            <stop offset=".192%" stop-color="#22DDEC"/>
            <stop offset="100%" stop-color="#0D5FCF"/>
        </linearGradient>
        <linearGradient id="w" x1="100.07%" x2=".252%" y1="50.257%" y2="50.257%">
            <stop offset=".192%" stop-color="#FF7800"/>
            <stop offset="100%" stop-color="#1B003F"/>
        </linearGradient>
        <linearGradient id="x" x1="122.935%" x2="29.715%" y1="36.296%" y2="53.798%">
            <stop offset=".114%" stop-color="#B9FFFF"/>
            <stop offset="99.46%" stop-color="#06EEC7"/>
        </linearGradient>
        <linearGradient id="y" x1="100.162%" x2=".081%" y1="50.008%" y2="50.008%">
            <stop offset=".192%" stop-color="#FF7800"/>
            <stop offset="100%" stop-color="#1B003F"/>
        </linearGradient>
        <linearGradient id="z" x1="127.033%" x2="16.45%" y1="35.603%" y2="56.021%">
            <stop offset=".114%" stop-color="#B9FFFF"/>
            <stop offset="99.46%" stop-color="#06EEC7"/>
        </linearGradient>
        <linearGradient id="A" x1="100.162%" x2=".344%" y1="50.222%" y2="50.222%">
            <stop offset=".192%" stop-color="#FF7800"/>
            <stop offset="100%" stop-color="#1B003F"/>
        </linearGradient>
        <linearGradient id="B" x1="12.824%" x2="156.721%" y1="52.099%" y2="44.322%">
            <stop offset=".537%" stop-color="#06EEC7"/>
            <stop offset="99.89%" stop-color="#B9FFFF"/>
        </linearGradient>
        <linearGradient id="C" x1="49.877%" x2="49.877%" y1="98.114%" y2="15.817%">
            <stop offset="0%" stop-color="#24B4C6"/>
            <stop offset="30.58%" stop-color="#70CEDA" stop-opacity=".693"/>
            <stop offset="63.91%" stop-color="#BCE8EE" stop-opacity=".358"/>
            <stop offset="87.76%" stop-color="#EDF9FA" stop-opacity=".119"/>
            <stop offset="99.58%" stop-color="#FFF" stop-opacity="0"/>
        </linearGradient>
        <linearGradient id="D" x1="100.056%" x2=".01%" y1="49.944%" y2="49.944%">
            <stop offset=".192%" stop-color="#22DDEC"/>
            <stop offset="100%" stop-color="#0D5FCF"/>
        </linearGradient>
        <linearGradient id="E" x1="100.193%" x2=".146%" y1="50.051%" y2="50.051%">
            <stop offset=".192%" stop-color="#FF7800"/>
            <stop offset="100%" stop-color="#1B003F"/>
        </linearGradient>
        <linearGradient id="F" x1="122.548%" x2="29.541%" y1="36.481%" y2="53.983%">
            <stop offset=".114%" stop-color="#B9FFFF"/>
            <stop offset="99.46%" stop-color="#06EEC7"/>
        </linearGradient>
        <linearGradient id="G" x1="100.056%" x2=".01%" y1="50.194%" y2="50.194%">
            <stop offset=".192%" stop-color="#FF7800"/>
            <stop offset="100%" stop-color="#1B003F"/>
        </linearGradient>
        <linearGradient id="H" x1="126.927%" x2="16.344%" y1="35.788%" y2="56.207%">
            <stop offset=".114%" stop-color="#B9FFFF"/>
            <stop offset="99.46%" stop-color="#06EEC7"/>
        </linearGradient>
        <linearGradient id="I" x1="100.056%" x2=".01%" y1="50.015%" y2="50.015%">
            <stop offset=".192%" stop-color="#FF7800"/>
            <stop offset="100%" stop-color="#1B003F"/>
        </linearGradient>
        <linearGradient id="J" x1="12.719%" x2="156.615%" y1="51.894%" y2="44.116%">
            <stop offset=".537%" stop-color="#06EEC7"/>
            <stop offset="99.89%" stop-color="#B9FFFF"/>
        </linearGradient>
        <linearGradient id="K" x1="50.019%" x2="50.019%" y1="97.981%" y2="15.684%">
            <stop offset="0%" stop-color="#24B4C6"/>
            <stop offset="30.58%" stop-color="#70CEDA" stop-opacity=".693"/>
            <stop offset="63.91%" stop-color="#BCE8EE" stop-opacity=".358"/>
            <stop offset="87.76%" stop-color="#EDF9FA" stop-opacity=".119"/>
            <stop offset="99.58%" stop-color="#FFF" stop-opacity="0"/>
        </linearGradient>
        <linearGradient id="L" x1="100.006%" x2=".188%" y1="50.147%" y2="50.147%">
            <stop offset=".192%" stop-color="#22DDEC"/>
            <stop offset="100%" stop-color="#0D5FCF"/>
        </linearGradient>
        <linearGradient id="M" x1="100.143%" x2=".061%" y1="50.254%" y2="50.254%">
            <stop offset=".192%" stop-color="#FF7800"/>
            <stop offset="100%" stop-color="#1B003F"/>
        </linearGradient>
        <linearGradient id="N" x1="122.727%" x2="29.719%" y1="36.294%" y2="53.795%">
            <stop offset=".114%" stop-color="#B9FFFF"/>
            <stop offset="99.46%" stop-color="#06EEC7"/>
        </linearGradient>
        <linearGradient id="O" x1="100.006%" x2=".188%" y1="50.005%" y2="50.005%">
            <stop offset=".192%" stop-color="#FF7800"/>
            <stop offset="100%" stop-color="#1B003F"/>
        </linearGradient>
        <linearGradient id="P" x1="127.106%" x2="16.523%" y1="35.6%" y2="56.019%">
            <stop offset=".114%" stop-color="#B9FFFF"/>
            <stop offset="99.46%" stop-color="#06EEC7"/>
        </linearGradient>
        <linearGradient id="Q" x1="100.006%" x2="-.041%" y1="50.023%" y2="50.023%">
            <stop offset=".192%" stop-color="#FF7800"/>
            <stop offset="100%" stop-color="#1B003F"/>
        </linearGradient>
        <linearGradient id="R" x1="12.897%" x2="156.794%" y1="52.097%" y2="44.32%">
            <stop offset=".537%" stop-color="#06EEC7"/>
            <stop offset="99.89%" stop-color="#B9FFFF"/>
        </linearGradient>
        <linearGradient id="S" x1="49.961%" x2="49.961%" y1="98.112%" y2="15.815%">
            <stop offset="0%" stop-color="#24B4C6"/>
            <stop offset="30.58%" stop-color="#70CEDA" stop-opacity=".693"/>
            <stop offset="63.91%" stop-color="#BCE8EE" stop-opacity=".358"/>
            <stop offset="87.76%" stop-color="#EDF9FA" stop-opacity=".119"/>
            <stop offset="99.58%" stop-color="#FFF" stop-opacity="0"/>
        </linearGradient>
    </defs>
    <g fill="none" fill-rule="evenodd">
        <path fill="url(#a)" fill-rule="nonzero" d="M0 0v598.08c89.346 11.923 279.722-34.308 284.834-59.857 9.738-47.934 379.536 4.137 303.094-149.155-17.772-35.768 75.955-78.105 96.162-99.517 60.131-64.237-20.45-133.826-121.481-171.54C456.952 78.348 459.387.486 370.529 0H0z" opacity=".07"/>
        <path fill="url(#b)" fill-rule="nonzero" d="M0 0v558.906c47.229 16.059 216.426 0 251.726-33.822 34.813-33.335 371.745 3.65 306.5-121.416-18.501-35.525 59.646-50.854 90.077-99.032 50.637-80.295-35.3-135.529-126.837-177.136C418.731 80.296 424.574 0 329.872 0H0z"/>
        <path fill="#63A7F7" fill-rule="nonzero" d="M203.766 419.24l92.754 53.774c2.921 1.703 6.33 2.676 9.738 2.676 3.408 0 6.573-.73 9.738-2.433l53.315-30.172c-.73-.243-1.46-.486-2.191-.973l-52.098 29.442c-5.356 3.163-12.172 3.163-17.528 0L206.2 418.51c-.73.243-1.704.487-2.435.73zM180.882 372.036c.974.243 1.704.487 2.435.73l131.218-74.7c-.73-.243-1.46-.486-2.19-.972l-131.463 74.942zM251.239 219.718c0 2.19 1.217 4.38 3.164 5.596 9.251 5.11 20.45 11.68 28.24 15.816.73-.243 1.461-.73 2.191-.973-7.79-4.38-19.719-11.193-29.457-16.79-1.46-.73-2.19-2.19-2.19-3.893 0-1.703.73-3.163 2.19-3.893L293.6 193.44c-.73-.243-1.461-.486-2.191-.973l-37.005 21.412c-1.947 1.46-3.164 3.65-3.164 5.84zM546.054 357.194c.487.243.974.486 1.461.973l.244.243 65.487-37.958c1.704-.973 2.678-2.676 2.678-4.623 0-1.946-.974-3.65-2.678-4.623l-14.363-8.03c-.73.244-1.46.73-2.435.974l15.824 9.003c1.218.73 1.705 1.703 1.705 3.163 0 1.216-.73 2.433-1.705 3.163l-66.218 37.715zM7.79 247.7c0 1.946.974 3.65 2.678 4.623l72.791 42.58c.244 0 .244.244.487.244.244 0 .73-.243.73-.487.244-.486.244-.973-.243-1.216l-72.79-42.825c-.975-.73-1.705-1.703-1.705-2.92 0-1.216.73-2.433 1.704-2.92l59.645-33.82c-.73-.244-1.704-.487-2.191-.974l-58.428 33.092c-1.704.973-2.678 2.676-2.678 4.623zM175.526 320.452c.244.244.487.487.73.487.244 0 .244 0 .487-.243l75.713-42.095c1.46-.973 2.434-2.433 2.434-4.136 0-1.703-.973-3.407-2.434-4.137l-90.563-53.287c-.73.244-1.46.73-2.434.73l92.267 54.017c.973.487 1.46 1.46 1.46 2.433 0 .974-.487 1.947-1.46 2.434l-75.713 42.094c-.487.487-.73 1.217-.487 1.703zM169.44 150.858c.73.244 1.704.487 2.191.974l68.409-38.688c5.112-2.92 11.442-2.92 16.311.243l13.877 8.273c.486-.487 1.217-.73 1.947-.973l-15.094-8.76c-5.599-3.406-12.659-3.406-18.258-.243l-69.383 39.174zM398.038 195.63l82.772 47.933c.487-.486 1.218-.73 2.191-.973l-82.772-48.177c-.73.486-1.46.973-2.191 1.216zM379.049 334.321c0 2.677 1.46 5.11 3.652 6.327l23.858 13.869c.73-.243 1.46-.73 2.19-.73l-25.318-14.6c-1.704-.972-2.678-2.676-2.678-4.866 0-1.946.974-3.65 2.678-4.623l25.319-14.355c1.704-.974 2.678-2.677 2.678-4.38 0-1.947-.974-3.407-2.435-4.38l-6.816-3.893c-.73.243-1.461.73-2.191.973l8.277 4.867c.974.486 1.704 1.703 1.704 2.92 0 1.216-.73 2.19-1.704 2.676l-25.319 14.356c-2.434.73-3.895 3.163-3.895 5.84zM365.172 439.192c0 .974.73 1.947 1.948 2.677.487.486 1.217.73 2.191.973 1.217.487 2.678.73 4.139.73 4.625 0 8.277-1.946 8.277-4.38 0-2.433-3.652-4.38-8.277-4.38-4.626 0-8.278 1.947-8.278 4.38z" opacity=".69"/>
        <path fill="#63A7F7" fill-rule="nonzero" d="M532.178 360.6c0 2.433 3.652 4.38 8.277 4.38 4.626 0 8.277-1.947 8.277-4.38 0-.73-.486-1.46-.973-2.19l-.244-.243c-.487-.244-.974-.73-1.46-.973-.244 0-.244-.244-.487-.244-1.461-.486-3.165-.973-5.113-.973-4.625.243-8.277 2.19-8.277 4.623zM310.397 294.174c0 1.216.73 2.19 1.947 2.92.487.486 1.217.73 2.191.973 1.217.486 2.678.486 4.139.486 4.625 0 8.277-1.946 8.277-4.38 0-2.433-3.652-4.38-8.277-4.38-4.626 0-8.277 1.947-8.277 4.38zM404.368 357.68c0 2.433 3.651 4.38 8.277 4.38 4.625 0 8.277-1.947 8.277-4.38s-3.652-4.38-8.277-4.38c-1.217 0-2.435.244-3.652.487-.974.243-1.704.487-2.19.73-1.462.73-2.435 1.947-2.435 3.163zM387.813 299.283c0 2.434 3.652 4.38 8.277 4.38 1.461 0 2.678-.243 3.652-.486.974-.244 1.704-.487 2.191-.974 1.46-.73 2.191-1.946 2.191-2.92 0-2.433-3.652-4.38-8.277-4.38-4.382.244-8.034 2.19-8.034 4.38zM169.44 376.66c.243 2.432 3.895 4.136 8.52 3.892 4.626-.243 8.034-2.433 8.034-4.866 0-1.217-.973-2.19-2.677-2.92-.73-.243-1.705-.487-2.435-.73-.974-.243-2.191-.243-3.408-.243-4.626.243-8.034 2.433-8.034 4.866zM289.947 190.033c0 .973.73 1.946 1.704 2.676.487.487 1.217.73 2.191.974 1.217.486 2.678.73 4.382.73 4.626 0 8.277-1.947 8.277-4.38s-3.651-4.38-8.277-4.38c-4.625 0-8.277 1.947-8.277 4.38zM268.767 123.85c0 2.433 3.652 4.38 8.277 4.38 4.626 0 8.277-1.947 8.277-4.38s-3.651-4.38-8.277-4.38c-1.704 0-3.165.243-4.382.73-.73.243-1.46.487-1.948.973-1.46.73-1.947 1.704-1.947 2.677zM157.511 154.751c0 2.434 3.652 4.38 8.277 4.38 4.626 0 8.278-1.946 8.278-4.38 0-1.216-.974-2.19-2.192-2.92-.73-.243-1.46-.73-2.19-.973-1.218-.243-2.435-.486-3.896-.486-4.625 0-8.277 1.946-8.277 4.38zM148.017 213.878c0 2.433 3.651 4.38 8.277 4.38 1.217 0 2.434-.243 3.408-.243a30.662 30.662 0 0 0 2.435-.73c1.704-.73 2.677-1.947 2.677-3.164 0-2.433-3.651-4.38-8.277-4.38-4.869 0-8.52 1.704-8.52 4.137zM478.62 246.483c0 2.433 3.651 4.38 8.277 4.38 4.625 0 8.277-1.947 8.277-4.38s-3.652-4.38-8.277-4.38c-1.461 0-2.922.244-4.14.487-.73.243-1.46.487-2.19.973-1.217.73-1.948 1.703-1.948 2.92zM584.52 299.77c0 2.433 3.651 4.38 8.277 4.38 1.217 0 2.434-.244 3.651-.487.974-.243 1.704-.486 2.435-.973 1.46-.73 2.434-1.947 2.434-3.163 0-2.433-3.651-4.38-8.277-4.38-4.869.487-8.52 2.433-8.52 4.623zM384.892 191.25c-.244 2.433 3.408 4.622 8.034 4.866 1.947 0 3.651-.244 4.868-.487.73-.243 1.461-.486 1.948-.973.974-.73 1.46-1.46 1.46-2.19.244-2.433-3.408-4.623-8.033-4.866-4.139-.487-8.034 1.46-8.277 3.65zM191.837 415.347c0 2.433 3.652 4.38 8.277 4.38 1.218 0 2.435-.244 3.652-.487.974-.243 1.704-.487 2.191-.973 1.46-.73 2.435-1.947 2.435-3.163 0-2.434-3.652-4.38-8.278-4.38-4.382.243-8.277 2.19-8.277 4.623zM66.461 207.065c0 1.217.974 2.19 2.191 2.92.73.243 1.461.73 2.191.973 1.218.244 2.435.487 3.652.487 4.626 0 8.277-1.947 8.277-4.38s-3.651-4.38-8.277-4.38c-4.382 0-8.034 1.947-8.034 4.38zM280.452 244.293c0 2.433 3.652 4.38 8.278 4.38 4.625 0 8.277-1.947 8.277-4.38s-3.652-4.38-8.277-4.38c-1.218 0-2.678.244-3.652.487-.974.243-1.704.487-2.191.973-1.704.73-2.435 1.704-2.435 2.92z" opacity=".69"/>
        <path fill="#23359E" fill-rule="nonzero" d="M58.184 182.003c-3.408 1.947.244 4.867 3.652 6.813l45.768 26.522c3.408 1.947 9.008 1.947 12.416 0l43.09-25.549c3.409-1.946 3.409-5.11 0-7.3l-45.768-26.034c-3.408-1.947-9.008-1.947-12.416 0l-46.742 25.548z"/>
        <path fill="url(#c)" fill-rule="nonzero" d="M56.237 170.324l17.284.243 28.24-16.789c3.409-1.946 9.008-1.946 12.416 0l30.431 17.762 17.772.244v11.922c0 1.46-.73 2.677-2.678 3.65l-42.847 25.792c-3.408 1.947-9.007 1.947-12.416 0l-45.525-26.522c-1.704-.973-2.677-2.433-2.434-3.65v-12.652h-.243z"/>
        <path fill="url(#d)" fill-rule="nonzero" d="M58.914 166.917c-3.408 1.947-3.408 5.11 0 7.3l45.769 26.522c3.408 1.946 9.007 1.946 12.416 0l42.847-25.549c3.408-1.946 3.408-5.11 0-7.3l-45.525-26.278c-3.409-1.946-9.008-1.946-12.416 0l-43.09 25.305z"/>
        <path fill="#57B156" fill-rule="nonzero" d="M138.279 169.837l-27.753-16.059c-1.461-.73-3.165-.73-4.383 0l-26.049 15.086c-1.217.73-1.217 2.676 0 3.406l27.51 15.816c1.704.974 4.139.974 5.843 0l24.832-14.599c1.46-.73 1.46-2.92 0-3.65z"/>
        <path fill="#0D5FCF" fill-rule="nonzero" d="M72.06 188.086l2.679 1.703v-6.326l-2.678-1.703zM68.409 186.14l2.678 1.46v-6.327l-2.678-1.46zM64.757 183.95l2.678 1.46v-6.327l-2.678-1.46zM61.106 181.76l2.677 1.703v-6.326l-2.677-1.703zM76.2 188.33c0 .73.486 1.46.973 1.46s.974-.73.974-1.46-.487-1.46-.974-1.46c-.73 0-.974.486-.974 1.46zM79.364 190.276c0 .73.487 1.46.974 1.46s.974-.73.974-1.46-.487-1.46-.974-1.46c-.73 0-.974.73-.974 1.46z"/>
        <path fill="url(#e)" fill-rule="nonzero" d="M56.237 149.398l17.284.244 28.24-16.79c3.409-1.946 9.008-1.946 12.416 0l30.431 17.763 17.772.243v11.923c0 1.46-.73 2.676-2.678 3.65l-42.847 25.548c-3.408 1.947-9.007 1.947-12.416 0l-45.525-26.522c-1.704-.973-2.677-2.433-2.434-3.65v-12.409h-.243z"/>
        <path fill="url(#f)" fill-rule="nonzero" d="M58.914 145.992c-3.408 1.946-3.408 5.11 0 7.3l45.769 26.521c3.408 1.947 9.007 1.947 12.416 0l43.09-25.548c3.408-1.947 3.408-5.11 0-7.3l-45.768-26.522c-3.409-1.946-9.008-1.946-12.416 0l-43.09 25.549z"/>
        <path fill="#57B156" fill-rule="nonzero" d="M138.279 148.912l-27.753-16.06c-1.461-.73-3.165-.73-4.383 0l-26.049 15.086c-1.217.73-1.217 2.677 0 3.407l27.51 15.816c1.704.973 4.139.973 5.843 0l24.832-14.6c1.46-.973 1.46-2.92 0-3.65z"/>
        <path fill="#0D5FCF" fill-rule="nonzero" d="M72.06 167.16l2.679 1.46v-6.326l-2.678-1.46zM68.409 164.97l2.678 1.46v-6.082l-2.678-1.703zM64.757 163.024l2.678 1.46v-6.326l-2.678-1.46zM61.106 160.834l2.677 1.46v-6.326l-2.677-1.46zM76.2 167.16c0 .73.486 1.46.973 1.46s.974-.73.974-1.46-.487-1.46-.974-1.46c-.73 0-.974.73-.974 1.46zM79.364 169.107c0 .73.487 1.46.974 1.46s.974-.73.974-1.46-.487-1.46-.974-1.46c-.73.244-.974.73-.974 1.46z"/>
        <path fill="url(#g)" fill-rule="nonzero" d="M56.237 128.473l17.284.243 28.484-16.789c3.408-1.946 9.007-1.946 12.416 0l30.43 17.762 17.772.244v11.922c0 1.46-.73 2.677-2.677 3.65l-43.09 25.549c-3.41 1.946-9.008 1.946-12.417 0l-45.525-26.522c-1.704-.973-2.677-2.433-2.434-3.65v-12.41h-.243z"/>
        <path fill="url(#h)" fill-rule="nonzero" d="M58.914 124.823c-3.408 1.947-3.408 5.11 0 7.3l45.769 26.522c3.408 1.946 9.007 1.946 12.416 0l43.09-25.549c3.408-1.947 3.408-5.11 0-7.3l-45.768-26.278c-3.409-1.947-9.008-1.947-12.416 0l-43.09 25.305z"/>
        <path fill="#FFF" fill-rule="nonzero" d="M138.279 127.743l-27.753-16.06c-1.461-.73-3.165-.73-4.383 0L80.094 126.77c-1.217.73-1.217 2.676 0 3.406l27.754 15.816c1.704.973 4.138.973 5.842 0l24.832-14.6c1.217-.73 1.217-2.676-.243-3.65z"/>
        <path fill="#0D5FCF" fill-rule="nonzero" d="M72.06 146.235l2.679 1.46v-6.326l-2.678-1.46zM68.409 144.045l2.678 1.46v-6.326l-2.678-1.46zM64.757 141.855l2.678 1.46v-6.083l-2.678-1.703zM61.106 139.909l2.677 1.46v-6.326l-2.677-1.46zM76.2 146.235c0 .73.486 1.46.973 1.46s.974-.73.974-1.46-.487-1.46-.974-1.46c-.73 0-.974.73-.974 1.46zM79.364 148.182c0 .73.487 1.46.974 1.46s.974-.73.974-1.46-.487-1.46-.974-1.46c-.73 0-.974.73-.974 1.46z"/>
        <path fill="url(#i)" fill-rule="nonzero" d="M62.81 50.854h91.78l-15.094 78.106c-.244 1.216-.244 2.433-1.217 2.92l-24.832 14.599c-1.704.973-4.139.973-5.843 0l-27.51-15.816c-.486-.244-.973-.974-.973-1.217-4.139-18.492-16.311-78.592-16.311-78.592z"/>
        <path fill="#23359E" fill-rule="nonzero" d="M70.113 241.373c11.442-6.57 29.7-6.57 40.9 0 11.198 6.57 11.198 17.276-.244 23.602-11.442 6.57-29.7 6.57-40.9 0-11.198-6.57-11.198-17.032.244-23.602z" opacity=".45"/>
        <path fill="#FFD008" fill-rule="nonzero" d="M103.952 241.617c3.409 1.946 5.356 4.38 6.33 6.813v-5.84c-.73-2.433-2.921-4.867-6.33-6.813-8.764-5.11-23.37-5.11-32.135 0-4.382 2.676-6.573 5.84-6.816 9.246v5.84c0-3.407 2.19-6.813 6.816-9.246 9.008-5.11 23.371-5.11 32.135 0zM110.282 248.43c.244.73.487 1.703.487 2.433v-5.84c0-.73-.243-1.703-.487-2.433v5.84z"/>
        <path fill="#FFCA05" fill-rule="nonzero" d="M65 245.266v5.84c0 3.407 2.192 6.813 6.574 9.246 8.764 5.11 23.37 5.11 32.135 0 4.382-2.676 6.817-6.083 6.817-9.49v-5.839c0 3.407-2.192 6.813-6.817 9.49-9.008 5.11-23.371 5.11-32.135 0-4.139-2.677-6.33-6.083-6.573-9.247z"/>
        <path fill="#FFD008" fill-rule="nonzero" d="M65.244 251.106s0-.243 0 0v-5.84c-.243 1.704 0 3.894 0 5.84z"/>
        <path fill="#FFCA05" fill-rule="nonzero" d="M71.817 235.777c-9.007 5.11-9.007 13.383 0 18.736 8.764 5.11 23.371 5.11 32.135 0 9.008-5.11 9.008-13.383 0-18.736-8.764-5.11-23.127-5.11-32.135 0z"/>
        <path fill="#EC9A22" fill-rule="nonzero" d="M103.952 239.183c-8.764-5.11-23.37-5.11-32.135 0-3.651 2.19-5.843 4.867-6.573 7.787-.73-3.893 1.46-8.03 6.573-10.95 9.008-5.11 23.371-5.11 32.135 0 5.113 2.92 7.304 7.057 6.33 10.95-.487-3.164-2.678-5.84-6.33-7.787z"/>
        <path fill="#EC9A22" fill-rule="nonzero" d="M58.914 245.266v5.84c0 4.38 2.922 8.516 8.521 11.68 11.199 6.57 29.7 6.57 40.9 0 5.599-3.407 8.52-7.543 8.52-11.923v-5.84c0 4.38-2.921 8.76-8.52 11.923-11.443 6.57-29.701 6.57-40.9 0-5.6-3.163-8.52-7.543-8.52-11.68z"/>
        <path fill="#FFD008" fill-rule="nonzero" d="M108.334 233.344c11.2 6.57 11.2 17.275-.243 23.602-11.442 6.57-29.7 6.57-40.9 0-11.198-6.57-11.198-17.276.244-23.602 11.442-6.57 29.7-6.57 40.9 0zm-4.382 21.169c9.008-5.11 9.008-13.383 0-18.736-8.764-5.11-23.37-5.11-32.135 0-9.007 5.11-9.007 13.383 0 18.736 8.764 5.11 23.128 5.11 32.135 0z"/>
        <path fill="#FFD008" fill-rule="nonzero" d="M103.952 234.074c3.409 1.946 5.356 4.38 6.33 6.813v-5.84c-.73-2.433-2.921-4.866-6.33-6.813-8.764-5.11-23.37-5.11-32.135 0-4.382 2.677-6.573 5.84-6.816 9.246v5.84c0-3.407 2.19-6.813 6.816-9.246 9.008-5.11 23.371-5.11 32.135 0zM110.282 240.887c.244.73.487 1.703.487 2.433v-5.84c0-.73-.243-1.703-.487-2.433v5.84z"/>
        <path fill="#FFCA05" fill-rule="nonzero" d="M65 237.723v5.84c0 3.407 2.192 6.813 6.574 9.246 8.764 5.11 23.37 5.11 32.135 0 4.382-2.676 6.817-6.083 6.817-9.49v-5.839c0 3.407-2.192 6.813-6.817 9.49-9.008 5.11-23.371 5.11-32.135 0-4.139-2.677-6.33-5.84-6.573-9.247z"/>
        <path fill="#FFD008" fill-rule="nonzero" d="M65.244 243.563v-5.84c-.243 1.704 0 4.137 0 5.84z"/>
        <path fill="#FFCA05" fill-rule="nonzero" d="M71.817 228.234c-9.007 5.11-9.007 13.383 0 18.736 8.764 5.11 23.371 5.11 32.135 0 9.008-5.11 9.008-13.383 0-18.736-8.764-5.11-23.127-5.11-32.135 0z"/>
        <path fill="#EC9A22" fill-rule="nonzero" d="M103.952 231.64c-8.764-5.11-23.37-5.11-32.135 0-3.651 2.19-5.843 4.867-6.573 7.787-.73-3.893 1.46-8.03 6.573-10.95 9.008-5.11 23.371-5.11 32.135 0 5.113 2.92 7.304 7.057 6.33 10.95-.487-2.92-2.678-5.84-6.33-7.787z"/>
        <path fill="#EC9A22" fill-rule="nonzero" d="M58.914 237.723v5.84c0 4.38 2.922 8.516 8.521 11.68 11.199 6.57 29.7 6.57 40.9 0 5.599-3.407 8.52-7.543 8.52-11.923v-5.84c0 4.38-2.921 8.76-8.52 11.923-11.443 6.57-29.701 6.57-40.9 0-5.6-3.163-8.52-7.543-8.52-11.68z"/>
        <path fill="#FFD008" fill-rule="nonzero" d="M108.334 225.8c11.2 6.57 11.2 17.277-.243 23.603-11.442 6.57-29.7 6.57-40.9 0-11.198-6.57-11.198-17.276.244-23.602 11.442-6.57 29.7-6.57 40.9 0zm-4.382 21.17c9.008-5.11 9.008-13.383 0-18.736-8.764-5.11-23.37-5.11-32.135 0-9.007 5.11-9.007 13.383 0 18.736 8.764 5.11 23.128 5.11 32.135 0z"/>
        <path fill="#FFD008" fill-rule="nonzero" d="M110.282 233.1c.244.73.487 1.704.487 2.434v-5.84c0-.73-.243-1.703-.487-2.433v5.839z"/>
        <path fill="#FFCA05" fill-rule="nonzero" d="M65 229.937v5.84c0 3.406 2.192 6.813 6.574 9.246 8.764 5.11 23.37 5.11 32.135 0 4.382-2.676 6.817-6.083 6.817-9.49v-5.84c0 3.407-2.192 6.814-6.817 9.49-9.008 5.11-23.371 5.11-32.135 0-4.139-2.676-6.33-5.84-6.573-9.246z"/>
        <path fill="#FFD008" fill-rule="nonzero" d="M65.244 235.777v-5.84c-.243 1.703 0 4.137 0 5.84z"/>
        <path fill="#EC9A22" fill-rule="nonzero" d="M58.914 229.937v5.84c0 4.38 2.922 8.516 8.521 11.68 11.199 6.569 29.7 6.569 40.9 0 5.599-3.407 8.52-7.544 8.52-11.923v-5.84c0 4.38-2.921 8.76-8.52 11.923-11.443 6.57-29.701 6.57-40.9 0-5.6-3.164-8.52-7.543-8.52-11.68z"/>
        <path fill="#FFD008" fill-rule="nonzero" d="M108.334 218.015c11.2 6.57 11.2 17.275-.243 23.602-11.442 6.57-29.7 6.57-40.9 0-11.198-6.57-11.198-17.276.244-23.602 11.442-6.57 29.7-6.57 40.9 0z"/>
        <path fill="#23359E" fill-rule="nonzero" d="M166.762 473.014c11.442-6.57 29.7-6.57 40.9 0 11.198 6.57 11.198 17.275-.244 23.602-11.442 6.57-29.7 6.57-40.9 0-11.198-6.327-11.198-17.033.244-23.602z" opacity=".45"/>
        <path fill="#FFD008" fill-rule="nonzero" d="M200.601 473.014c3.409 1.946 5.356 4.38 6.33 6.813v-5.84c-.73-2.433-2.921-4.866-6.33-6.813-8.764-5.11-23.37-5.11-32.135 0-4.382 2.677-6.573 5.84-6.816 9.246v5.84c0-3.407 2.19-6.813 6.816-9.246 9.008-5.353 23.371-5.353 32.135 0zM206.931 479.827c.243.73.487 1.703.487 2.433v-5.84c0-.73-.244-1.703-.487-2.433v5.84z"/>
        <path fill="#FFCA05" fill-rule="nonzero" d="M161.893 476.42v5.84c0 3.406 2.191 6.813 6.573 9.246 8.764 5.11 23.371 5.11 32.135 0 4.382-2.676 6.817-6.083 6.817-9.49v-5.84c0 3.407-2.191 6.814-6.817 9.49-9.007 5.11-23.37 5.11-32.135 0-4.382-2.433-6.573-5.84-6.573-9.246z"/>
        <path fill="#FFD008" fill-rule="nonzero" d="M161.893 482.26v-5.84 5.84z"/>
        <path fill="#FFCA05" fill-rule="nonzero" d="M168.466 467.174c-9.007 5.11-9.007 13.383 0 18.736 8.764 5.11 23.371 5.11 32.135 0 9.008-5.11 9.008-13.383 0-18.736-8.764-5.11-23.127-5.11-32.135 0z"/>
        <path fill="#EC9A22" fill-rule="nonzero" d="M200.601 470.337c-8.764-5.11-23.37-5.11-32.135 0-3.652 2.19-5.843 4.867-6.573 7.786-.73-3.893 1.46-8.03 6.573-10.949 9.008-5.11 23.371-5.11 32.135 0 5.113 2.92 7.304 7.056 6.33 10.95-.487-2.92-2.678-5.597-6.33-7.787z"/>
        <path fill="#EC9A22" fill-rule="nonzero" d="M155.563 476.42v5.84c0 4.38 2.922 8.516 8.521 11.68 11.199 6.569 29.7 6.569 40.9 0 5.599-3.407 8.52-7.544 8.52-11.923v-5.84c0 4.38-2.921 8.76-8.52 11.923-11.443 6.57-29.701 6.57-40.9 0-5.6-3.164-8.52-7.3-8.52-11.68z"/>
        <path fill="#FFD008" fill-rule="nonzero" d="M204.983 464.498c11.2 6.57 11.2 17.275-.243 23.602-11.442 6.57-29.7 6.57-40.9 0-11.198-6.57-11.198-17.276.244-23.602 11.442-6.57 29.7-6.57 40.9 0zm-4.382 21.168c9.008-5.11 9.008-13.382 0-18.735-8.764-5.11-23.37-5.11-32.135 0-9.007 5.11-9.007 13.382 0 18.735 8.764 5.11 23.128 5.11 32.135 0z"/>
        <path fill="#FFD008" fill-rule="nonzero" d="M200.601 465.47c3.409 1.947 5.356 4.38 6.33 6.814v-5.84c-.73-2.433-2.921-4.866-6.33-6.813-8.764-5.11-23.37-5.11-32.135 0-4.382 2.677-6.573 5.84-6.816 9.246v5.84c0-3.406 2.19-6.813 6.816-9.246 9.008-5.11 23.371-5.11 32.135 0zM206.931 472.284c.243.73.487 1.703.487 2.433v-5.84c0-.73-.244-1.703-.487-2.433v5.84z"/>
        <path fill="#FFCA05" fill-rule="nonzero" d="M161.893 468.877v5.84c0 3.406 2.191 6.813 6.573 9.246 8.764 5.11 23.371 5.11 32.135 0 4.382-2.676 6.817-6.083 6.817-9.49v-5.839c0 3.406-2.191 6.813-6.817 9.49-9.007 5.11-23.37 5.11-32.135 0-4.382-2.434-6.573-5.84-6.573-9.247z"/>
        <path fill="#FFD008" fill-rule="nonzero" d="M161.893 474.717v-5.84 5.84z"/>
        <path fill="#FFCA05" fill-rule="nonzero" d="M168.466 459.631c-9.007 5.11-9.007 13.383 0 18.736 8.764 5.11 23.371 5.11 32.135 0 9.008-5.11 9.008-13.383 0-18.736-8.764-5.11-23.127-5.11-32.135 0z"/>
        <path fill="#EC9A22" fill-rule="nonzero" d="M200.601 462.794c-8.764-5.11-23.37-5.11-32.135 0-3.652 2.19-5.843 4.867-6.573 7.787-.73-3.894 1.46-8.03 6.573-10.95 9.008-5.11 23.371-5.11 32.135 0 5.113 2.92 7.304 7.056 6.33 10.95-.487-2.92-2.678-5.597-6.33-7.787z"/>
        <path fill="#EC9A22" fill-rule="nonzero" d="M155.563 469.12v5.84c0 4.38 2.922 8.517 8.521 11.68 11.199 6.57 29.7 6.57 40.9 0 5.599-3.407 8.52-7.543 8.52-11.923v-5.84c0 4.38-2.921 8.76-8.52 11.923-11.443 6.57-29.701 6.57-40.9 0-5.6-3.163-8.52-7.543-8.52-11.68z"/>
        <path fill="#FFD008" fill-rule="nonzero" d="M204.983 457.198c11.2 6.57 11.2 17.276-.243 23.602-11.442 6.57-29.7 6.57-40.9 0-11.198-6.57-11.198-17.276.244-23.602 11.442-6.57 29.7-6.57 40.9 0zm-4.382 21.169c9.008-5.11 9.008-13.383 0-18.736-8.764-5.11-23.37-5.11-32.135 0-9.007 5.11-9.007 13.383 0 18.736 8.764 5.11 23.128 5.11 32.135 0z"/>
        <path fill="#FFD008" fill-rule="nonzero" d="M200.601 457.928c3.409 1.946 5.356 4.38 6.33 6.813v-5.84c-.73-2.433-2.921-4.866-6.33-6.813-8.764-5.11-23.37-5.11-32.135 0-4.382 2.677-6.573 5.84-6.816 9.246v5.84c0-3.406 2.19-6.813 6.816-9.246 9.008-5.11 23.371-5.11 32.135 0zM206.931 464.74c.243.73.487 1.704.487 2.434v-5.84c0-.73-.244-1.703-.487-2.433v5.84z"/>
        <path fill="#FFCA05" fill-rule="nonzero" d="M161.893 461.578v5.84c0 3.406 2.191 6.812 6.573 9.246 8.764 5.11 23.371 5.11 32.135 0 4.382-2.677 6.817-6.083 6.817-9.49v-5.84c0 3.407-2.191 6.813-6.817 9.49-9.007 5.11-23.37 5.11-32.135 0-4.382-2.677-6.573-6.083-6.573-9.246z"/>
        <path fill="#FFD008" fill-rule="nonzero" d="M161.893 467.417c0-.243 0-.243 0 0v-5.84 5.84z"/>
        <path fill="#FFCA05" fill-rule="nonzero" d="M168.466 452.088c-9.007 5.11-9.007 13.383 0 18.736 8.764 5.11 23.371 5.11 32.135 0 9.008-5.11 9.008-13.383 0-18.736-8.764-5.11-23.127-5.11-32.135 0z"/>
        <path fill="#EC9A22" fill-rule="nonzero" d="M200.601 455.251c-8.764-5.11-23.37-5.11-32.135 0-3.652 2.19-5.843 4.867-6.573 7.787-.73-3.893 1.46-8.03 6.573-10.95 9.008-5.11 23.371-5.11 32.135 0 5.113 2.92 7.304 7.057 6.33 10.95-.487-2.92-2.678-5.597-6.33-7.787z"/>
        <path fill="#EC9A22" fill-rule="nonzero" d="M155.563 461.578v5.84c0 4.38 2.922 8.516 8.521 11.679 11.199 6.57 29.7 6.57 40.9 0 5.599-3.407 8.52-7.543 8.52-11.923v-5.84c0 4.38-2.921 8.76-8.52 11.923-11.443 6.57-29.701 6.57-40.9 0-5.6-3.163-8.52-7.543-8.52-11.68z"/>
        <path fill="#FFD008" fill-rule="nonzero" d="M204.983 449.655c11.2 6.57 11.2 17.276-.243 23.602-11.442 6.57-29.7 6.57-40.9 0-11.198-6.57-11.198-17.276.244-23.602 11.442-6.57 29.7-6.57 40.9 0zm-4.382 21.169c9.008-5.11 9.008-13.383 0-18.736-8.764-5.11-23.37-5.11-32.135 0-9.007 5.11-9.007 13.383 0 18.736 8.764 5.11 23.128 5.11 32.135 0z"/>
        <path fill="#FFD008" fill-rule="nonzero" d="M200.601 450.142c3.409 1.946 5.356 4.38 6.33 6.813v-5.84c-.73-2.433-2.921-4.866-6.33-6.813-8.764-5.11-23.37-5.11-32.135 0-4.382 2.677-6.573 5.84-6.816 9.246v5.84c0-3.407 2.19-6.813 6.816-9.246 9.008-5.11 23.371-5.11 32.135 0zM206.931 456.955c.243.73.487 1.703.487 2.433v-5.84c0-.73-.244-1.703-.487-2.433v5.84z"/>
        <path fill="#FFCA05" fill-rule="nonzero" d="M161.893 453.791v5.84c0 3.407 2.191 6.813 6.573 9.246 8.764 5.11 23.371 5.11 32.135 0 4.382-2.676 6.817-6.083 6.817-9.49v-5.839c0 3.407-2.191 6.813-6.817 9.49-9.007 5.11-23.37 5.11-32.135 0-4.382-2.434-6.573-5.84-6.573-9.247z"/>
        <path fill="#FFD008" fill-rule="nonzero" d="M161.893 459.631v-5.84 5.84z"/>
        <path fill="#FFCA05" fill-rule="nonzero" d="M168.466 444.545c-9.007 5.11-9.007 13.383 0 18.736 8.764 5.11 23.371 5.11 32.135 0 9.008-5.11 9.008-13.383 0-18.736-8.764-5.353-23.127-5.353-32.135 0z"/>
        <path fill="#EC9A22" fill-rule="nonzero" d="M200.601 447.709c-8.764-5.11-23.37-5.11-32.135 0-3.652 2.19-5.843 4.866-6.573 7.786-.73-3.893 1.46-8.03 6.573-10.95 9.008-5.11 23.371-5.11 32.135 0 5.113 2.92 7.304 7.057 6.33 10.95-.487-2.92-2.678-5.597-6.33-7.786z"/>
        <path fill="#EC9A22" fill-rule="nonzero" d="M155.563 453.791v5.84c0 4.38 2.922 8.516 8.521 11.68 11.199 6.57 29.7 6.57 40.9 0 5.599-3.407 8.52-7.543 8.52-11.923v-5.84c0 4.38-2.921 8.76-8.52 11.923-11.443 6.57-29.701 6.57-40.9 0-5.6-3.163-8.52-7.3-8.52-11.68z"/>
        <path fill="#FFD008" fill-rule="nonzero" d="M204.983 441.869c11.2 6.57 11.2 17.276-.243 23.602-11.442 6.57-29.7 6.57-40.9 0-11.198-6.57-11.198-17.276.244-23.602 11.442-6.57 29.7-6.57 40.9 0zm-4.382 21.169c9.008-5.11 9.008-13.383 0-18.736-8.764-5.11-23.37-5.11-32.135 0-9.007 5.11-9.007 13.383 0 18.736 8.764 5.11 23.128 5.11 32.135 0z"/>
        <path fill="#FFD008" fill-rule="nonzero" d="M200.601 442.842c3.409 1.947 5.356 4.38 6.33 6.813v-5.84c-.73-2.433-2.921-4.866-6.33-6.813-8.764-5.11-23.37-5.11-32.135 0-4.382 2.677-6.573 5.84-6.816 9.247v5.84c0-3.407 2.19-6.814 6.816-9.247 9.008-5.11 23.371-5.11 32.135 0zM206.931 449.655c.243.73.487 1.703.487 2.433v-5.84c0-.73-.244-1.703-.487-2.433v5.84z"/>
        <path fill="#FFCA05" fill-rule="nonzero" d="M161.893 446.249v5.84c0 3.406 2.191 6.812 6.573 9.245 8.764 5.11 23.371 5.11 32.135 0 4.382-2.676 6.817-6.083 6.817-9.49v-5.839c0 3.407-2.191 6.813-6.817 9.49-9.007 5.11-23.37 5.11-32.135 0-4.382-2.433-6.573-5.84-6.573-9.246z"/>
        <path fill="#FFD008" fill-rule="nonzero" d="M161.893 452.088v-5.84 5.84z"/>
        <path fill="#FFCA05" fill-rule="nonzero" d="M168.466 437.002c-9.007 5.11-9.007 13.383 0 18.736 8.764 5.11 23.371 5.11 32.135 0 9.008-5.11 9.008-13.383 0-18.736-8.764-5.11-23.127-5.11-32.135 0z"/>
        <path fill="#EC9A22" fill-rule="nonzero" d="M200.601 440.166c-8.764-5.11-23.37-5.11-32.135 0-3.652 2.19-5.843 4.866-6.573 7.786-.73-3.893 1.46-8.03 6.573-10.95 9.008-5.11 23.371-5.11 32.135 0 5.113 2.92 7.304 7.057 6.33 10.95-.487-2.92-2.678-5.597-6.33-7.786z"/>
        <path fill="#EC9A22" fill-rule="nonzero" d="M155.563 446.249v5.84c0 4.379 2.922 8.515 8.521 11.679 11.199 6.57 29.7 6.57 40.9 0 5.599-3.407 8.52-7.543 8.52-11.923v-5.84c0 4.38-2.921 8.76-8.52 11.923-11.443 6.57-29.701 6.57-40.9 0-5.6-3.163-8.52-7.3-8.52-11.68z"/>
        <path fill="#FFD008" fill-rule="nonzero" d="M204.983 434.326c11.2 6.57 11.2 17.276-.243 23.602-11.442 6.57-29.7 6.57-40.9 0-11.198-6.57-11.198-17.276.244-23.602 11.442-6.57 29.7-6.57 40.9 0zm-4.382 21.169c9.008-5.11 9.008-13.383 0-18.736-8.764-5.11-23.37-5.11-32.135 0-9.007 5.11-9.007 13.383 0 18.736 8.764 5.353 23.128 5.353 32.135 0z"/>
        <path fill="#FFD008" fill-rule="nonzero" d="M206.931 442.112c.243.73.487 1.703.487 2.433v-5.84c0-.73-.244-1.703-.487-2.433v5.84z"/>
        <path fill="#FFCA05" fill-rule="nonzero" d="M161.893 438.949v5.84c0 3.406 2.191 6.813 6.573 9.246 8.764 5.11 23.371 5.11 32.135 0 4.382-2.677 6.817-6.083 6.817-9.49v-5.84c0 3.407-2.191 6.814-6.817 9.49-9.007 5.11-23.37 5.11-32.135 0-4.382-2.676-6.573-5.84-6.573-9.246z"/>
        <path fill="#FFD008" fill-rule="nonzero" d="M161.893 444.789v-5.84 5.84z"/>
        <path fill="#EC9A22" fill-rule="nonzero" d="M155.563 438.949v5.84c0 4.38 2.922 8.516 8.521 11.679 11.199 6.57 29.7 6.57 40.9 0 5.599-3.406 8.52-7.543 8.52-11.923v-5.84c0 4.38-2.921 8.76-8.52 11.923-11.443 6.57-29.701 6.57-40.9 0-5.6-3.163-8.52-7.543-8.52-11.679z"/>
        <path fill="#FFD008" fill-rule="nonzero" d="M204.983 427.026c11.2 6.57 11.2 17.276-.243 23.602-11.442 6.57-29.7 6.57-40.9 0-11.198-6.57-11.198-17.275.244-23.602 11.442-6.57 29.7-6.57 40.9 0z"/>
        <path fill="#23359E" fill-rule="nonzero" d="M116.612 492.723c11.442-6.57 29.7-6.57 40.899 0 11.199 6.57 11.199 17.275-.243 23.602-11.442 6.57-29.701 6.57-40.9 0-11.198-6.57-11.198-17.033.244-23.602z" opacity=".45"/>
        <path fill="#FFD008" fill-rule="nonzero" d="M151.425 491.506c3.408 1.947 5.356 4.38 6.33 6.813v-5.84c-.73-2.433-2.922-4.866-6.33-6.813-8.764-5.11-23.371-5.11-32.135 0-4.382 2.677-6.573 5.84-6.817 9.247v5.84c0-3.407 2.191-6.814 6.817-9.247 8.764-5.11 23.127-5.11 32.135 0z"/>
        <path fill="#FFD008" fill-rule="nonzero" d="M157.511 498.319c.243.73.487 1.703.487 2.433v-5.84c0-.73-.244-1.703-.487-2.433v5.84z"/>
        <path fill="#FFCA05" fill-rule="nonzero" d="M112.473 495.156v5.84c0 3.406 2.191 6.813 6.573 9.246 8.764 5.11 23.371 5.11 32.135 0 4.382-2.677 6.817-6.083 6.817-9.49v-5.84c0 3.407-2.191 6.814-6.817 9.49-9.007 5.11-23.37 5.11-32.135 0-4.382-2.676-6.573-6.083-6.573-9.246z"/>
        <path fill="#FFD008" fill-rule="nonzero" d="M112.473 500.996s0-.244 0 0v-5.84 5.84z"/>
        <path fill="#FFCA05" fill-rule="nonzero" d="M119.046 485.666c-9.007 5.11-9.007 13.383 0 18.736 8.764 5.11 23.371 5.11 32.135 0 9.008-5.11 9.008-13.383 0-18.736-8.764-5.11-23.127-5.11-32.135 0z"/>
        <path fill="#EC9A22" fill-rule="nonzero" d="M151.181 488.83c-8.764-5.11-23.37-5.11-32.135 0-3.652 2.19-5.843 4.866-6.573 7.786-.73-3.893 1.46-8.03 6.573-10.95 9.008-5.11 23.371-5.11 32.135 0 5.113 2.92 7.304 7.057 6.33 10.95-.487-2.92-2.434-5.597-6.33-7.786z"/>
        <path fill="#EC9A22" fill-rule="nonzero" d="M106.143 495.156v5.84c0 4.38 2.922 8.516 8.521 11.679 11.199 6.57 29.7 6.57 40.9 0 5.599-3.407 8.52-7.543 8.52-11.923v-5.84c0 4.38-2.921 8.76-8.52 11.923-11.443 6.57-29.701 6.57-40.9 0-5.6-3.163-8.52-7.543-8.52-11.68z"/>
        <path fill="#FFD008" fill-rule="nonzero" d="M155.807 483.233c11.199 6.57 11.199 17.276-.244 23.602-11.442 6.57-29.7 6.57-40.899 0-11.198-6.57-11.198-17.275.244-23.602 11.198-6.57 29.457-6.57 40.899 0zm-4.626 21.169c9.008-5.11 9.008-13.383 0-18.736-8.764-5.11-23.37-5.11-32.135 0-9.007 5.11-9.007 13.383 0 18.736 8.764 5.11 23.128 5.11 32.135 0z"/>
        <path fill="#FFD008" fill-rule="nonzero" d="M157.511 490.046c.243.73.487 1.703.487 2.433v-5.84c0-.73-.244-1.703-.487-2.433v5.84z"/>
        <path fill="#FFCA05" fill-rule="nonzero" d="M112.473 486.883v5.84c0 3.406 2.191 6.813 6.573 9.246 8.764 5.11 23.371 5.11 32.135 0 4.382-2.677 6.817-6.083 6.817-9.49v-5.84c0 3.407-2.191 6.814-6.817 9.49-9.007 5.11-23.37 5.11-32.135 0-4.382-2.676-6.573-6.083-6.573-9.246z"/>
        <path fill="#FFD008" fill-rule="nonzero" d="M112.473 492.723c0-.244 0-.244 0 0v-5.84 5.84z"/>
        <path fill="#EC9A22" fill-rule="nonzero" d="M106.143 486.883v5.84c0 4.38 2.922 8.516 8.521 11.679 11.199 6.57 29.7 6.57 40.9 0 5.599-3.406 8.52-7.543 8.52-11.923v-5.84c0 4.38-2.921 8.76-8.52 11.923-11.443 6.57-29.701 6.57-40.9 0-5.6-3.163-8.52-7.543-8.52-11.679z"/>
        <path fill="#FFD008" fill-rule="nonzero" d="M155.807 474.96c11.199 6.57 11.199 17.276-.244 23.602-11.442 6.57-29.7 6.57-40.899 0-11.198-6.57-11.198-17.275.244-23.602 11.198-6.57 29.457-6.57 40.899 0z"/>
        <path fill="#23359E" fill-rule="nonzero" d="M303.337 269.598c-3.409 1.947.243 4.867 3.651 6.813l45.769 26.522c3.408 1.947 9.007 1.947 12.415 0l43.09-25.548c3.409-1.947 3.409-5.11 0-7.3l-45.768-26.522c-3.408-1.946-9.007-1.946-12.415 0l-46.742 26.035z"/>
        <path fill="url(#j)" fill-rule="nonzero" d="M302.363 257.19l17.285.242 28.24-16.789c3.408-1.946 9.007-1.946 12.415 0l30.431 17.763 17.772.243v11.923c0 1.46-.73 2.676-2.678 3.65l-43.09 25.548c-3.408 1.947-9.008 1.947-12.416 0l-45.768-26.522c-1.704-.973-2.678-2.433-2.435-3.65V257.19h.244z"/>
        <path fill="url(#k)" fill-rule="nonzero" d="M305.04 253.783c-3.408 1.946-3.408 5.11 0 7.3l45.769 26.521c3.408 1.947 9.008 1.947 12.416 0l43.09-25.549c3.408-1.946 3.408-5.11 0-7.3l-46.012-26.521c-3.408-1.947-9.007-1.947-12.415 0l-42.847 25.549z"/>
        <path fill="#57B156" fill-rule="nonzero" d="M384.405 256.702l-27.753-16.059c-1.461-.73-3.165-.73-4.382 0l-26.05 15.086c-1.217.73-1.217 2.677 0 3.407l27.51 15.815c1.704.974 4.139.974 5.843 0l24.832-14.599c1.46-.73 1.46-2.92 0-3.65z"/>
        <path fill="#0D5FCF" fill-rule="nonzero" d="M318.187 274.951l2.434 1.46v-6.083l-2.434-1.703zM314.535 272.762l2.435 1.703v-6.327l-2.435-1.46zM310.883 270.815l2.678 1.46v-6.326l-2.678-1.46zM307.232 268.625l2.678 1.46v-6.083l-2.678-1.703zM322.082 275.195c0 .73.487 1.46.974 1.46s.974-.73.974-1.46-.487-1.46-.974-1.46-.974.486-.974 1.46zM325.247 277.141c0 .73.487 1.46.974 1.46s.973-.73.973-1.46-.486-1.46-.973-1.46-.974.487-.974 1.46z"/>
        <path fill="url(#l)" fill-rule="nonzero" d="M302.363 236.264l17.285.243 28.24-16.79c3.408-1.946 9.007-1.946 12.415 0l30.431 17.763 17.772.243v11.923c0 1.46-.73 2.677-2.678 3.65l-43.09 25.549c-3.408 1.946-9.008 1.946-12.416 0l-45.768-26.522c-1.704-.974-2.678-2.434-2.435-3.65v-12.41h.244z"/>
        <path fill="url(#m)" fill-rule="nonzero" d="M305.04 232.857c-3.408 1.947-3.408 5.11 0 7.3l45.769 26.522c3.408 1.946 9.008 1.946 12.416 0l43.09-25.549c3.408-1.947 3.408-5.11 0-7.3l-46.012-26.521c-3.408-1.947-9.007-1.947-12.415 0l-42.847 25.548z"/>
        <path fill="#FFF" fill-rule="nonzero" d="M384.405 235.534l-27.753-16.06c-1.461-.73-3.165-.73-4.382 0l-26.05 15.086c-1.217.73-1.217 2.677 0 3.407l27.51 15.816c1.704.973 4.139.973 5.843 0l24.832-14.6c1.46-.73 1.46-2.676 0-3.65z"/>
        <path fill="#0D5FCF" fill-rule="nonzero" d="M318.187 254.026l2.434 1.46v-6.326l-2.434-1.46zM314.535 251.836l2.435 1.46v-6.083l-2.435-1.703zM310.883 249.646l2.678 1.703v-6.326l-2.678-1.46zM307.232 247.7l2.678 1.46v-6.327l-2.678-1.46zM322.082 254.026c0 .73.487 1.46.974 1.46s.974-.73.974-1.46-.487-1.46-.974-1.46-.974.73-.974 1.46zM325.247 255.972c0 .73.487 1.46.974 1.46s.973-.73.973-1.46-.486-1.46-.973-1.46-.974.73-.974 1.46z"/>
        <path fill="url(#n)" fill-rule="nonzero" d="M309.423 147.209h91.78l-15.58 89.298c-.244 1.216-.244 2.433-1.218 2.92l-24.832 14.599c-1.704.973-4.139.973-5.843 0l-27.51-16.06c-.486-.243-.973-.972-.973-1.216-4.139-18.249-15.824-89.541-15.824-89.541z"/>
        <path fill="#23359E" fill-rule="nonzero" d="M439.668 182.733c11.442-6.57 29.7-6.57 40.899 0 11.199 6.57 11.199 17.276-.244 23.602-11.442 6.57-29.7 6.57-40.899 0-11.198-6.57-10.955-17.032.244-23.602z" opacity=".45"/>
        <path fill="#FFD008" fill-rule="nonzero" d="M474.48 181.517c3.409 1.946 5.357 4.38 6.33 6.813v-5.84c-.73-2.433-2.921-4.867-6.33-6.813-8.763-5.11-23.37-5.11-32.134 0-4.383 2.676-6.574 5.84-6.817 9.246v5.84c0-3.407 2.191-6.813 6.817-9.246 8.764-5.11 23.37-5.11 32.135 0z"/>
        <path fill="#FFD008" fill-rule="nonzero" d="M480.567 188.33c.243.73.487 1.703.487 2.433v-5.84c0-.73-.244-1.703-.487-2.433v5.84z"/>
        <path fill="#FFCA05" fill-rule="nonzero" d="M435.529 185.166v5.84c0 3.407 2.191 6.813 6.573 9.246 8.764 5.11 23.371 5.11 32.135 0 4.382-2.676 6.817-6.083 6.817-9.49v-5.839c0 3.407-2.191 6.813-6.817 9.49-9.007 5.11-23.37 5.11-32.135 0-4.382-2.677-6.573-6.083-6.573-9.247z"/>
        <path fill="#FFD008" fill-rule="nonzero" d="M435.529 191.006s0-.243 0 0v-5.84 5.84z"/>
        <path fill="#FFCA05" fill-rule="nonzero" d="M442.346 175.677c-9.008 5.11-9.008 13.383 0 18.736 8.764 5.11 23.37 5.11 32.135 0 9.007-5.11 9.007-13.383 0-18.736-9.008-5.11-23.371-5.11-32.135 0z"/>
        <path fill="#EC9A22" fill-rule="nonzero" d="M474.48 179.083c-8.763-5.11-23.37-5.11-32.134 0-3.652 2.19-5.843 4.867-6.574 7.787-.73-3.893 1.461-8.03 6.574-10.95 9.007-5.11 23.37-5.11 32.135 0 5.112 2.92 7.303 7.057 6.33 10.95-.488-3.164-2.679-5.84-6.33-7.787z"/>
        <path fill="#EC9A22" fill-rule="nonzero" d="M429.443 185.166v5.84c0 4.38 2.921 8.516 8.52 11.68 11.2 6.57 29.701 6.57 40.9 0 5.6-3.407 8.52-7.543 8.52-11.923v-5.84c0 4.38-2.92 8.76-8.52 11.923-11.442 6.57-29.7 6.57-40.9 0-5.842-3.163-8.52-7.543-8.52-11.68z"/>
        <path fill="#FFD008" fill-rule="nonzero" d="M478.863 173.244c11.198 6.57 11.198 17.275-.244 23.602-11.442 6.57-29.7 6.57-40.899 0-11.199-6.57-11.199-17.276.243-23.602 11.2-6.57 29.701-6.57 40.9 0zm-4.626 21.169c9.008-5.11 9.008-13.383 0-18.736-8.764-5.11-23.37-5.11-32.135 0-9.008 5.11-9.008 13.383 0 18.736 9.008 5.11 23.371 5.11 32.135 0z"/>
        <path fill="#FFD008" fill-rule="nonzero" d="M480.567 180.057c.243.73.487 1.703.487 2.433v-5.84c0-.73-.244-1.703-.487-2.433v5.84z"/>
        <path fill="#FFCA05" fill-rule="nonzero" d="M435.529 176.894v5.84c0 3.406 2.191 6.812 6.573 9.245 8.764 5.11 23.371 5.11 32.135 0 4.382-2.676 6.817-6.083 6.817-9.49v-5.839c0 3.407-2.191 6.813-6.817 9.49-9.007 5.11-23.37 5.11-32.135 0-4.382-2.677-6.573-6.083-6.573-9.246z"/>
        <path fill="#FFD008" fill-rule="nonzero" d="M435.529 182.733s0-.243 0 0v-5.84 5.84z"/>
        <path fill="#EC9A22" fill-rule="nonzero" d="M429.443 176.894v5.84c0 4.379 2.921 8.515 8.52 11.679 11.2 6.57 29.701 6.57 40.9 0 5.6-3.407 8.52-7.543 8.52-11.923v-5.84c0 4.38-2.92 8.76-8.52 11.923-11.442 6.57-29.7 6.57-40.9 0-5.842-3.163-8.52-7.543-8.52-11.68z"/>
        <path fill="#FFD008" fill-rule="nonzero" d="M478.863 164.97c11.198 6.57 11.198 17.277-.244 23.603-11.442 6.57-29.7 6.57-40.899 0-11.199-6.57-11.199-17.276.243-23.602 11.2-6.57 29.701-6.57 40.9 0z"/>
        <path fill="#23359E" fill-rule="nonzero" d="M381.97 459.145c11.442-6.57 29.701-6.57 40.9 0 11.198 6.57 11.198 17.275-.244 23.602-11.442 6.57-29.7 6.57-40.9 0-11.198-6.57-10.954-17.033.244-23.602z" opacity=".45"/>
        <path fill="#FFD008" fill-rule="nonzero" d="M416.783 457.928c3.409 1.946 5.356 4.38 6.33 6.813v-5.84c-.73-2.433-2.921-4.866-6.33-6.813-8.764-5.11-23.37-5.11-32.135 0-4.382 2.677-6.573 5.84-6.816 9.246v5.84c0-3.406 2.19-6.813 6.816-9.246 8.764-5.11 23.371-5.11 32.135 0z"/>
        <path fill="#FFD008" fill-rule="nonzero" d="M422.87 464.74c.243.73.487 1.704.487 2.434v-5.84c0-.73-.244-1.703-.487-2.433v5.84z"/>
        <path fill="#FFCA05" fill-rule="nonzero" d="M377.832 461.578v5.84c0 3.406 2.19 6.812 6.573 9.246 8.764 5.11 23.37 5.11 32.135 0 4.382-2.677 6.817-6.083 6.817-9.49v-5.84c0 3.407-2.191 6.813-6.817 9.49-9.008 5.11-23.371 5.11-32.135 0-4.382-2.677-6.573-6.083-6.573-9.246z"/>
        <path fill="#FFD008" fill-rule="nonzero" d="M377.832 467.417s0-.243 0 0v-5.84 5.84z"/>
        <path fill="#FFCA05" fill-rule="nonzero" d="M384.648 452.088c-9.007 5.11-9.007 13.383 0 18.736 8.764 5.11 23.371 5.11 32.135 0 9.008-5.11 9.008-13.383 0-18.736-9.007-5.11-23.37-5.11-32.135 0z"/>
        <path fill="#EC9A22" fill-rule="nonzero" d="M416.783 455.251c-8.764-5.11-23.37-5.11-32.135 0-3.651 2.19-5.842 4.867-6.573 7.787-.73-3.893 1.46-8.03 6.573-10.95 9.008-5.11 23.371-5.11 32.135 0 5.113 2.92 7.304 7.057 6.33 10.95-.487-2.92-2.678-5.597-6.33-7.787z"/>
        <path fill="#EC9A22" fill-rule="nonzero" d="M371.746 461.578v5.84c0 4.38 2.92 8.516 8.52 11.679 11.199 6.57 29.7 6.57 40.9 0 5.599-3.407 8.52-7.543 8.52-11.923v-5.84c0 4.38-2.921 8.76-8.52 11.923-11.443 6.57-29.701 6.57-40.9 0-5.843-3.163-8.52-7.543-8.52-11.68z"/>
        <path fill="#FFD008" fill-rule="nonzero" d="M421.166 449.655c11.198 6.57 11.198 17.276-.244 23.602-11.442 6.57-29.7 6.57-40.9 0-11.198-6.57-11.198-17.276.244-23.602 11.199-6.57 29.7-6.57 40.9 0zm-4.626 21.169c9.008-5.11 9.008-13.383 0-18.736-8.764-5.11-23.371-5.11-32.135 0-9.008 5.11-9.008 13.383 0 18.736 9.007 5.11 23.37 5.11 32.135 0z"/>
        <path fill="#FFD008" fill-rule="nonzero" d="M422.87 456.468c.243.73.487 1.703.487 2.433v-5.84c0-.73-.244-1.703-.487-2.433v5.84z"/>
        <path fill="#FFCA05" fill-rule="nonzero" d="M377.832 453.305v5.84c0 3.406 2.19 6.812 6.573 9.246 8.764 5.11 23.37 5.11 32.135 0 4.382-2.677 6.817-6.083 6.817-9.49v-5.84c0 3.407-2.191 6.813-6.817 9.49-9.008 5.11-23.371 5.11-32.135 0-4.382-2.677-6.573-6.083-6.573-9.246z"/>
        <path fill="#FFD008" fill-rule="nonzero" d="M377.832 459.145s0-.244 0 0v-5.84 5.84z"/>
        <path fill="#EC9A22" fill-rule="nonzero" d="M371.746 453.305v5.84c0 4.38 2.92 8.516 8.52 11.679 11.199 6.57 29.7 6.57 40.9 0 5.599-3.407 8.52-7.543 8.52-11.923v-5.84c0 4.38-2.921 8.76-8.52 11.923-11.443 6.57-29.701 6.57-40.9 0-5.843-3.163-8.52-7.543-8.52-11.68z"/>
        <path fill="#FFD008" fill-rule="nonzero" d="M421.166 441.382c11.198 6.57 11.198 17.276-.244 23.602-11.442 6.57-29.7 6.57-40.9 0-11.198-6.57-11.198-17.275.244-23.602 11.199-6.57 29.7-6.57 40.9 0z"/>
        <path fill="#23359E" fill-rule="nonzero" d="M501.017 268.138c-3.409 1.947.243 4.867 3.651 6.813l45.769 26.522c3.408 1.947 9.007 1.947 12.415 0l43.09-25.548c3.409-1.947 3.409-5.11 0-7.3l-45.768-26.522c-3.408-1.946-9.007-1.946-12.415 0l-46.742 26.035z"/>
        <path fill="url(#o)" fill-rule="nonzero" d="M499.556 255.972l17.285.244 28.24-16.79c3.408-1.946 9.007-1.946 12.416 0l30.43 17.763 17.772.243v11.923c0 1.46-.73 2.677-2.678 3.65l-43.09 25.548c-3.408 1.947-9.008 1.947-12.416 0l-45.768-26.521c-1.704-.974-2.678-2.434-2.435-3.65v-12.41h.244z"/>
        <path fill="#94CC85" fill-rule="nonzero" d="M502.234 252.566c-3.408 1.947-3.408 5.11 0 7.3l45.768 26.521c3.408 1.947 9.008 1.947 12.416 0l43.09-25.548c3.409-1.947 3.409-5.11 0-7.3l-45.768-26.522c-3.408-1.946-9.008-1.946-12.416 0l-43.09 25.549z"/>
        <path fill="url(#p)" fill-rule="nonzero" d="M502.234 252.566c-3.408 1.947-3.408 5.11 0 7.3l45.768 26.521c3.408 1.947 9.008 1.947 12.416 0l43.09-25.548c3.409-1.947 3.409-5.11 0-7.3l-45.768-26.522c-3.408-1.946-9.008-1.946-12.416 0l-43.09 25.549z"/>
        <path fill="#57B156" fill-rule="nonzero" d="M581.598 255.486l-27.753-16.06c-1.46-.73-3.165-.73-4.382 0l-26.05 15.087c-1.216.73-1.216 2.676 0 3.406l27.51 15.816c1.705.973 4.14.973 5.843 0l24.832-14.6c1.46-.973 1.46-2.92 0-3.65z"/>
        <path fill="#0D5FCF" fill-rule="nonzero" d="M515.38 273.735l2.678 1.46v-6.327l-2.678-1.46zM511.728 271.545l2.678 1.46v-6.083l-2.678-1.703zM508.077 269.598l2.677 1.46v-6.326l-2.677-1.46zM504.425 267.409l2.678 1.46v-6.327l-2.678-1.46zM519.519 273.735c0 .73.487 1.46.973 1.46.487 0 .974-.73.974-1.46s-.487-1.46-.974-1.46c-.73 0-.973.73-.973 1.46zM522.44 275.681c0 .73.487 1.46.974 1.46s.974-.73.974-1.46-.487-1.46-.974-1.46-.974.73-.974 1.46z"/>
        <path fill="url(#q)" fill-rule="nonzero" d="M499.556 234.804l17.285.243 28.24-16.79c3.408-1.946 9.007-1.946 12.416 0l30.43 17.763 17.772.244v11.922c0 1.46-.73 2.677-2.678 3.65l-43.09 25.549c-3.408 1.946-9.008 1.946-12.416 0l-45.768-26.522c-1.704-.974-2.678-2.433-2.435-3.65v-12.41h.244z"/>
        <path fill="url(#r)" fill-rule="nonzero" d="M502.234 231.397c-3.408 1.947-3.408 5.11 0 7.3l45.525 26.522c3.408 1.946 9.007 1.946 12.415 0l43.09-25.549c3.41-1.947 3.41-5.11 0-7.3l-45.767-26.521c-3.409-1.947-9.008-1.947-12.416 0l-42.847 25.548z"/>
        <path fill="#57B156" fill-rule="nonzero" d="M581.598 234.317l-27.753-16.06c-1.46-.73-3.165-.73-4.382 0l-26.05 15.087c-1.216.73-1.216 2.676 0 3.406l27.51 15.816c1.705.973 4.14.973 5.843 0l24.832-14.6c1.46-.73 1.46-2.676 0-3.649z"/>
        <path fill="#0D5FCF" fill-rule="nonzero" d="M515.38 252.81l2.678 1.46v-6.327l-2.678-1.46zM511.728 250.62l2.678 1.46v-6.327l-2.678-1.46zM508.077 248.43l2.677 1.46v-6.084l-2.677-1.703zM504.425 246.483l2.678 1.46v-6.326l-2.678-1.46z"/>
        <ellipse cx="520.249" cy="252.809" fill="#0D5FCF" fill-rule="nonzero" rx="1" ry="1.46"/>
        <path fill="#0D5FCF" fill-rule="nonzero" d="M522.44 254.756c0 .73.487 1.46.974 1.46s.974-.73.974-1.46-.487-1.46-.974-1.46-.974.73-.974 1.46z"/>
        <path fill="url(#s)" fill-rule="nonzero" d="M499.556 213.878l17.285.243 28.24-16.789c3.408-1.946 9.007-1.946 12.416 0l30.43 17.763 17.772.243v11.923c0 1.46-.73 2.676-2.678 3.65l-43.09 25.548c-3.408 1.947-9.008 1.947-12.416 0l-45.768-26.522c-1.704-.973-2.678-2.433-2.435-3.65v-12.409h.244z"/>
        <path fill="url(#t)" fill-rule="nonzero" d="M502.234 210.472c-3.408 1.946-3.408 5.11 0 7.3l45.768 26.521c3.408 1.947 9.008 1.947 12.416 0l43.09-25.548c3.409-1.947 3.409-5.11 0-7.3l-45.768-26.522c-3.408-1.946-9.008-1.946-12.416 0l-43.09 25.549z"/>
        <path fill="#FFF" fill-rule="nonzero" d="M581.598 213.391l-27.753-16.059c-1.46-.73-3.165-.73-4.382 0l-26.05 15.086c-1.216.73-1.216 2.677 0 3.407l27.51 15.815c1.705.974 4.14.974 5.843 0l24.832-14.599c1.46-.73 1.46-2.92 0-3.65z"/>
        <path fill="url(#u)" fill-rule="nonzero" d="M504.912 136.016h91.78l-13.633 78.105c-.244 1.217-.244 2.434-1.218 2.92l-24.831 14.6c-1.704.973-4.139.973-5.843 0l-27.753-16.06c-.487-.243-.974-.973-.974-1.216-4.139-18.006-17.528-78.35-17.528-78.35z"/>
        <path fill="#0D5FCF" fill-rule="nonzero" d="M515.38 231.64l2.678 1.46v-6.083l-2.678-1.703zM511.728 229.45l2.678 1.704v-6.326l-2.678-1.46zM508.077 227.504l2.677 1.46v-6.326l-2.677-1.46zM504.425 225.314l2.678 1.46v-6.083l-2.678-1.703z"/>
        <ellipse cx="520.249" cy="231.884" fill="#0D5FCF" fill-rule="nonzero" rx="1" ry="1.46"/>
        <path fill="#0D5FCF" fill-rule="nonzero" d="M522.44 233.83c0 .73.487 1.46.974 1.46s.974-.73.974-1.46-.487-1.46-.974-1.46-.974.487-.974 1.46zM80.825 397.341l2.678 1.46v-6.083l-2.678-1.703zM77.173 395.395l2.678 1.46v-6.327l-2.678-1.46zM73.521 393.205l2.678 1.46v-6.327l-2.678-1.46zM70.113 391.015l2.435 1.46v-6.083l-2.435-1.703zM84.963 397.585c0 .73.487 1.46.974 1.46s.974-.73.974-1.46-.487-1.46-.974-1.46c-.73 0-.974.486-.974 1.46zM88.128 399.531c0 .73.487 1.46.974 1.46s.974-.73.974-1.46-.487-1.46-.974-1.46c-.73 0-.974.487-.974 1.46zM80.825 376.416l2.678 1.46v-6.327l-2.678-1.46zM77.173 374.226l2.678 1.46v-6.083l-2.678-1.703zM73.521 372.036l2.678 1.703v-6.326l-2.678-1.46zM70.113 370.09l2.435 1.46v-6.327l-2.435-1.46z"/>
        <ellipse cx="85.937" cy="376.416" fill="#0D5FCF" fill-rule="nonzero" rx="1" ry="1.46"/>
        <path fill="#0D5FCF" fill-rule="nonzero" d="M88.128 378.362c0 .73.487 1.46.974 1.46s.974-.73.974-1.46-.487-1.46-.974-1.46c-.73 0-.974.73-.974 1.46zM80.825 355.247l2.678 1.703v-6.326l-2.678-1.46zM77.173 353.3l2.678 1.46v-6.326l-2.678-1.46zM73.521 351.11l2.678 1.46v-6.326l-2.678-1.46zM70.113 348.92l2.435 1.704v-6.326l-2.435-1.46z"/>
        <ellipse cx="85.937" cy="355.49" fill="#0D5FCF" fill-rule="nonzero" rx="1" ry="1.46"/>
        <path fill="#0D5FCF" fill-rule="nonzero" d="M88.128 357.437c0 .73.487 1.46.974 1.46s.974-.73.974-1.46-.487-1.46-.974-1.46c-.73 0-.974.73-.974 1.46z"/>
        <path d="M0 .487v558.905c47.229 16.06 216.426 0 251.726-33.821 34.813-33.335 371.745 3.65 306.5-121.417-18.501-35.524 59.646-50.854 90.077-99.03 50.637-80.296-35.3-135.53-126.837-177.138C418.731 80.782 424.574.486 329.872.486H0z"/>
        <path fill="#23359E" fill-rule="nonzero" d="M66.705 394.178c-3.408 1.947.243 4.867 3.652 6.813l45.768 26.522c3.408 1.947 9.007 1.947 12.416 0l43.09-25.549c3.408-1.946 3.408-5.11 0-7.3l-45.768-26.521c-3.409-1.947-9.008-1.947-12.416 0l-46.742 26.035z"/>
        <path fill="url(#v)" fill-rule="nonzero" d="M65 379.579l17.286.243 28.24-16.789c3.408-1.946 9.007-1.946 12.415 0l30.431 17.763 17.772.243v11.923c0 1.46-.73 2.676-2.678 3.65l-43.09 25.548c-3.408 1.946-9.008 1.946-12.416 0l-45.768-26.522c-1.704-.973-2.678-2.433-2.435-3.65v-12.41h.244z"/>
        <path fill="url(#w)" fill-rule="nonzero" d="M65.488 379.579l17.284.243 28.24-16.789c3.409-1.946 9.008-1.946 12.416 0l30.431 17.763 17.772.243v11.923c0 1.46-.73 2.676-2.678 3.65l-43.09 25.548c-3.409 1.946-9.008 1.946-12.416 0l-45.768-26.522c-1.705-.973-2.678-2.433-2.435-3.65v-12.41h.244z"/>
        <path fill="#94CC85" fill-rule="nonzero" d="M67.679 376.172c-3.409 1.947-3.409 5.11 0 7.3l45.768 26.522c3.408 1.946 9.007 1.946 12.416 0l42.847-25.549c3.408-1.946 3.408-5.11 0-7.3l-45.769-26.521c-3.408-1.947-9.007-1.947-12.415 0l-42.847 25.548z"/>
        <path fill="url(#x)" fill-rule="nonzero" d="M67.679 376.172c-3.409 1.947-3.409 5.11 0 7.3l45.768 26.522c3.408 1.946 9.007 1.946 12.416 0l42.847-25.549c3.408-1.946 3.408-5.11 0-7.3l-45.769-26.521c-3.408-1.947-9.007-1.947-12.415 0l-42.847 25.548z"/>
        <path fill="#57B156" fill-rule="nonzero" d="M147.043 379.092l-27.753-16.059c-1.461-.73-3.165-.73-4.382 0l-26.05 15.086c-1.217.73-1.217 2.677 0 3.407l27.51 15.815c1.704.974 4.139.974 5.843 0l24.832-14.599c1.46-.73 1.46-2.92 0-3.65z"/>
        <path fill="url(#y)" fill-rule="nonzero" d="M65 358.653l17.286.244 28.24-16.79c3.408-1.946 9.007-1.946 12.415 0l30.431 17.763 17.772.243v11.923c0 1.46-.73 2.677-2.678 3.65l-43.09 25.548c-3.408 1.947-9.008 1.947-12.416 0l-45.281-26.521c-1.705-.974-2.678-2.434-2.435-3.65v-12.41h-.243z"/>
        <path fill="url(#z)" fill-rule="nonzero" d="M67.679 355.247c-3.409 1.947-3.409 5.11 0 7.3l45.768 26.521c3.408 1.947 9.007 1.947 12.416 0l43.09-25.548c3.408-1.947 3.408-5.11 0-7.3l-45.768-26.522c-3.408-1.946-9.008-1.946-12.416 0l-43.09 25.549z"/>
        <path fill="#57B156" fill-rule="nonzero" d="M147.043 357.923l-27.753-16.059c-1.461-.73-3.165-.73-4.382 0l-26.05 15.086c-1.217.73-1.217 2.677 0 3.407l27.51 15.815c1.704.974 4.139.974 5.843 0l24.832-14.599c1.46-.73 1.46-2.676 0-3.65z"/>
        <path fill="url(#A)" fill-rule="nonzero" d="M65 337.485l17.286.243 28.24-16.79c3.408-1.946 9.007-1.946 12.415 0l30.431 17.763 17.772.244v11.922c0 1.46-.73 2.677-2.678 3.65l-43.09 25.549c-3.408 1.946-9.008 1.946-12.416 0l-45.768-26.522c-1.704-.974-2.678-2.433-2.435-3.65v-12.41h.244z"/>
        <path fill="url(#B)" fill-rule="nonzero" d="M67.679 334.078c-3.409 1.947-3.409 5.11 0 7.3l45.768 26.522c3.408 1.946 9.007 1.946 12.416 0l43.09-25.549c3.408-1.947 3.408-5.11 0-7.3l-45.768-26.521c-3.408-1.947-9.008-1.947-12.416 0l-43.09 25.548z"/>
        <path fill="#FFF" fill-rule="nonzero" d="M147.043 336.998l-27.753-16.06c-1.461-.73-3.165-.73-4.382 0l-26.05 15.087c-1.217.73-1.217 2.676 0 3.406l27.51 15.816c1.704.973 4.139.973 5.843 0l24.832-14.6c1.46-.73 1.46-2.676 0-3.649z"/>
        <path fill="url(#C)" fill-rule="nonzero" d="M70.6 259.622h91.78l-13.877 78.106c-.243 1.217-.243 2.433-1.217 2.92l-24.832 14.599c-1.704.973-4.138.973-5.842 0l-27.51-15.816c-.487-.243-.974-.973-.974-1.216-4.138-18.25-17.528-78.593-17.528-78.593z"/>
        <path fill="#23359E" fill-rule="nonzero" d="M425.06 423.863c-3.408 1.947.244 4.867 3.652 6.813l45.769 26.522c3.408 1.947 9.007 1.947 12.416 0l43.09-25.549c3.408-1.946 3.408-5.11 0-7.3l-45.768-26.521c-3.409-1.947-9.008-1.947-12.416 0l-46.742 26.035z"/>
        <path fill="url(#D)" fill-rule="nonzero" d="M423.6 409.264l17.285.243 28.24-16.789c3.408-1.946 9.007-1.946 12.416 0l30.43 17.763 17.772.243v11.923c0 1.46-.73 2.676-2.677 3.65l-43.09 25.548c-3.41 1.946-9.008 1.946-12.417 0l-45.525-26.522c-1.704-.973-2.677-2.433-2.434-3.65v-12.409z"/>
        <path fill="url(#E)" fill-rule="nonzero" d="M423.843 409.264l17.285.243 28.24-16.789c3.409-1.946 9.008-1.946 12.416 0l30.431 17.763 17.772.243v11.923c0 1.46-.73 2.676-2.678 3.65l-42.847 25.548c-3.408 1.946-9.008 1.946-12.416 0l-45.768-26.522c-1.704-.973-2.678-2.433-2.435-3.65v-12.409z"/>
        <path fill="#94CC85" fill-rule="nonzero" d="M426.278 405.614c-3.408 1.947-3.408 5.11 0 7.3l45.768 26.522c3.408 1.946 9.008 1.946 12.416 0l43.09-25.549c3.409-1.947 3.409-5.11 0-7.3l-45.768-26.521c-3.408-1.947-9.007-1.947-12.416 0l-43.09 25.548z"/>
        <path fill="url(#F)" fill-rule="nonzero" d="M426.278 405.614c-3.408 1.947-3.408 5.11 0 7.3l45.768 26.522c3.408 1.946 9.008 1.946 12.416 0l43.09-25.549c3.409-1.947 3.409-5.11 0-7.3l-45.768-26.521c-3.408-1.947-9.007-1.947-12.416 0l-43.09 25.548z"/>
        <path fill="#57B156" fill-rule="nonzero" d="M505.642 408.534l-27.753-16.06c-1.46-.73-3.165-.73-4.382 0l-26.05 15.087c-1.216.73-1.216 2.676 0 3.406l27.51 15.816c1.705.973 4.14.973 5.843 0l24.832-14.6c1.46-.73 1.46-2.676 0-3.649z"/>
        <path fill="url(#G)" fill-rule="nonzero" d="M423.6 388.095l17.285.243 28.24-16.789c3.408-1.946 9.007-1.946 12.416 0l30.43 17.763 17.772.243v11.923c0 1.46-.73 2.676-2.677 3.65l-42.847 25.548c-3.409 1.947-9.008 1.947-12.416 0l-45.769-26.278c-1.704-.974-2.677-2.434-2.434-3.65v-12.653z"/>
        <path fill="url(#H)" fill-rule="nonzero" d="M426.278 384.689c-3.408 1.946-3.408 5.11 0 7.3l45.768 26.521c3.408 1.947 9.008 1.947 12.416 0l43.09-25.548c3.409-1.947 3.409-5.11 0-7.3l-45.768-26.522c-3.408-1.946-9.007-1.946-12.416 0l-43.09 25.549z"/>
        <path fill="#57B156" fill-rule="nonzero" d="M505.642 387.609l-27.753-16.06c-1.46-.73-3.165-.73-4.382 0l-26.05 15.086c-1.216.73-1.216 2.677 0 3.407l27.51 15.815c1.705.974 4.14.974 5.843 0l24.832-14.599c1.46-.73 1.46-2.92 0-3.65z"/>
        <path fill="url(#I)" fill-rule="nonzero" d="M423.6 367.17l17.285.243 28.24-16.79c3.408-1.946 9.007-1.946 12.416 0l30.43 17.763 17.772.244v11.922c0 1.46-.73 2.677-2.677 3.65l-43.09 25.549c-3.41 1.946-9.008 1.946-12.417 0l-45.525-26.522c-1.704-.974-2.677-2.433-2.434-3.65v-12.41z"/>
        <path fill="url(#J)" fill-rule="nonzero" d="M426.278 363.763c-3.408 1.947-3.408 5.11 0 7.3l45.768 26.522c3.408 1.946 9.008 1.946 12.416 0l43.09-25.549c3.409-1.947 3.409-5.11 0-7.3l-46.011-26.521c-3.409-1.947-9.008-1.947-12.416 0l-42.847 25.548z"/>
        <path fill="#FFF" fill-rule="nonzero" d="M505.642 366.683l-27.753-16.06c-1.46-.73-3.165-.73-4.382 0l-26.05 15.087c-1.216.73-1.216 2.676 0 3.406l27.51 15.816c1.705.973 4.14.973 5.843 0l24.832-14.6c1.46-.972 1.46-2.919 0-3.649z"/>
        <path fill="url(#K)" fill-rule="nonzero" d="M428.956 289.307h91.78l-13.877 78.106c-.243 1.217-.243 2.433-1.217 2.92l-24.832 14.599c-1.704.973-4.138.973-5.842 0l-27.51-15.816c-.487-.243-.974-.973-.974-1.216a149814.32 149814.32 0 0 1-17.528-78.593z"/>
        <path fill="#23359E" fill-rule="nonzero" d="M312.588 150.128c-3.409 1.947.243 4.867 3.651 6.813l45.769 26.522c3.408 1.947 9.007 1.947 12.415 0l42.847-25.305c3.409-1.947 3.409-5.11 0-7.3l-45.768-26.522c-3.408-1.946-9.008-1.946-12.416 0l-46.498 25.792z"/>
        <path fill="url(#L)" fill-rule="nonzero" d="M311.127 135.53l17.285.242 28.24-16.789c3.408-1.946 9.007-1.946 12.416 0l30.43 17.763 17.772.243v11.923c0 1.46-.73 2.676-2.678 3.65l-43.09 25.548c-3.408 1.947-9.008 1.947-12.416 0l-45.768-26.522c-1.704-.973-2.678-2.433-2.435-3.65V135.53h.244z"/>
        <path fill="url(#M)" fill-rule="nonzero" d="M311.37 135.53l17.285.242 28.24-16.789c3.408-1.946 9.008-1.946 12.416 0l30.431 17.763 17.772.243v11.923c0 1.46-.73 2.676-2.678 3.65l-43.09 25.548c-3.409 1.947-9.008 1.947-12.416 0l-45.282-26.278c-1.704-.974-2.678-2.434-2.434-3.65v-12.653h-.244z"/>
        <path fill="#94CC85" fill-rule="nonzero" d="M313.561 132.123c-3.408 1.946-3.408 5.11 0 7.3l45.769 26.521c3.408 1.947 9.007 1.947 12.416 0l43.09-25.548c3.408-1.947 3.408-5.11 0-7.3l-45.768-26.522c-3.409-1.946-9.008-1.946-12.416 0l-43.09 25.549z"/>
        <path fill="url(#N)" fill-rule="nonzero" d="M313.561 132.123c-3.408 1.946-3.408 5.11 0 7.3l45.769 26.521c3.408 1.947 9.007 1.947 12.416 0l43.09-25.548c3.408-1.947 3.408-5.11 0-7.3l-45.768-26.522c-3.409-1.946-9.008-1.946-12.416 0l-43.09 25.549z"/>
        <path fill="#57B156" fill-rule="nonzero" d="M393.169 135.043l-27.753-16.06c-1.46-.73-3.165-.73-4.382 0l-26.05 15.086c-1.216.73-1.216 2.677 0 3.407l27.51 15.815c1.705.974 4.14.974 5.843 0l24.832-14.599c1.46-.73 1.217-2.92 0-3.65z"/>
        <path fill="url(#O)" fill-rule="nonzero" d="M311.127 114.604l17.285.243 28.24-16.79c3.408-1.946 9.007-1.946 12.416 0l30.43 17.763 17.772.244v11.922c0 1.46-.73 2.677-2.678 3.65l-43.09 25.549c-3.408 1.946-9.008 1.946-12.416 0l-45.768-26.522c-1.704-.974-2.678-2.433-2.435-3.65v-12.41h.244z"/>
        <path fill="url(#P)" fill-rule="nonzero" d="M313.561 111.197c-3.408 1.947-3.408 5.11 0 7.3l45.769 26.522c3.408 1.946 9.007 1.946 12.416 0l43.09-25.549c3.408-1.947 3.408-5.11 0-7.3L369.068 85.65c-3.409-1.947-9.008-1.947-12.416 0l-43.09 25.548z"/>
        <path fill="#57B156" fill-rule="nonzero" d="M393.169 113.874l-27.753-16.06c-1.46-.73-3.165-.73-4.382 0l-26.05 15.086c-1.216.73-1.216 2.677 0 3.407l27.51 15.816c1.705.973 4.14.973 5.843 0l24.832-14.6c1.46-.73 1.217-2.676 0-3.65z"/>
        <path fill="url(#Q)" fill-rule="nonzero" d="M311.127 93.435l17.285.243 28.24-16.789c3.408-1.946 9.007-1.946 12.416 0l30.43 17.762 17.772.244v12.166c0 1.46-.73 2.676-2.678 3.65l-42.846 25.548c-3.409 1.947-9.008 1.947-12.416 0l-45.769-26.522c-1.704-.973-2.678-2.433-2.434-3.65V93.435z"/>
        <path fill="url(#R)" fill-rule="nonzero" d="M313.561 90.028c-3.408 1.947-3.408 5.11 0 7.3l45.769 26.522c3.408 1.946 9.007 1.946 12.416 0l43.09-25.549c3.408-1.946 3.408-5.11 0-7.3L369.068 64.48c-3.409-1.947-9.008-1.947-12.416 0l-43.09 25.548z"/>
        <path fill="#FFF" fill-rule="nonzero" d="M393.169 92.948L365.416 76.89c-1.46-.73-3.165-.73-4.382 0l-26.05 15.086c-1.216.73-1.216 2.676 0 3.406l27.51 15.816c1.705.973 4.14.973 5.843 0l24.832-14.599c1.46-.73 1.217-2.92 0-3.65z"/>
        <path fill="url(#S)" fill-rule="nonzero" d="M316.483 15.572h91.78l-13.877 78.106c-.243 1.217-.243 2.433-1.217 2.92l-24.832 14.6c-1.704.972-4.138.972-5.843 0l-27.51-15.817c-.486-.243-.973-.973-.973-1.216-4.139-18.25-17.528-78.593-17.528-78.593z"/>
    </g>
</svg>
